%TF.GenerationSoftware,KiCad,Pcbnew,7.0.7*%
%TF.CreationDate,2023-10-13T15:10:29-04:00*%
%TF.ProjectId,Model A-1.0,4d6f6465-6c20-4412-9d31-2e302e6b6963,1.0*%
%TF.SameCoordinates,Original*%
%TF.FileFunction,Soldermask,Bot*%
%TF.FilePolarity,Negative*%
%FSLAX46Y46*%
G04 Gerber Fmt 4.6, Leading zero omitted, Abs format (unit mm)*
G04 Created by KiCad (PCBNEW 7.0.7) date 2023-10-13 15:10:29*
%MOMM*%
%LPD*%
G01*
G04 APERTURE LIST*
G04 Aperture macros list*
%AMRoundRect*
0 Rectangle with rounded corners*
0 $1 Rounding radius*
0 $2 $3 $4 $5 $6 $7 $8 $9 X,Y pos of 4 corners*
0 Add a 4 corners polygon primitive as box body*
4,1,4,$2,$3,$4,$5,$6,$7,$8,$9,$2,$3,0*
0 Add four circle primitives for the rounded corners*
1,1,$1+$1,$2,$3*
1,1,$1+$1,$4,$5*
1,1,$1+$1,$6,$7*
1,1,$1+$1,$8,$9*
0 Add four rect primitives between the rounded corners*
20,1,$1+$1,$2,$3,$4,$5,0*
20,1,$1+$1,$4,$5,$6,$7,0*
20,1,$1+$1,$6,$7,$8,$9,0*
20,1,$1+$1,$8,$9,$2,$3,0*%
G04 Aperture macros list end*
%ADD10C,1.750000*%
%ADD11C,3.000000*%
%ADD12C,3.987800*%
%ADD13R,2.550000X2.500000*%
%ADD14C,3.048000*%
%ADD15C,4.000000*%
%ADD16C,3.200000*%
%ADD17R,2.000000X2.000000*%
%ADD18C,2.000000*%
%ADD19C,0.650000*%
%ADD20O,1.000000X2.100000*%
%ADD21O,1.000000X1.600000*%
%ADD22R,1.700000X1.700000*%
%ADD23O,1.700000X1.700000*%
%ADD24C,1.700000*%
%ADD25RoundRect,0.225000X0.225000X0.375000X-0.225000X0.375000X-0.225000X-0.375000X0.225000X-0.375000X0*%
G04 APERTURE END LIST*
D10*
%TO.C,SW-1U-66*%
X241720000Y-131610000D03*
D11*
X242990000Y-129070000D03*
D12*
X246800000Y-131610000D03*
D11*
X249340000Y-126530000D03*
D10*
X251880000Y-131610000D03*
D13*
X239715000Y-129070000D03*
X252642000Y-126530000D03*
%TD*%
D14*
%TO.C,SW-2.25U-57*%
X51515000Y-124635000D03*
D12*
X51515000Y-139875000D03*
D10*
X58373000Y-131620000D03*
D11*
X59643000Y-129080000D03*
D12*
X63453000Y-131620000D03*
D11*
X65993000Y-126540000D03*
D10*
X68533000Y-131620000D03*
D14*
X75391000Y-124635000D03*
D12*
X75391000Y-139875000D03*
D13*
X56368000Y-129080000D03*
X69295000Y-126540000D03*
%TD*%
D10*
%TO.C,SW-1.75U-68*%
X286975000Y-131610000D03*
D11*
X288245000Y-129070000D03*
D12*
X292055000Y-131610000D03*
D11*
X294595000Y-126530000D03*
D10*
X297135000Y-131610000D03*
D13*
X284970000Y-129070000D03*
X297897000Y-126530000D03*
%TD*%
D10*
%TO.C,SW-1U-15*%
X84590000Y-74475000D03*
D11*
X85860000Y-71935000D03*
D12*
X89670000Y-74475000D03*
D11*
X92210000Y-69395000D03*
D10*
X94750000Y-74475000D03*
D13*
X82585000Y-71935000D03*
X95512000Y-69395000D03*
%TD*%
D15*
%TO.C,*%
X356820000Y-130585000D03*
%TD*%
D10*
%TO.C,SW-1U-10*%
X275060000Y-50700000D03*
D11*
X276330000Y-48160000D03*
D12*
X280140000Y-50700000D03*
D11*
X282680000Y-45620000D03*
D10*
X285220000Y-50700000D03*
D13*
X273055000Y-48160000D03*
X285982000Y-45620000D03*
%TD*%
D15*
%TO.C,*%
X40670000Y-39250000D03*
%TD*%
%TO.C,*%
X352385000Y-45065000D03*
%TD*%
%TO.C,*%
X40065000Y-161880000D03*
%TD*%
D10*
%TO.C,SW-1U-25*%
X275085000Y-74465000D03*
D11*
X276355000Y-71925000D03*
D12*
X280165000Y-74465000D03*
D11*
X282705000Y-69385000D03*
D10*
X285245000Y-74465000D03*
D13*
X273080000Y-71925000D03*
X286007000Y-69385000D03*
%TD*%
D10*
%TO.C,SW-1U-46*%
X117910000Y-112575000D03*
D11*
X119180000Y-110035000D03*
D12*
X122990000Y-112575000D03*
D11*
X125530000Y-107495000D03*
D10*
X128070000Y-112575000D03*
D13*
X115905000Y-110035000D03*
X128832000Y-107495000D03*
%TD*%
D15*
%TO.C,*%
X330575000Y-44785000D03*
%TD*%
D10*
%TO.C,SW-1U-51*%
X213170000Y-112565000D03*
D11*
X214440000Y-110025000D03*
D12*
X218250000Y-112565000D03*
D11*
X220790000Y-107485000D03*
D10*
X223330000Y-112565000D03*
D13*
X211165000Y-110025000D03*
X224092000Y-107485000D03*
%TD*%
D10*
%TO.C,SW-1U-79*%
X334722000Y-153160000D03*
D11*
X335992000Y-150620000D03*
D12*
X339802000Y-153160000D03*
D11*
X342342000Y-148080000D03*
D10*
X344882000Y-153160000D03*
D13*
X332717000Y-150620000D03*
X345644000Y-148080000D03*
%TD*%
D10*
%TO.C,SW-1U-38*%
X246540000Y-93515000D03*
D11*
X247810000Y-90975000D03*
D12*
X251620000Y-93515000D03*
D11*
X254160000Y-88435000D03*
D10*
X256700000Y-93515000D03*
D13*
X244535000Y-90975000D03*
X257462000Y-88435000D03*
%TD*%
D10*
%TO.C,SW-1.5U-41*%
X308420000Y-93510000D03*
D11*
X309690000Y-90970000D03*
D12*
X313500000Y-93510000D03*
D11*
X316040000Y-88430000D03*
D10*
X318580000Y-93510000D03*
D13*
X306415000Y-90970000D03*
X319342000Y-88430000D03*
%TD*%
D15*
%TO.C,*%
X156090000Y-43720000D03*
%TD*%
D10*
%TO.C,SW-1U-19*%
X160795000Y-74480000D03*
D11*
X162065000Y-71940000D03*
D12*
X165875000Y-74480000D03*
D11*
X168415000Y-69400000D03*
D10*
X170955000Y-74480000D03*
D13*
X158790000Y-71940000D03*
X171717000Y-69400000D03*
%TD*%
D15*
%TO.C,*%
X39970000Y-97915000D03*
%TD*%
%TO.C,*%
X373455000Y-160740000D03*
%TD*%
D10*
%TO.C,SW-1U-36*%
X208430000Y-93515000D03*
D11*
X209700000Y-90975000D03*
D12*
X213510000Y-93515000D03*
D11*
X216050000Y-88435000D03*
D10*
X218590000Y-93515000D03*
D13*
X206425000Y-90975000D03*
X219352000Y-88435000D03*
%TD*%
D10*
%TO.C,SW-1.25U-71*%
X72670000Y-150670000D03*
D11*
X73940000Y-148130000D03*
D12*
X77750000Y-150670000D03*
D11*
X80290000Y-145590000D03*
D10*
X82830000Y-150670000D03*
D13*
X70665000Y-148130000D03*
X83592000Y-145590000D03*
%TD*%
D15*
%TO.C,*%
X373575000Y-124055000D03*
%TD*%
D10*
%TO.C,SW-1U-20*%
X179845000Y-74470000D03*
D11*
X181115000Y-71930000D03*
D12*
X184925000Y-74470000D03*
D11*
X187465000Y-69390000D03*
D10*
X190005000Y-74470000D03*
D13*
X177840000Y-71930000D03*
X190767000Y-69390000D03*
%TD*%
D10*
%TO.C,SW-1U-18*%
X141740000Y-74480000D03*
D11*
X143010000Y-71940000D03*
D12*
X146820000Y-74480000D03*
D11*
X149360000Y-69400000D03*
D10*
X151900000Y-74480000D03*
D13*
X139735000Y-71940000D03*
X152662000Y-69400000D03*
%TD*%
D10*
%TO.C,SW-1U-60*%
X127445000Y-131625000D03*
D11*
X128715000Y-129085000D03*
D12*
X132525000Y-131625000D03*
D11*
X135065000Y-126545000D03*
D10*
X137605000Y-131625000D03*
D13*
X125440000Y-129085000D03*
X138367000Y-126545000D03*
%TD*%
D10*
%TO.C,SW-1U-65*%
X222675000Y-131610000D03*
D11*
X223945000Y-129070000D03*
D12*
X227755000Y-131610000D03*
D11*
X230295000Y-126530000D03*
D10*
X232835000Y-131610000D03*
D13*
X220670000Y-129070000D03*
X233597000Y-126530000D03*
%TD*%
D10*
%TO.C,SW-1U-12*%
X313165000Y-50705000D03*
D11*
X314435000Y-48165000D03*
D12*
X318245000Y-50705000D03*
D11*
X320785000Y-45625000D03*
D10*
X323325000Y-50705000D03*
D13*
X311160000Y-48165000D03*
X324087000Y-45625000D03*
%TD*%
D10*
%TO.C,SW-1U-48*%
X156020000Y-112585000D03*
D11*
X157290000Y-110045000D03*
D12*
X161100000Y-112585000D03*
D11*
X163640000Y-107505000D03*
D10*
X166180000Y-112585000D03*
D13*
X154015000Y-110045000D03*
X166942000Y-107505000D03*
%TD*%
D10*
%TO.C,SW-1U-44*%
X79800000Y-112555000D03*
D11*
X81070000Y-110015000D03*
D12*
X84880000Y-112555000D03*
D11*
X87420000Y-107475000D03*
D10*
X89960000Y-112555000D03*
D13*
X77795000Y-110015000D03*
X90722000Y-107475000D03*
%TD*%
D10*
%TO.C,SW-1U-63*%
X184585000Y-131610000D03*
D11*
X185855000Y-129070000D03*
D12*
X189665000Y-131610000D03*
D11*
X192205000Y-126530000D03*
D10*
X194745000Y-131610000D03*
D13*
X182580000Y-129070000D03*
X195507000Y-126530000D03*
%TD*%
D10*
%TO.C,SW-1U-16*%
X103640000Y-74485000D03*
D11*
X104910000Y-71945000D03*
D12*
X108720000Y-74485000D03*
D11*
X111260000Y-69405000D03*
D10*
X113800000Y-74485000D03*
D13*
X101635000Y-71945000D03*
X114562000Y-69405000D03*
%TD*%
D10*
%TO.C,SW-1U-49*%
X175065000Y-112565000D03*
D11*
X176335000Y-110025000D03*
D12*
X180145000Y-112565000D03*
D11*
X182685000Y-107485000D03*
D10*
X185225000Y-112565000D03*
D13*
X173060000Y-110025000D03*
X185987000Y-107485000D03*
%TD*%
D16*
%TO.C,VOL*%
X342305000Y-45155000D03*
X342305000Y-56355000D03*
D17*
X334805000Y-48255000D03*
D18*
X334805000Y-53255000D03*
X334805000Y-50755000D03*
X349305000Y-53255000D03*
X349305000Y-48255000D03*
%TD*%
D10*
%TO.C,SW-1U-32*%
X132215000Y-93525000D03*
D11*
X133485000Y-90985000D03*
D12*
X137295000Y-93525000D03*
D11*
X139835000Y-88445000D03*
D10*
X142375000Y-93525000D03*
D13*
X130210000Y-90985000D03*
X143137000Y-88445000D03*
%TD*%
D10*
%TO.C,SW-1U-47*%
X136965000Y-112580000D03*
D11*
X138235000Y-110040000D03*
D12*
X142045000Y-112580000D03*
D11*
X144585000Y-107500000D03*
D10*
X147125000Y-112580000D03*
D13*
X134960000Y-110040000D03*
X147887000Y-107500000D03*
%TD*%
D10*
%TO.C,SW-1.75U-43*%
X53605000Y-112560000D03*
D11*
X54875000Y-110020000D03*
D12*
X58685000Y-112560000D03*
D11*
X61225000Y-107480000D03*
D10*
X63765000Y-112560000D03*
D13*
X51600000Y-110020000D03*
X64527000Y-107480000D03*
%TD*%
D10*
%TO.C,SW-1.25U-72*%
X96480000Y-150665000D03*
D11*
X97750000Y-148125000D03*
D12*
X101560000Y-150665000D03*
D11*
X104100000Y-145585000D03*
D10*
X106640000Y-150665000D03*
D13*
X94475000Y-148125000D03*
X107402000Y-145585000D03*
%TD*%
D15*
%TO.C,*%
X213290000Y-144055000D03*
%TD*%
D10*
%TO.C,SW-1U-50*%
X194115000Y-112565000D03*
D11*
X195385000Y-110025000D03*
D12*
X199195000Y-112565000D03*
D11*
X201735000Y-107485000D03*
D10*
X204275000Y-112565000D03*
D13*
X192110000Y-110025000D03*
X205037000Y-107485000D03*
%TD*%
D10*
%TO.C,SW-1U-3*%
X116300000Y-50690000D03*
D11*
X117570000Y-48150000D03*
D12*
X121380000Y-50690000D03*
D11*
X123920000Y-45610000D03*
D10*
X126460000Y-50690000D03*
D13*
X114295000Y-48150000D03*
X127222000Y-45610000D03*
%TD*%
D10*
%TO.C,SW-1U-31*%
X113160000Y-93525000D03*
D11*
X114430000Y-90985000D03*
D12*
X118240000Y-93525000D03*
D11*
X120780000Y-88445000D03*
D10*
X123320000Y-93525000D03*
D13*
X111155000Y-90985000D03*
X124082000Y-88445000D03*
%TD*%
D10*
%TO.C,SW-1U-17*%
X122685000Y-74480000D03*
D11*
X123955000Y-71940000D03*
D12*
X127765000Y-74480000D03*
D11*
X130305000Y-69400000D03*
D10*
X132845000Y-74480000D03*
D13*
X120680000Y-71940000D03*
X133607000Y-69400000D03*
%TD*%
D10*
%TO.C,SW-1.25U-70*%
X48855000Y-150675000D03*
D11*
X50125000Y-148135000D03*
D12*
X53935000Y-150675000D03*
D11*
X56475000Y-145595000D03*
D10*
X59015000Y-150675000D03*
D13*
X46850000Y-148135000D03*
X59777000Y-145595000D03*
%TD*%
D15*
%TO.C,*%
X245100000Y-44735000D03*
%TD*%
D10*
%TO.C,SW-1U-75*%
X256010000Y-150660000D03*
D11*
X257280000Y-148120000D03*
D12*
X261090000Y-150660000D03*
D11*
X263630000Y-145580000D03*
D10*
X266170000Y-150660000D03*
D13*
X254005000Y-148120000D03*
X266932000Y-145580000D03*
%TD*%
D10*
%TO.C,SW-1U-39*%
X265575000Y-93515000D03*
D11*
X266845000Y-90975000D03*
D12*
X270655000Y-93515000D03*
D11*
X273195000Y-88435000D03*
D10*
X275735000Y-93515000D03*
D13*
X263570000Y-90975000D03*
X276497000Y-88435000D03*
%TD*%
D10*
%TO.C,SW-1U-8*%
X224240000Y-50700000D03*
D11*
X225510000Y-48160000D03*
D12*
X229320000Y-50700000D03*
D11*
X231860000Y-45620000D03*
D10*
X234400000Y-50700000D03*
D13*
X222235000Y-48160000D03*
X235162000Y-45620000D03*
%TD*%
D15*
%TO.C,*%
X138250000Y-144055000D03*
%TD*%
D10*
%TO.C,SW-1U-4*%
X135355000Y-50695000D03*
D11*
X136625000Y-48155000D03*
D12*
X140435000Y-50695000D03*
D11*
X142975000Y-45615000D03*
D10*
X145515000Y-50695000D03*
D13*
X133350000Y-48155000D03*
X146277000Y-45615000D03*
%TD*%
D10*
%TO.C,SW-1U-2*%
X97250000Y-50690000D03*
D11*
X98520000Y-48150000D03*
D12*
X102330000Y-50690000D03*
D11*
X104870000Y-45610000D03*
D10*
X107410000Y-50690000D03*
D13*
X95245000Y-48150000D03*
X108172000Y-45610000D03*
%TD*%
D10*
%TO.C,SW-1U-13*%
X46465000Y-74465000D03*
D11*
X47735000Y-71925000D03*
D12*
X51545000Y-74465000D03*
D11*
X54085000Y-69385000D03*
D10*
X56625000Y-74465000D03*
D13*
X44460000Y-71925000D03*
X57387000Y-69385000D03*
%TD*%
D10*
%TO.C,SW-1U-64*%
X203635000Y-131615000D03*
D11*
X204905000Y-129075000D03*
D12*
X208715000Y-131615000D03*
D11*
X211255000Y-126535000D03*
D10*
X213795000Y-131615000D03*
D13*
X201630000Y-129075000D03*
X214557000Y-126535000D03*
%TD*%
D19*
%TO.C,USB1*%
X70175000Y-41000000D03*
X64395000Y-41000000D03*
D20*
X71605000Y-41500000D03*
D21*
X71605000Y-37320000D03*
D20*
X62965000Y-41500000D03*
D21*
X62965000Y-37320000D03*
%TD*%
D10*
%TO.C,SW-1U-80*%
X337215000Y-131610000D03*
D11*
X338485000Y-129070000D03*
D12*
X342295000Y-131610000D03*
D11*
X344835000Y-126530000D03*
D10*
X347375000Y-131610000D03*
D13*
X335210000Y-129070000D03*
X348137000Y-126530000D03*
%TD*%
D10*
%TO.C,SW-1U-74*%
X236960000Y-150660000D03*
D11*
X238230000Y-148120000D03*
D12*
X242040000Y-150660000D03*
D11*
X244580000Y-145580000D03*
D10*
X247120000Y-150660000D03*
D13*
X234955000Y-148120000D03*
X247882000Y-145580000D03*
%TD*%
D10*
%TO.C,SW-1U-23*%
X237010000Y-74465000D03*
D11*
X238280000Y-71925000D03*
D12*
X242090000Y-74465000D03*
D11*
X244630000Y-69385000D03*
D10*
X247170000Y-74465000D03*
D13*
X235005000Y-71925000D03*
X247932000Y-69385000D03*
%TD*%
D10*
%TO.C,SW-1U-33*%
X151265000Y-93530000D03*
D11*
X152535000Y-90990000D03*
D12*
X156345000Y-93530000D03*
D11*
X158885000Y-88450000D03*
D10*
X161425000Y-93530000D03*
D13*
X149260000Y-90990000D03*
X162187000Y-88450000D03*
%TD*%
D10*
%TO.C,SW-1U-42*%
X337210000Y-93515000D03*
D11*
X338480000Y-90975000D03*
D12*
X342290000Y-93515000D03*
D11*
X344830000Y-88435000D03*
D10*
X347370000Y-93515000D03*
D13*
X335205000Y-90975000D03*
X348132000Y-88435000D03*
%TD*%
D10*
%TO.C,SW-1U-30*%
X94105000Y-93525000D03*
D11*
X95375000Y-90985000D03*
D12*
X99185000Y-93525000D03*
D11*
X101725000Y-88445000D03*
D10*
X104265000Y-93525000D03*
D13*
X92100000Y-90985000D03*
X105027000Y-88445000D03*
%TD*%
D10*
%TO.C,SW-1U-62*%
X165535000Y-131615000D03*
D11*
X166805000Y-129075000D03*
D12*
X170615000Y-131615000D03*
D11*
X173155000Y-126535000D03*
D10*
X175695000Y-131615000D03*
D13*
X163530000Y-129075000D03*
X176457000Y-126535000D03*
%TD*%
D15*
%TO.C,*%
X184975000Y-102595000D03*
%TD*%
D10*
%TO.C,SW-1U-53*%
X251265000Y-112555000D03*
D11*
X252535000Y-110015000D03*
D12*
X256345000Y-112555000D03*
D11*
X258885000Y-107475000D03*
D10*
X261425000Y-112555000D03*
D13*
X249260000Y-110015000D03*
X262187000Y-107475000D03*
%TD*%
D10*
%TO.C,SW-1U-0*%
X46460000Y-50700000D03*
D11*
X47730000Y-48160000D03*
D12*
X51540000Y-50700000D03*
D11*
X54080000Y-45620000D03*
D10*
X56620000Y-50700000D03*
D13*
X44455000Y-48160000D03*
X57382000Y-45620000D03*
%TD*%
D15*
%TO.C,*%
X330350000Y-102610000D03*
%TD*%
D10*
%TO.C,SW-1U-24*%
X256045000Y-74465000D03*
D11*
X257315000Y-71925000D03*
D12*
X261125000Y-74465000D03*
D11*
X263665000Y-69385000D03*
D10*
X266205000Y-74465000D03*
D13*
X254040000Y-71925000D03*
X266967000Y-69385000D03*
%TD*%
D10*
%TO.C,SW-1U-21*%
X198910000Y-74470000D03*
D11*
X200180000Y-71930000D03*
D12*
X203990000Y-74470000D03*
D11*
X206530000Y-69390000D03*
D10*
X209070000Y-74470000D03*
D13*
X196905000Y-71930000D03*
X209832000Y-69390000D03*
%TD*%
D14*
%TO.C,SW-2U-26*%
X296799000Y-67470000D03*
D12*
X296799000Y-82710000D03*
D10*
X303657000Y-74455000D03*
D11*
X304927000Y-71915000D03*
D12*
X308737000Y-74455000D03*
D11*
X311277000Y-69375000D03*
D10*
X313817000Y-74455000D03*
D14*
X320675000Y-67470000D03*
D12*
X320675000Y-82710000D03*
D13*
X301652000Y-71915000D03*
X314579000Y-69375000D03*
%TD*%
D10*
%TO.C,SW-1U-14*%
X65510000Y-74465000D03*
D11*
X66780000Y-71925000D03*
D12*
X70590000Y-74465000D03*
D11*
X73130000Y-69385000D03*
D10*
X75670000Y-74465000D03*
D13*
X63505000Y-71925000D03*
X76432000Y-69385000D03*
%TD*%
D10*
%TO.C,SW-1U-56*%
X337215000Y-112565000D03*
D11*
X338485000Y-110025000D03*
D12*
X342295000Y-112565000D03*
D11*
X344835000Y-107485000D03*
D10*
X347375000Y-112565000D03*
D13*
X335210000Y-110025000D03*
X348137000Y-107485000D03*
%TD*%
D10*
%TO.C,SW-1U-1*%
X78200000Y-50695000D03*
D11*
X79470000Y-48155000D03*
D12*
X83280000Y-50695000D03*
D11*
X85820000Y-45615000D03*
D10*
X88360000Y-50695000D03*
D13*
X76195000Y-48155000D03*
X89122000Y-45615000D03*
%TD*%
D22*
%TO.C,OLED*%
X360945000Y-82950000D03*
D23*
X363485000Y-82950000D03*
X366025000Y-82950000D03*
X368565000Y-82950000D03*
%TD*%
D10*
%TO.C,SW-1U-52*%
X232215000Y-112560000D03*
D11*
X233485000Y-110020000D03*
D12*
X237295000Y-112560000D03*
D11*
X239835000Y-107480000D03*
D10*
X242375000Y-112560000D03*
D13*
X230210000Y-110020000D03*
X243137000Y-107480000D03*
%TD*%
D14*
%TO.C,SW-6.25U-73*%
X122985000Y-143680000D03*
D12*
X122985000Y-158920000D03*
D10*
X167904900Y-150665000D03*
D11*
X169174900Y-148125000D03*
D12*
X172984900Y-150665000D03*
D11*
X175524900Y-145585000D03*
D10*
X178064900Y-150665000D03*
D14*
X222984800Y-143680000D03*
D12*
X222984800Y-158920000D03*
D13*
X165899900Y-148125000D03*
X178826900Y-145585000D03*
%TD*%
D10*
%TO.C,SW-1U-76*%
X275060000Y-150660000D03*
D11*
X276330000Y-148120000D03*
D12*
X280140000Y-150660000D03*
D11*
X282680000Y-145580000D03*
D10*
X285220000Y-150660000D03*
D13*
X273055000Y-148120000D03*
X285982000Y-145580000D03*
%TD*%
D10*
%TO.C,SW-1U-27*%
X337210000Y-74465000D03*
D11*
X338480000Y-71925000D03*
D12*
X342290000Y-74465000D03*
D11*
X344830000Y-69385000D03*
D10*
X347370000Y-74465000D03*
D13*
X335205000Y-71925000D03*
X348132000Y-69385000D03*
%TD*%
D10*
%TO.C,SW-1U-54*%
X270310000Y-112565000D03*
D11*
X271580000Y-110025000D03*
D12*
X275390000Y-112565000D03*
D11*
X277930000Y-107485000D03*
D10*
X280470000Y-112565000D03*
D13*
X268305000Y-110025000D03*
X281232000Y-107485000D03*
%TD*%
D10*
%TO.C,SW-1U-22*%
X217960000Y-74465000D03*
D11*
X219230000Y-71925000D03*
D12*
X223040000Y-74465000D03*
D11*
X225580000Y-69385000D03*
D10*
X228120000Y-74465000D03*
D13*
X215955000Y-71925000D03*
X228882000Y-69385000D03*
%TD*%
D10*
%TO.C,SW-1U-61*%
X146480000Y-131625000D03*
D11*
X147750000Y-129085000D03*
D12*
X151560000Y-131625000D03*
D11*
X154100000Y-126545000D03*
D10*
X156640000Y-131625000D03*
D13*
X144475000Y-129085000D03*
X157402000Y-126545000D03*
%TD*%
D10*
%TO.C,SW-1U-45*%
X98860000Y-112575000D03*
D11*
X100130000Y-110035000D03*
D12*
X103940000Y-112575000D03*
D11*
X106480000Y-107495000D03*
D10*
X109020000Y-112575000D03*
D13*
X96855000Y-110035000D03*
X109782000Y-107495000D03*
%TD*%
D10*
%TO.C,SW-1U-37*%
X227490000Y-93515000D03*
D11*
X228760000Y-90975000D03*
D12*
X232570000Y-93515000D03*
D11*
X235110000Y-88435000D03*
D10*
X237650000Y-93515000D03*
D13*
X225485000Y-90975000D03*
X238412000Y-88435000D03*
%TD*%
D10*
%TO.C,SW-1U-11*%
X294110000Y-50705000D03*
D11*
X295380000Y-48165000D03*
D12*
X299190000Y-50705000D03*
D11*
X301730000Y-45625000D03*
D10*
X304270000Y-50705000D03*
D13*
X292105000Y-48165000D03*
X305032000Y-45625000D03*
%TD*%
D22*
%TO.C,SW1*%
X360790000Y-37625000D03*
D24*
X367290000Y-37625000D03*
X360790000Y-42125000D03*
X367290000Y-42125000D03*
%TD*%
D10*
%TO.C,SW-1U-40*%
X284615000Y-93515000D03*
D11*
X285885000Y-90975000D03*
D12*
X289695000Y-93515000D03*
D11*
X292235000Y-88435000D03*
D10*
X294775000Y-93515000D03*
D13*
X282610000Y-90975000D03*
X295537000Y-88435000D03*
%TD*%
D10*
%TO.C,SW-1U-35*%
X189380000Y-93520000D03*
D11*
X190650000Y-90980000D03*
D12*
X194460000Y-93520000D03*
D11*
X197000000Y-88440000D03*
D10*
X199540000Y-93520000D03*
D13*
X187375000Y-90980000D03*
X200302000Y-88440000D03*
%TD*%
D10*
%TO.C,SW-1U-59*%
X108395000Y-131610000D03*
D11*
X109665000Y-129070000D03*
D12*
X113475000Y-131610000D03*
D11*
X116015000Y-126530000D03*
D10*
X118555000Y-131610000D03*
D13*
X106390000Y-129070000D03*
X119317000Y-126530000D03*
%TD*%
D10*
%TO.C,SW-1U-34*%
X170325000Y-93525000D03*
D11*
X171595000Y-90985000D03*
D12*
X175405000Y-93525000D03*
D11*
X177945000Y-88445000D03*
D10*
X180485000Y-93525000D03*
D13*
X168320000Y-90985000D03*
X181247000Y-88445000D03*
%TD*%
D10*
%TO.C,SW-1U-5*%
X167105000Y-50695000D03*
D11*
X168375000Y-48155000D03*
D12*
X172185000Y-50695000D03*
D11*
X174725000Y-45615000D03*
D10*
X177265000Y-50695000D03*
D13*
X165100000Y-48155000D03*
X178027000Y-45615000D03*
%TD*%
D10*
%TO.C,SW-1U-7*%
X205220000Y-50700000D03*
D11*
X206490000Y-48160000D03*
D12*
X210300000Y-50700000D03*
D11*
X212840000Y-45620000D03*
D10*
X215380000Y-50700000D03*
D13*
X203215000Y-48160000D03*
X216142000Y-45620000D03*
%TD*%
D14*
%TO.C,SW-2.25U-55*%
X294410000Y-105575000D03*
D12*
X294410000Y-120815000D03*
D10*
X301268000Y-112560000D03*
D11*
X302538000Y-110020000D03*
D12*
X306348000Y-112560000D03*
D11*
X308888000Y-107480000D03*
D10*
X311428000Y-112560000D03*
D14*
X318286000Y-105575000D03*
D12*
X318286000Y-120815000D03*
D13*
X299263000Y-110020000D03*
X312190000Y-107480000D03*
%TD*%
D10*
%TO.C,SW-1U-77*%
X296620000Y-153160000D03*
D11*
X297890000Y-150620000D03*
D12*
X301700000Y-153160000D03*
D11*
X304240000Y-148080000D03*
D10*
X306780000Y-153160000D03*
D13*
X294615000Y-150620000D03*
X307542000Y-148080000D03*
%TD*%
D10*
%TO.C,SW-1U-67*%
X260775000Y-131615000D03*
D11*
X262045000Y-129075000D03*
D12*
X265855000Y-131615000D03*
D11*
X268395000Y-126535000D03*
D10*
X270935000Y-131615000D03*
D13*
X258770000Y-129075000D03*
X271697000Y-126535000D03*
%TD*%
D10*
%TO.C,SW-69*%
X315662000Y-134105000D03*
D11*
X316932000Y-131565000D03*
D12*
X320742000Y-134105000D03*
D11*
X323282000Y-129025000D03*
D10*
X325822000Y-134105000D03*
D13*
X313657000Y-131565000D03*
X326584000Y-129025000D03*
%TD*%
D10*
%TO.C,SW-1U-58*%
X89330000Y-131610000D03*
D11*
X90600000Y-129070000D03*
D12*
X94410000Y-131610000D03*
D11*
X96950000Y-126530000D03*
D10*
X99490000Y-131610000D03*
D13*
X87325000Y-129070000D03*
X100252000Y-126530000D03*
%TD*%
D10*
%TO.C,SW-1U-78*%
X315667000Y-153160000D03*
D11*
X316937000Y-150620000D03*
D12*
X320747000Y-153160000D03*
D11*
X323287000Y-148080000D03*
D10*
X325827000Y-153160000D03*
D13*
X313662000Y-150620000D03*
X326589000Y-148080000D03*
%TD*%
D10*
%TO.C,SW-1.5U-28*%
X51225000Y-93510000D03*
D11*
X52495000Y-90970000D03*
D12*
X56305000Y-93510000D03*
D11*
X58845000Y-88430000D03*
D10*
X61385000Y-93510000D03*
D13*
X49220000Y-90970000D03*
X62147000Y-88430000D03*
%TD*%
D10*
%TO.C,SW-1U-6*%
X186165000Y-50700000D03*
D11*
X187435000Y-48160000D03*
D12*
X191245000Y-50700000D03*
D11*
X193785000Y-45620000D03*
D10*
X196325000Y-50700000D03*
D13*
X184160000Y-48160000D03*
X197087000Y-45620000D03*
%TD*%
D10*
%TO.C,SW-1U-29*%
X75045000Y-93505000D03*
D11*
X76315000Y-90965000D03*
D12*
X80125000Y-93505000D03*
D11*
X82665000Y-88425000D03*
D10*
X85205000Y-93505000D03*
D13*
X73040000Y-90965000D03*
X85967000Y-88425000D03*
%TD*%
D15*
%TO.C,*%
X332075000Y-142425000D03*
%TD*%
D10*
%TO.C,SW-1U-9*%
X256010000Y-50700000D03*
D11*
X257280000Y-48160000D03*
D12*
X261090000Y-50700000D03*
D11*
X263630000Y-45620000D03*
D10*
X266170000Y-50700000D03*
D13*
X254005000Y-48160000D03*
X266932000Y-45620000D03*
%TD*%
D25*
%TO.C,D50*%
X200900000Y-118705000D03*
X197600000Y-118705000D03*
%TD*%
%TO.C,D69*%
X322455000Y-140110000D03*
X319155000Y-140110000D03*
%TD*%
%TO.C,D43*%
X60365000Y-118395000D03*
X57065000Y-118395000D03*
%TD*%
%TO.C,D47*%
X143820000Y-118780000D03*
X140520000Y-118780000D03*
%TD*%
%TO.C,D61*%
X153227500Y-137650000D03*
X149927500Y-137650000D03*
%TD*%
%TO.C,D2*%
X103975000Y-56640000D03*
X100675000Y-56640000D03*
%TD*%
%TO.C,D59*%
X115157500Y-137635000D03*
X111857500Y-137635000D03*
%TD*%
%TO.C,D35*%
X196125000Y-99675000D03*
X192825000Y-99675000D03*
%TD*%
%TO.C,D53*%
X257935000Y-118655000D03*
X254635000Y-118655000D03*
%TD*%
%TO.C,D66*%
X248477500Y-137785000D03*
X245177500Y-137785000D03*
%TD*%
%TO.C,D57*%
X65157500Y-137585000D03*
X61857500Y-137585000D03*
%TD*%
%TO.C,D42*%
X343910000Y-99675000D03*
X340610000Y-99675000D03*
%TD*%
%TO.C,D70*%
X55640000Y-156680000D03*
X52340000Y-156680000D03*
%TD*%
%TO.C,D22*%
X224702500Y-80285000D03*
X221402500Y-80285000D03*
%TD*%
%TO.C,D28*%
X57992500Y-99560000D03*
X54692500Y-99560000D03*
%TD*%
%TO.C,D25*%
X281772500Y-80310000D03*
X278472500Y-80310000D03*
%TD*%
%TO.C,D30*%
X100867500Y-99540000D03*
X97567500Y-99540000D03*
%TD*%
%TO.C,D18*%
X148507500Y-80300000D03*
X145207500Y-80300000D03*
%TD*%
%TO.C,D54*%
X277110000Y-118730000D03*
X273810000Y-118730000D03*
%TD*%
%TO.C,D71*%
X79417500Y-156860000D03*
X76117500Y-156860000D03*
%TD*%
%TO.C,D80*%
X343980000Y-137745000D03*
X340680000Y-137745000D03*
%TD*%
%TO.C,D9*%
X262767500Y-56535000D03*
X259467500Y-56535000D03*
%TD*%
%TO.C,D52*%
X239005000Y-118805000D03*
X235705000Y-118805000D03*
%TD*%
%TO.C,D62*%
X172282500Y-137615000D03*
X168982500Y-137615000D03*
%TD*%
%TO.C,D5*%
X173867500Y-56605000D03*
X170567500Y-56605000D03*
%TD*%
%TO.C,D4*%
X142087500Y-56615000D03*
X138787500Y-56615000D03*
%TD*%
%TO.C,D7*%
X211935000Y-56585000D03*
X208635000Y-56585000D03*
%TD*%
%TO.C,D36*%
X215180000Y-99625000D03*
X211880000Y-99625000D03*
%TD*%
%TO.C,D16*%
X110417500Y-80335000D03*
X107117500Y-80335000D03*
%TD*%
%TO.C,D33*%
X158035000Y-99460000D03*
X154735000Y-99460000D03*
%TD*%
%TO.C,D78*%
X322380000Y-159250000D03*
X319080000Y-159250000D03*
%TD*%
%TO.C,D75*%
X262802500Y-156710000D03*
X259502500Y-156710000D03*
%TD*%
%TO.C,D64*%
X210415000Y-137855000D03*
X207115000Y-137855000D03*
%TD*%
%TO.C,D73*%
X174625000Y-156740000D03*
X171325000Y-156740000D03*
%TD*%
%TO.C,D24*%
X262737500Y-80410000D03*
X259437500Y-80410000D03*
%TD*%
%TO.C,D14*%
X72297500Y-80300000D03*
X68997500Y-80300000D03*
%TD*%
%TO.C,D65*%
X229385000Y-137720000D03*
X226085000Y-137720000D03*
%TD*%
%TO.C,D67*%
X267492500Y-137735000D03*
X264192500Y-137735000D03*
%TD*%
%TO.C,D19*%
X167532500Y-80275000D03*
X164232500Y-80275000D03*
%TD*%
%TO.C,D3*%
X123047500Y-56590000D03*
X119747500Y-56590000D03*
%TD*%
%TO.C,D51*%
X219905000Y-118705000D03*
X216605000Y-118705000D03*
%TD*%
%TO.C,D20*%
X186600000Y-80310000D03*
X183300000Y-80310000D03*
%TD*%
%TO.C,D79*%
X341345000Y-159165000D03*
X338045000Y-159165000D03*
%TD*%
%TO.C,D34*%
X177070000Y-99460000D03*
X173770000Y-99460000D03*
%TD*%
%TO.C,D68*%
X293735000Y-137635000D03*
X290435000Y-137635000D03*
%TD*%
%TO.C,D37*%
X234230000Y-99595000D03*
X230930000Y-99595000D03*
%TD*%
%TO.C,D55*%
X308040000Y-118630000D03*
X304740000Y-118630000D03*
%TD*%
%TO.C,D38*%
X253315000Y-99490000D03*
X250015000Y-99490000D03*
%TD*%
%TO.C,D63*%
X191280000Y-137635000D03*
X187980000Y-137635000D03*
%TD*%
%TO.C,D58*%
X96080000Y-137585000D03*
X92780000Y-137585000D03*
%TD*%
%TO.C,D40*%
X291310000Y-99385000D03*
X288010000Y-99385000D03*
%TD*%
%TO.C,D41*%
X315162500Y-99545000D03*
X311862500Y-99545000D03*
%TD*%
%TO.C,D11*%
X300825000Y-56550000D03*
X297525000Y-56550000D03*
%TD*%
%TO.C,D44*%
X86592500Y-118520000D03*
X83292500Y-118520000D03*
%TD*%
%TO.C,D13*%
X53192500Y-80215000D03*
X49892500Y-80215000D03*
%TD*%
%TO.C,D77*%
X303312500Y-159165000D03*
X300012500Y-159165000D03*
%TD*%
%TO.C,D6*%
X192865000Y-56565000D03*
X189565000Y-56565000D03*
%TD*%
%TO.C,D15*%
X91347500Y-80385000D03*
X88047500Y-80385000D03*
%TD*%
%TO.C,D72*%
X103245000Y-156810000D03*
X99945000Y-156810000D03*
%TD*%
D15*
%TO.C,*%
X374860000Y-38105000D03*
%TD*%
D25*
%TO.C,D32*%
X139015000Y-99575000D03*
X135715000Y-99575000D03*
%TD*%
%TO.C,D26*%
X310402500Y-80390000D03*
X307102500Y-80390000D03*
%TD*%
%TO.C,D31*%
X119902500Y-99305000D03*
X116602500Y-99305000D03*
%TD*%
%TO.C,D56*%
X343885000Y-118580000D03*
X340585000Y-118580000D03*
%TD*%
%TO.C,D17*%
X129402500Y-80325000D03*
X126102500Y-80325000D03*
%TD*%
%TO.C,D29*%
X81840000Y-99355000D03*
X78540000Y-99355000D03*
%TD*%
%TO.C,D60*%
X134220000Y-137535000D03*
X130920000Y-137535000D03*
%TD*%
%TO.C,D45*%
X105697500Y-118720000D03*
X102397500Y-118720000D03*
%TD*%
%TO.C,D46*%
X124660000Y-118460000D03*
X121360000Y-118460000D03*
%TD*%
%TO.C,D1*%
X84920000Y-56615000D03*
X81620000Y-56615000D03*
%TD*%
%TO.C,D49*%
X181772500Y-118730000D03*
X178472500Y-118730000D03*
%TD*%
%TO.C,D8*%
X230977500Y-56595000D03*
X227677500Y-56595000D03*
%TD*%
%TO.C,D27*%
X343897500Y-80310000D03*
X340597500Y-80310000D03*
%TD*%
%TO.C,D48*%
X162770000Y-118655000D03*
X159470000Y-118655000D03*
%TD*%
%TO.C,D76*%
X281780000Y-156775000D03*
X278480000Y-156775000D03*
%TD*%
%TO.C,D12*%
X319875000Y-56560000D03*
X316575000Y-56560000D03*
%TD*%
%TO.C,D74*%
X243725000Y-156690000D03*
X240425000Y-156690000D03*
%TD*%
%TO.C,D21*%
X205712500Y-80380000D03*
X202412500Y-80380000D03*
%TD*%
%TO.C,D23*%
X243697500Y-80330000D03*
X240397500Y-80330000D03*
%TD*%
%TO.C,D0*%
X53157500Y-56565000D03*
X49857500Y-56565000D03*
%TD*%
%TO.C,D10*%
X281780000Y-56510000D03*
X278480000Y-56510000D03*
%TD*%
%TO.C,D39*%
X272285000Y-99540000D03*
X268985000Y-99540000D03*
%TD*%
M02*
