M48
; DRILL file {KiCad 7.0.7} date Fri Oct 13 15:10:30 2023
; FORMAT={-:-/ absolute / inch / decimal}
; #@! TF.CreationDate,2023-10-13T15:10:30-04:00
; #@! TF.GenerationSoftware,Kicad,Pcbnew,7.0.7
; #@! TF.FileFunction,Plated,1,2,PTH
FMAT,2
INCH
; #@! TA.AperFunction,Plated,PTH,ViaDrill
T1C0.0157
; #@! TA.AperFunction,Plated,PTH,ComponentDrill
T2C0.0236
; #@! TA.AperFunction,Plated,PTH,ComponentDrill
T3C0.0394
; #@! TA.AperFunction,Plated,PTH,ComponentDrill
T4C0.1024
; #@! TA.AperFunction,Plated,PTH,ComponentDrill
T5C0.1260
%
G90
G05
T1
X2.0287Y-2.2289
X2.0301Y-3.1575
X2.1272Y-6.1697
X2.2138Y-3.924
X2.3132Y-4.663
X2.5039Y-5.4185
X2.7892Y-3.1594
X3.0695Y-6.1756
X3.1608Y-3.9114
X3.2848Y-2.2272
X3.3423Y-4.6654
X3.5378Y-3.1638
X3.7232Y-5.4185
X3.9093Y-3.9187
X3.9138Y-5.1037
X4.0067Y-6.1738
X4.036Y-2.2307
X4.0976Y-4.6756
X4.2951Y-3.1585
X4.4717Y-5.4203
X4.6541Y-3.9089
X4.7837Y-2.2307
X4.847Y-4.6648
X5.0382Y-3.1612
X5.2157Y-5.4193
X5.4124Y-3.9205
X5.523Y-2.2325
X5.6Y-4.6785
X5.7866Y-3.1567
X5.9659Y-5.4203
X6.1618Y-3.9159
X6.3433Y-4.6715
X6.5325Y-3.1602
X6.7154Y-5.4193
X6.7917Y-2.2289
X6.8209Y-6.1719
X6.9049Y-3.9142
X6.9098Y-5.0996
X7.0902Y-4.6732
X7.289Y-3.1612
X7.4691Y-5.4175
X7.5376Y-2.2297
X7.6624Y-3.9258
X7.851Y-4.6732
X8.0402Y-3.163
X8.2213Y-5.4238
X8.2833Y-2.2289
X8.4116Y-3.924
X8.5955Y-4.6791
X8.7841Y-3.163
X8.8138Y-5.5628
X8.9634Y-5.423
X9.0327Y-2.2244
X9.1585Y-3.9222
X9.3455Y-4.6791
X9.5317Y-3.163
X9.5319Y-6.1657
X9.7226Y-5.4256
X9.9077Y-3.915
X10.0902Y-4.6726
X10.2799Y-6.1638
X10.2829Y-3.1638
X10.2878Y-2.2254
X10.4746Y-5.4283
X10.65Y-3.9169
X10.8496Y-4.6738
X11.0079Y-4.5006
X11.0299Y-6.1738
X11.0313Y-3.163
X11.0319Y-2.2242
X11.351Y-5.7425
X11.4073Y-3.9142
X11.5035Y-5.4193
X11.7839Y-2.2242
X11.875Y-6.2628
X12.0648Y-4.6742
X12.1608Y-3.1648
X12.349Y-3.9159
X12.5264Y-2.2268
X12.627Y-6.2669
X12.6283Y-5.5118
X12.9096Y-5.9205
X12.9419Y-5.7906
X13.1628Y-2.5965
X13.1805Y-2.5512
X13.1982Y-2.5128
X13.3726Y-5.8031
X13.3791Y-6.2628
X13.389Y-3.0366
X13.4065Y-3.7927
X13.4321Y-3.5219
X13.4791Y-2.5986
X13.4829Y-5.4197
X13.5102Y-3.5608
X13.5303Y-6.1024
X13.5484Y-4.1333
X13.5707Y-5.3281
X13.5809Y-2.8616
X13.5852Y-3.1598
X13.5896Y-5.7402
X13.597Y-2.2258
X13.601Y-4.6669
X13.6226Y-6.2523
X13.6329Y-3.8843
X13.6409Y-5.9236
X13.6616Y-2.8577
X13.6652Y-1.8789
X13.6707Y-2.5906
X13.7244Y-3.5797
X13.776Y-2.1579
X13.7906Y-3.677
X13.8154Y-1.9406
X13.8545Y-3.0931
X13.8722Y-3.1319
X13.8899Y-3.2978
X13.9077Y-3.3371
X13.9254Y-3.3763
X13.9374Y-2.4031
X14.0386Y-2.0716
X14.0491Y-2.39
X14.0766Y-2.0539
X14.1409Y-2.585
X14.1953Y-2.4802
X14.2672Y-2.1616
X14.2811Y-2.2616
X14.2958Y-2.4271
X14.3264Y-1.6512
X14.3559Y-2.039
X14.3729Y-2.2987
X14.399Y-2.3282
X14.4041Y-1.9002
X14.4041Y-2.0268
X14.463Y-1.9179
X14.4699Y-3.0783
X14.4853Y-2.4986
X14.4951Y-1.9898
X14.5146Y-2.3702
X14.5167Y-2.252
X14.5246Y-2.2936
X14.5272Y-2.3329
X14.5555Y-2.8906
X14.612Y-2.7787
X14.6289Y-2.0203
X14.6315Y-1.6915
X14.6378Y-2.3627
X14.6685Y-2.3191
X14.6978Y-2.2876
X14.7269Y-2.2561
X14.7594Y-2.2246
X14.7888Y-2.1876
T3
X13.1813Y-1.8998
X13.1813Y-1.9982
X13.1813Y-2.0967
X13.7522Y-1.8998
X13.7522Y-2.0967
X14.2043Y-1.4813
X14.2043Y-1.6585
X14.2104Y-3.2657
X14.3104Y-3.2657
X14.4104Y-3.2657
X14.4602Y-1.4813
X14.4602Y-1.6585
X14.5104Y-3.2657
T4
X13.4766Y-1.7778
X13.4766Y-2.2187
T5
X1.5736Y-3.8549
X1.5774Y-6.3732
X1.6012Y-1.5453
X5.4429Y-5.6715
X6.1453Y-1.7213
X7.2825Y-4.0392
X8.3972Y-5.6715
X9.6496Y-1.7612
X13.0059Y-4.0398
X13.0148Y-1.7632
X13.0738Y-5.6073
X13.8734Y-1.7742
X14.048Y-5.1411
X14.703Y-6.3283
X14.7077Y-4.8841
X14.7583Y-1.5002
T2
G00X2.4789Y-1.4811
M15
G01X2.4789Y-1.4575
M16
G05
G00X2.4789Y-1.6555
M15
G01X2.4789Y-1.6122
M16
G05
G00X2.8191Y-1.4811
M15
G01X2.8191Y-1.4575
M16
G05
G00X2.8191Y-1.6555
M15
G01X2.8191Y-1.6122
M16
G05
T0
M30
