%TF.GenerationSoftware,KiCad,Pcbnew,7.0.7*%
%TF.CreationDate,2023-10-13T15:10:29-04:00*%
%TF.ProjectId,Model A-1.0,4d6f6465-6c20-4412-9d31-2e302e6b6963,1.0*%
%TF.SameCoordinates,Original*%
%TF.FileFunction,Paste,Top*%
%TF.FilePolarity,Positive*%
%FSLAX46Y46*%
G04 Gerber Fmt 4.6, Leading zero omitted, Abs format (unit mm)*
G04 Created by KiCad (PCBNEW 7.0.7) date 2023-10-13 15:10:29*
%MOMM*%
%LPD*%
G01*
G04 APERTURE LIST*
G04 Aperture macros list*
%AMRoundRect*
0 Rectangle with rounded corners*
0 $1 Rounding radius*
0 $2 $3 $4 $5 $6 $7 $8 $9 X,Y pos of 4 corners*
0 Add a 4 corners polygon primitive as box body*
4,1,4,$2,$3,$4,$5,$6,$7,$8,$9,$2,$3,0*
0 Add four circle primitives for the rounded corners*
1,1,$1+$1,$2,$3*
1,1,$1+$1,$4,$5*
1,1,$1+$1,$6,$7*
1,1,$1+$1,$8,$9*
0 Add four rect primitives between the rounded corners*
20,1,$1+$1,$2,$3,$4,$5,0*
20,1,$1+$1,$4,$5,$6,$7,0*
20,1,$1+$1,$6,$7,$8,$9,0*
20,1,$1+$1,$8,$9,$2,$3,0*%
G04 Aperture macros list end*
%ADD10RoundRect,0.250000X-0.475000X0.337500X-0.475000X-0.337500X0.475000X-0.337500X0.475000X0.337500X0*%
%ADD11R,1.400000X1.200000*%
%ADD12RoundRect,0.225000X0.375000X-0.225000X0.375000X0.225000X-0.375000X0.225000X-0.375000X-0.225000X0*%
%ADD13R,1.524000X0.406400*%
%ADD14R,0.406400X1.524000*%
%ADD15RoundRect,0.250000X0.312500X0.625000X-0.312500X0.625000X-0.312500X-0.625000X0.312500X-0.625000X0*%
%ADD16RoundRect,0.250000X0.625000X-0.312500X0.625000X0.312500X-0.625000X0.312500X-0.625000X-0.312500X0*%
%ADD17RoundRect,0.250000X-0.625000X0.312500X-0.625000X-0.312500X0.625000X-0.312500X0.625000X0.312500X0*%
%ADD18RoundRect,0.250000X0.475000X-0.337500X0.475000X0.337500X-0.475000X0.337500X-0.475000X-0.337500X0*%
%ADD19RoundRect,0.150000X0.150000X0.500000X-0.150000X0.500000X-0.150000X-0.500000X0.150000X-0.500000X0*%
%ADD20RoundRect,0.075000X0.075000X0.575000X-0.075000X0.575000X-0.075000X-0.575000X0.075000X-0.575000X0*%
%ADD21RoundRect,0.250000X-0.312500X-0.625000X0.312500X-0.625000X0.312500X0.625000X-0.312500X0.625000X0*%
G04 APERTURE END LIST*
D10*
%TO.C,C8*%
X352130000Y-55540000D03*
X352130000Y-57615000D03*
%TD*%
D11*
%TO.C,CLOCK*%
X363050000Y-70150000D03*
X365250000Y-70150000D03*
X365250000Y-68550000D03*
X363050000Y-68550000D03*
%TD*%
D12*
%TO.C,D81*%
X352570000Y-52435000D03*
X352570000Y-49135000D03*
%TD*%
D13*
%TO.C,U1*%
X359010000Y-54979500D03*
X359010000Y-55779600D03*
X359010000Y-56579700D03*
X359010000Y-57379800D03*
X359010000Y-58179900D03*
X359010000Y-58980000D03*
X359010000Y-59780100D03*
X359010000Y-60580200D03*
X359010000Y-61380300D03*
X359010000Y-62180400D03*
X359010000Y-62980500D03*
D14*
X360724500Y-64695000D03*
X361524600Y-64695000D03*
X362324700Y-64695000D03*
X363124800Y-64695000D03*
X363924900Y-64695000D03*
X364725000Y-64695000D03*
X365525100Y-64695000D03*
X366325200Y-64695000D03*
X367125300Y-64695000D03*
X367925400Y-64695000D03*
X368725500Y-64695000D03*
D13*
X370440000Y-62980500D03*
X370440000Y-62180400D03*
X370440000Y-61380300D03*
X370440000Y-60580200D03*
X370440000Y-59780100D03*
X370440000Y-58980000D03*
X370440000Y-58179900D03*
X370440000Y-57379800D03*
X370440000Y-56579700D03*
X370440000Y-55779600D03*
X370440000Y-54979500D03*
D14*
X368725500Y-53265000D03*
X367925400Y-53265000D03*
X367125300Y-53265000D03*
X366325200Y-53265000D03*
X365525100Y-53265000D03*
X364725000Y-53265000D03*
X363924900Y-53265000D03*
X363124800Y-53265000D03*
X362324700Y-53265000D03*
X361524600Y-53265000D03*
X360724500Y-53265000D03*
%TD*%
D15*
%TO.C,R8*%
X71522500Y-46470000D03*
X68597500Y-46470000D03*
%TD*%
D16*
%TO.C,R9*%
X353695000Y-76112500D03*
X353695000Y-73187500D03*
%TD*%
D17*
%TO.C,R3*%
X355425000Y-38887500D03*
X355425000Y-41812500D03*
%TD*%
D16*
%TO.C,R1*%
X357965000Y-41800000D03*
X357965000Y-38875000D03*
%TD*%
D18*
%TO.C,C5*%
X359060000Y-46652500D03*
X359060000Y-44577500D03*
%TD*%
%TO.C,C4*%
X361325000Y-46640000D03*
X361325000Y-44565000D03*
%TD*%
%TO.C,C2*%
X363635000Y-46630000D03*
X363635000Y-44555000D03*
%TD*%
D17*
%TO.C,R2*%
X353010000Y-38907500D03*
X353010000Y-41832500D03*
%TD*%
D19*
%TO.C,USB1*%
X70485000Y-42140000D03*
X69685000Y-42140000D03*
D20*
X68535000Y-42140000D03*
X67535000Y-42140000D03*
X67035000Y-42140000D03*
X66035000Y-42140000D03*
D19*
X64885000Y-42140000D03*
X64085000Y-42140000D03*
X64085000Y-42140000D03*
X64885000Y-42140000D03*
D20*
X65535000Y-42140000D03*
X66535000Y-42140000D03*
X68035000Y-42140000D03*
X69035000Y-42140000D03*
D19*
X69685000Y-42140000D03*
X70485000Y-42140000D03*
%TD*%
D10*
%TO.C,C7*%
X368520000Y-68562500D03*
X368520000Y-70637500D03*
%TD*%
D15*
%TO.C,R7*%
X66092500Y-46470000D03*
X63167500Y-46470000D03*
%TD*%
D18*
%TO.C,C1*%
X366030000Y-46630000D03*
X366030000Y-44555000D03*
%TD*%
D16*
%TO.C,R10*%
X353695000Y-80907500D03*
X353695000Y-77982500D03*
%TD*%
D10*
%TO.C,C3*%
X359700000Y-68567500D03*
X359700000Y-70642500D03*
%TD*%
D21*
%TO.C,R6*%
X334545000Y-59935000D03*
X337470000Y-59935000D03*
%TD*%
D16*
%TO.C,R4*%
X368775000Y-47417500D03*
X368775000Y-44492500D03*
%TD*%
%TO.C,R5*%
X371365000Y-47427500D03*
X371365000Y-44502500D03*
%TD*%
D18*
%TO.C,C6*%
X356760000Y-46670000D03*
X356760000Y-44595000D03*
%TD*%
M02*
