%TF.GenerationSoftware,KiCad,Pcbnew,7.0.7*%
%TF.CreationDate,2023-10-13T15:10:30-04:00*%
%TF.ProjectId,Model A-1.0,4d6f6465-6c20-4412-9d31-2e302e6b6963,1.0*%
%TF.SameCoordinates,Original*%
%TF.FileFunction,Drillmap*%
%TF.FilePolarity,Positive*%
%FSLAX45Y45*%
G04 Gerber Fmt 4.5, Leading zero omitted, Abs format (unit mm)*
G04 Created by KiCad (PCBNEW 7.0.7) date 2023-10-13 15:10:30*
%MOMM*%
%LPD*%
G01*
G04 APERTURE LIST*
%ADD10C,0.100000*%
%ADD11C,0.200000*%
%ADD12C,0.065000*%
%ADD13C,0.175000*%
%ADD14C,0.300000*%
%ADD15C,0.304800*%
%ADD16C,0.398780*%
G04 APERTURE END LIST*
D10*
X3723500Y-16272500D02*
G75*
G03*
X3923500Y-16472500I200000J0D01*
G01*
X3923500Y-3572500D02*
G75*
G03*
X3723500Y-3772500I0J-200000D01*
G01*
X37523500Y-16472500D02*
G75*
G03*
X37723500Y-16272500I0J200000D01*
G01*
X3923500Y-3572500D02*
X37523500Y-3572500D01*
X3723500Y-16272500D02*
X3723500Y-3772500D01*
X37723500Y-3772500D02*
X37723500Y-16272500D01*
X37723500Y-3772500D02*
G75*
G03*
X37523500Y-3572500I-200000J0D01*
G01*
X37523500Y-16472500D02*
X3923500Y-16472500D01*
D11*
D12*
X6407000Y-4067500D02*
X6472000Y-4132500D01*
X6472000Y-4067500D02*
X6407000Y-4132500D01*
X6985000Y-4067500D02*
X7050000Y-4132500D01*
X7050000Y-4067500D02*
X6985000Y-4132500D01*
D13*
X4733500Y-5070000D02*
G75*
G03*
X4733500Y-5070000I-87500J0D01*
G01*
X4734000Y-7446500D02*
G75*
G03*
X4734000Y-7446500I-87500J0D01*
G01*
X4973000Y-15067500D02*
G75*
G03*
X4973000Y-15067500I-87500J0D01*
G01*
X5210000Y-9351000D02*
G75*
G03*
X5210000Y-9351000I-87500J0D01*
G01*
X5448000Y-11256000D02*
G75*
G03*
X5448000Y-11256000I-87500J0D01*
G01*
X5749500Y-5070000D02*
G75*
G03*
X5749500Y-5070000I-87500J0D01*
G01*
X5750000Y-7446500D02*
G75*
G03*
X5750000Y-7446500I-87500J0D01*
G01*
X5924800Y-13162000D02*
G75*
G03*
X5924800Y-13162000I-87500J0D01*
G01*
X5989000Y-15067500D02*
G75*
G03*
X5989000Y-15067500I-87500J0D01*
G01*
X6226000Y-9351000D02*
G75*
G03*
X6226000Y-9351000I-87500J0D01*
G01*
X6464000Y-11256000D02*
G75*
G03*
X6464000Y-11256000I-87500J0D01*
G01*
X6638500Y-7446500D02*
G75*
G03*
X6638500Y-7446500I-87500J0D01*
G01*
X6940800Y-13162000D02*
G75*
G03*
X6940800Y-13162000I-87500J0D01*
G01*
X7354500Y-15067000D02*
G75*
G03*
X7354500Y-15067000I-87500J0D01*
G01*
X7592000Y-9350500D02*
G75*
G03*
X7592000Y-9350500I-87500J0D01*
G01*
X7654500Y-7446500D02*
G75*
G03*
X7654500Y-7446500I-87500J0D01*
G01*
X7907500Y-5069500D02*
G75*
G03*
X7907500Y-5069500I-87500J0D01*
G01*
X8067500Y-11255500D02*
G75*
G03*
X8067500Y-11255500I-87500J0D01*
G01*
X8370500Y-15067000D02*
G75*
G03*
X8370500Y-15067000I-87500J0D01*
G01*
X8546500Y-7447500D02*
G75*
G03*
X8546500Y-7447500I-87500J0D01*
G01*
X8608000Y-9350500D02*
G75*
G03*
X8608000Y-9350500I-87500J0D01*
G01*
X8923500Y-5069500D02*
G75*
G03*
X8923500Y-5069500I-87500J0D01*
G01*
X9020500Y-13161000D02*
G75*
G03*
X9020500Y-13161000I-87500J0D01*
G01*
X9083500Y-11255500D02*
G75*
G03*
X9083500Y-11255500I-87500J0D01*
G01*
X9498000Y-9352500D02*
G75*
G03*
X9498000Y-9352500I-87500J0D01*
G01*
X9562500Y-7447500D02*
G75*
G03*
X9562500Y-7447500I-87500J0D01*
G01*
X9735500Y-15066500D02*
G75*
G03*
X9735500Y-15066500I-87500J0D01*
G01*
X9812500Y-5069000D02*
G75*
G03*
X9812500Y-5069000I-87500J0D01*
G01*
X9973500Y-11257500D02*
G75*
G03*
X9973500Y-11257500I-87500J0D01*
G01*
X10036500Y-13161000D02*
G75*
G03*
X10036500Y-13161000I-87500J0D01*
G01*
X10451500Y-7448500D02*
G75*
G03*
X10451500Y-7448500I-87500J0D01*
G01*
X10514000Y-9352500D02*
G75*
G03*
X10514000Y-9352500I-87500J0D01*
G01*
X10751500Y-15066500D02*
G75*
G03*
X10751500Y-15066500I-87500J0D01*
G01*
X10828500Y-5069000D02*
G75*
G03*
X10828500Y-5069000I-87500J0D01*
G01*
X10927000Y-13161000D02*
G75*
G03*
X10927000Y-13161000I-87500J0D01*
G01*
X10989500Y-11257500D02*
G75*
G03*
X10989500Y-11257500I-87500J0D01*
G01*
X11403500Y-9352500D02*
G75*
G03*
X11403500Y-9352500I-87500J0D01*
G01*
X11467500Y-7448500D02*
G75*
G03*
X11467500Y-7448500I-87500J0D01*
G01*
X11717500Y-5069000D02*
G75*
G03*
X11717500Y-5069000I-87500J0D01*
G01*
X11878500Y-11257500D02*
G75*
G03*
X11878500Y-11257500I-87500J0D01*
G01*
X11943000Y-13161000D02*
G75*
G03*
X11943000Y-13161000I-87500J0D01*
G01*
X12356000Y-7448000D02*
G75*
G03*
X12356000Y-7448000I-87500J0D01*
G01*
X12419500Y-9352500D02*
G75*
G03*
X12419500Y-9352500I-87500J0D01*
G01*
X12733500Y-5069000D02*
G75*
G03*
X12733500Y-5069000I-87500J0D01*
G01*
X12832000Y-13162500D02*
G75*
G03*
X12832000Y-13162500I-87500J0D01*
G01*
X12894500Y-11257500D02*
G75*
G03*
X12894500Y-11257500I-87500J0D01*
G01*
X13309000Y-9352500D02*
G75*
G03*
X13309000Y-9352500I-87500J0D01*
G01*
X13372000Y-7448000D02*
G75*
G03*
X13372000Y-7448000I-87500J0D01*
G01*
X13623000Y-5069500D02*
G75*
G03*
X13623000Y-5069500I-87500J0D01*
G01*
X13784000Y-11258000D02*
G75*
G03*
X13784000Y-11258000I-87500J0D01*
G01*
X13848000Y-13162500D02*
G75*
G03*
X13848000Y-13162500I-87500J0D01*
G01*
X14261500Y-7448000D02*
G75*
G03*
X14261500Y-7448000I-87500J0D01*
G01*
X14325000Y-9352500D02*
G75*
G03*
X14325000Y-9352500I-87500J0D01*
G01*
X14639000Y-5069500D02*
G75*
G03*
X14639000Y-5069500I-87500J0D01*
G01*
X14735500Y-13162500D02*
G75*
G03*
X14735500Y-13162500I-87500J0D01*
G01*
X14800000Y-11258000D02*
G75*
G03*
X14800000Y-11258000I-87500J0D01*
G01*
X15214000Y-9353000D02*
G75*
G03*
X15214000Y-9353000I-87500J0D01*
G01*
X15277500Y-7448000D02*
G75*
G03*
X15277500Y-7448000I-87500J0D01*
G01*
X15689500Y-11258500D02*
G75*
G03*
X15689500Y-11258500I-87500J0D01*
G01*
X15751500Y-13162500D02*
G75*
G03*
X15751500Y-13162500I-87500J0D01*
G01*
X16167000Y-7448000D02*
G75*
G03*
X16167000Y-7448000I-87500J0D01*
G01*
X16230000Y-9353000D02*
G75*
G03*
X16230000Y-9353000I-87500J0D01*
G01*
X16641000Y-13161500D02*
G75*
G03*
X16641000Y-13161500I-87500J0D01*
G01*
X16705500Y-11258500D02*
G75*
G03*
X16705500Y-11258500I-87500J0D01*
G01*
X16798000Y-5069500D02*
G75*
G03*
X16798000Y-5069500I-87500J0D01*
G01*
X16877990Y-15066500D02*
G75*
G03*
X16877990Y-15066500I-87500J0D01*
G01*
X17120000Y-9352500D02*
G75*
G03*
X17120000Y-9352500I-87500J0D01*
G01*
X17183000Y-7448000D02*
G75*
G03*
X17183000Y-7448000I-87500J0D01*
G01*
X17594000Y-11256500D02*
G75*
G03*
X17594000Y-11256500I-87500J0D01*
G01*
X17657000Y-13161500D02*
G75*
G03*
X17657000Y-13161500I-87500J0D01*
G01*
X17814000Y-5069500D02*
G75*
G03*
X17814000Y-5069500I-87500J0D01*
G01*
X17893990Y-15066500D02*
G75*
G03*
X17893990Y-15066500I-87500J0D01*
G01*
X18072000Y-7447000D02*
G75*
G03*
X18072000Y-7447000I-87500J0D01*
G01*
X18136000Y-9352500D02*
G75*
G03*
X18136000Y-9352500I-87500J0D01*
G01*
X18546000Y-13161000D02*
G75*
G03*
X18546000Y-13161000I-87500J0D01*
G01*
X18610000Y-11256500D02*
G75*
G03*
X18610000Y-11256500I-87500J0D01*
G01*
X18704000Y-5070000D02*
G75*
G03*
X18704000Y-5070000I-87500J0D01*
G01*
X19025500Y-9352000D02*
G75*
G03*
X19025500Y-9352000I-87500J0D01*
G01*
X19088000Y-7447000D02*
G75*
G03*
X19088000Y-7447000I-87500J0D01*
G01*
X19499000Y-11256500D02*
G75*
G03*
X19499000Y-11256500I-87500J0D01*
G01*
X19562000Y-13161000D02*
G75*
G03*
X19562000Y-13161000I-87500J0D01*
G01*
X19720000Y-5070000D02*
G75*
G03*
X19720000Y-5070000I-87500J0D01*
G01*
X19978500Y-7447000D02*
G75*
G03*
X19978500Y-7447000I-87500J0D01*
G01*
X20041500Y-9352000D02*
G75*
G03*
X20041500Y-9352000I-87500J0D01*
G01*
X20451000Y-13161500D02*
G75*
G03*
X20451000Y-13161500I-87500J0D01*
G01*
X20515000Y-11256500D02*
G75*
G03*
X20515000Y-11256500I-87500J0D01*
G01*
X20609500Y-5070000D02*
G75*
G03*
X20609500Y-5070000I-87500J0D01*
G01*
X20930500Y-9351500D02*
G75*
G03*
X20930500Y-9351500I-87500J0D01*
G01*
X20994500Y-7447000D02*
G75*
G03*
X20994500Y-7447000I-87500J0D01*
G01*
X21404500Y-11256500D02*
G75*
G03*
X21404500Y-11256500I-87500J0D01*
G01*
X21467000Y-13161500D02*
G75*
G03*
X21467000Y-13161500I-87500J0D01*
G01*
X21625500Y-5070000D02*
G75*
G03*
X21625500Y-5070000I-87500J0D01*
G01*
X21883500Y-7446500D02*
G75*
G03*
X21883500Y-7446500I-87500J0D01*
G01*
X21946500Y-9351500D02*
G75*
G03*
X21946500Y-9351500I-87500J0D01*
G01*
X22355000Y-13161000D02*
G75*
G03*
X22355000Y-13161000I-87500J0D01*
G01*
X22420500Y-11256500D02*
G75*
G03*
X22420500Y-11256500I-87500J0D01*
G01*
X22511500Y-5070000D02*
G75*
G03*
X22511500Y-5070000I-87500J0D01*
G01*
X22836500Y-9351500D02*
G75*
G03*
X22836500Y-9351500I-87500J0D01*
G01*
X22899500Y-7446500D02*
G75*
G03*
X22899500Y-7446500I-87500J0D01*
G01*
X23309000Y-11256000D02*
G75*
G03*
X23309000Y-11256000I-87500J0D01*
G01*
X23371000Y-13161000D02*
G75*
G03*
X23371000Y-13161000I-87500J0D01*
G01*
X23527500Y-5070000D02*
G75*
G03*
X23527500Y-5070000I-87500J0D01*
G01*
X23783500Y-15066000D02*
G75*
G03*
X23783500Y-15066000I-87500J0D01*
G01*
X23788500Y-7446500D02*
G75*
G03*
X23788500Y-7446500I-87500J0D01*
G01*
X23852500Y-9351500D02*
G75*
G03*
X23852500Y-9351500I-87500J0D01*
G01*
X24259500Y-13161000D02*
G75*
G03*
X24259500Y-13161000I-87500J0D01*
G01*
X24325000Y-11256000D02*
G75*
G03*
X24325000Y-11256000I-87500J0D01*
G01*
X24741500Y-9351500D02*
G75*
G03*
X24741500Y-9351500I-87500J0D01*
G01*
X24799500Y-15066000D02*
G75*
G03*
X24799500Y-15066000I-87500J0D01*
G01*
X24804500Y-7446500D02*
G75*
G03*
X24804500Y-7446500I-87500J0D01*
G01*
X25214000Y-11255500D02*
G75*
G03*
X25214000Y-11255500I-87500J0D01*
G01*
X25275500Y-13161000D02*
G75*
G03*
X25275500Y-13161000I-87500J0D01*
G01*
X25688500Y-5070000D02*
G75*
G03*
X25688500Y-5070000I-87500J0D01*
G01*
X25688500Y-15066000D02*
G75*
G03*
X25688500Y-15066000I-87500J0D01*
G01*
X25692000Y-7446500D02*
G75*
G03*
X25692000Y-7446500I-87500J0D01*
G01*
X25757500Y-9351500D02*
G75*
G03*
X25757500Y-9351500I-87500J0D01*
G01*
X26165000Y-13161500D02*
G75*
G03*
X26165000Y-13161500I-87500J0D01*
G01*
X26230000Y-11255500D02*
G75*
G03*
X26230000Y-11255500I-87500J0D01*
G01*
X26645000Y-9351500D02*
G75*
G03*
X26645000Y-9351500I-87500J0D01*
G01*
X26704500Y-5070000D02*
G75*
G03*
X26704500Y-5070000I-87500J0D01*
G01*
X26704500Y-15066000D02*
G75*
G03*
X26704500Y-15066000I-87500J0D01*
G01*
X26708000Y-7446500D02*
G75*
G03*
X26708000Y-7446500I-87500J0D01*
G01*
X27118500Y-11256500D02*
G75*
G03*
X27118500Y-11256500I-87500J0D01*
G01*
X27181000Y-13161500D02*
G75*
G03*
X27181000Y-13161500I-87500J0D01*
G01*
X27593500Y-5070000D02*
G75*
G03*
X27593500Y-5070000I-87500J0D01*
G01*
X27593500Y-15066000D02*
G75*
G03*
X27593500Y-15066000I-87500J0D01*
G01*
X27596000Y-7446500D02*
G75*
G03*
X27596000Y-7446500I-87500J0D01*
G01*
X27661000Y-9351500D02*
G75*
G03*
X27661000Y-9351500I-87500J0D01*
G01*
X28134500Y-11256500D02*
G75*
G03*
X28134500Y-11256500I-87500J0D01*
G01*
X28549000Y-9351500D02*
G75*
G03*
X28549000Y-9351500I-87500J0D01*
G01*
X28609500Y-5070000D02*
G75*
G03*
X28609500Y-5070000I-87500J0D01*
G01*
X28609500Y-15066000D02*
G75*
G03*
X28609500Y-15066000I-87500J0D01*
G01*
X28612000Y-7446500D02*
G75*
G03*
X28612000Y-7446500I-87500J0D01*
G01*
X28785000Y-13161000D02*
G75*
G03*
X28785000Y-13161000I-87500J0D01*
G01*
X29498500Y-5070500D02*
G75*
G03*
X29498500Y-5070500I-87500J0D01*
G01*
X29565000Y-9351500D02*
G75*
G03*
X29565000Y-9351500I-87500J0D01*
G01*
X29749500Y-15316000D02*
G75*
G03*
X29749500Y-15316000I-87500J0D01*
G01*
X29801000Y-13161000D02*
G75*
G03*
X29801000Y-13161000I-87500J0D01*
G01*
X30214300Y-11256000D02*
G75*
G03*
X30214300Y-11256000I-87500J0D01*
G01*
X30453200Y-7445500D02*
G75*
G03*
X30453200Y-7445500I-87500J0D01*
G01*
X30514500Y-5070500D02*
G75*
G03*
X30514500Y-5070500I-87500J0D01*
G01*
X30765500Y-15316000D02*
G75*
G03*
X30765500Y-15316000I-87500J0D01*
G01*
X30929500Y-9351000D02*
G75*
G03*
X30929500Y-9351000I-87500J0D01*
G01*
X31230300Y-11256000D02*
G75*
G03*
X31230300Y-11256000I-87500J0D01*
G01*
X31404000Y-5070500D02*
G75*
G03*
X31404000Y-5070500I-87500J0D01*
G01*
X31469200Y-7445500D02*
G75*
G03*
X31469200Y-7445500I-87500J0D01*
G01*
X31653700Y-13410500D02*
G75*
G03*
X31653700Y-13410500I-87500J0D01*
G01*
X31654200Y-15316000D02*
G75*
G03*
X31654200Y-15316000I-87500J0D01*
G01*
X31945500Y-9351000D02*
G75*
G03*
X31945500Y-9351000I-87500J0D01*
G01*
X32420000Y-5070500D02*
G75*
G03*
X32420000Y-5070500I-87500J0D01*
G01*
X32669700Y-13410500D02*
G75*
G03*
X32669700Y-13410500I-87500J0D01*
G01*
X32670200Y-15316000D02*
G75*
G03*
X32670200Y-15316000I-87500J0D01*
G01*
X33559700Y-15316000D02*
G75*
G03*
X33559700Y-15316000I-87500J0D01*
G01*
X33808500Y-7446500D02*
G75*
G03*
X33808500Y-7446500I-87500J0D01*
G01*
X33808500Y-9351500D02*
G75*
G03*
X33808500Y-9351500I-87500J0D01*
G01*
X33809000Y-11256500D02*
G75*
G03*
X33809000Y-11256500I-87500J0D01*
G01*
X33809000Y-13161000D02*
G75*
G03*
X33809000Y-13161000I-87500J0D01*
G01*
X34575700Y-15316000D02*
G75*
G03*
X34575700Y-15316000I-87500J0D01*
G01*
X34824500Y-7446500D02*
G75*
G03*
X34824500Y-7446500I-87500J0D01*
G01*
X34824500Y-9351500D02*
G75*
G03*
X34824500Y-9351500I-87500J0D01*
G01*
X34825000Y-11256500D02*
G75*
G03*
X34825000Y-11256500I-87500J0D01*
G01*
X34825000Y-13161000D02*
G75*
G03*
X34825000Y-13161000I-87500J0D01*
G01*
D14*
X4773000Y-4666000D02*
X4773000Y-4966000D01*
X4623000Y-4816000D02*
X4923000Y-4816000D01*
X4773500Y-7042500D02*
X4773500Y-7342500D01*
X4623500Y-7192500D02*
X4923500Y-7192500D01*
X5012500Y-14663500D02*
X5012500Y-14963500D01*
X4862500Y-14813500D02*
X5162500Y-14813500D01*
X5249500Y-8947000D02*
X5249500Y-9247000D01*
X5099500Y-9097000D02*
X5399500Y-9097000D01*
X5408000Y-4412000D02*
X5408000Y-4712000D01*
X5258000Y-4562000D02*
X5558000Y-4562000D01*
X5408500Y-6788500D02*
X5408500Y-7088500D01*
X5258500Y-6938500D02*
X5558500Y-6938500D01*
X5487500Y-10852000D02*
X5487500Y-11152000D01*
X5337500Y-11002000D02*
X5637500Y-11002000D01*
X5647500Y-14409500D02*
X5647500Y-14709500D01*
X5497500Y-14559500D02*
X5797500Y-14559500D01*
X5884500Y-8693000D02*
X5884500Y-8993000D01*
X5734500Y-8843000D02*
X6034500Y-8843000D01*
X5964300Y-12758000D02*
X5964300Y-13058000D01*
X5814300Y-12908000D02*
X6114300Y-12908000D01*
X6122500Y-10598000D02*
X6122500Y-10898000D01*
X5972500Y-10748000D02*
X6272500Y-10748000D01*
X6599300Y-12504000D02*
X6599300Y-12804000D01*
X6449300Y-12654000D02*
X6749300Y-12654000D01*
X6678000Y-7042500D02*
X6678000Y-7342500D01*
X6528000Y-7192500D02*
X6828000Y-7192500D01*
X7313000Y-6788500D02*
X7313000Y-7088500D01*
X7163000Y-6938500D02*
X7463000Y-6938500D01*
X7394000Y-14663000D02*
X7394000Y-14963000D01*
X7244000Y-14813000D02*
X7544000Y-14813000D01*
X7631500Y-8946500D02*
X7631500Y-9246500D01*
X7481500Y-9096500D02*
X7781500Y-9096500D01*
X7947000Y-4665500D02*
X7947000Y-4965500D01*
X7797000Y-4815500D02*
X8097000Y-4815500D01*
X8029000Y-14409000D02*
X8029000Y-14709000D01*
X7879000Y-14559000D02*
X8179000Y-14559000D01*
X8107000Y-10851500D02*
X8107000Y-11151500D01*
X7957000Y-11001500D02*
X8257000Y-11001500D01*
X8266500Y-8692500D02*
X8266500Y-8992500D01*
X8116500Y-8842500D02*
X8416500Y-8842500D01*
X8582000Y-4411500D02*
X8582000Y-4711500D01*
X8432000Y-4561500D02*
X8732000Y-4561500D01*
X8586000Y-7043500D02*
X8586000Y-7343500D01*
X8436000Y-7193500D02*
X8736000Y-7193500D01*
X8742000Y-10597500D02*
X8742000Y-10897500D01*
X8592000Y-10747500D02*
X8892000Y-10747500D01*
X9060000Y-12757000D02*
X9060000Y-13057000D01*
X8910000Y-12907000D02*
X9210000Y-12907000D01*
X9221000Y-6789500D02*
X9221000Y-7089500D01*
X9071000Y-6939500D02*
X9371000Y-6939500D01*
X9537500Y-8948500D02*
X9537500Y-9248500D01*
X9387500Y-9098500D02*
X9687500Y-9098500D01*
X9695000Y-12503000D02*
X9695000Y-12803000D01*
X9545000Y-12653000D02*
X9845000Y-12653000D01*
X9775000Y-14662500D02*
X9775000Y-14962500D01*
X9625000Y-14812500D02*
X9925000Y-14812500D01*
X9852000Y-4665000D02*
X9852000Y-4965000D01*
X9702000Y-4815000D02*
X10002000Y-4815000D01*
X10013000Y-10853500D02*
X10013000Y-11153500D01*
X9863000Y-11003500D02*
X10163000Y-11003500D01*
X10172500Y-8694500D02*
X10172500Y-8994500D01*
X10022500Y-8844500D02*
X10322500Y-8844500D01*
X10410000Y-14408500D02*
X10410000Y-14708500D01*
X10260000Y-14558500D02*
X10560000Y-14558500D01*
X10487000Y-4411000D02*
X10487000Y-4711000D01*
X10337000Y-4561000D02*
X10637000Y-4561000D01*
X10491000Y-7044500D02*
X10491000Y-7344500D01*
X10341000Y-7194500D02*
X10641000Y-7194500D01*
X10648000Y-10599500D02*
X10648000Y-10899500D01*
X10498000Y-10749500D02*
X10798000Y-10749500D01*
X10966500Y-12757000D02*
X10966500Y-13057000D01*
X10816500Y-12907000D02*
X11116500Y-12907000D01*
X11126000Y-6790500D02*
X11126000Y-7090500D01*
X10976000Y-6940500D02*
X11276000Y-6940500D01*
X11443000Y-8948500D02*
X11443000Y-9248500D01*
X11293000Y-9098500D02*
X11593000Y-9098500D01*
X11601500Y-12503000D02*
X11601500Y-12803000D01*
X11451500Y-12653000D02*
X11751500Y-12653000D01*
X11757000Y-4665000D02*
X11757000Y-4965000D01*
X11607000Y-4815000D02*
X11907000Y-4815000D01*
X11918000Y-10853500D02*
X11918000Y-11153500D01*
X11768000Y-11003500D02*
X12068000Y-11003500D01*
X12078000Y-8694500D02*
X12078000Y-8994500D01*
X11928000Y-8844500D02*
X12228000Y-8844500D01*
X12392000Y-4411000D02*
X12392000Y-4711000D01*
X12242000Y-4561000D02*
X12542000Y-4561000D01*
X12395500Y-7044000D02*
X12395500Y-7344000D01*
X12245500Y-7194000D02*
X12545500Y-7194000D01*
X12553000Y-10599500D02*
X12553000Y-10899500D01*
X12403000Y-10749500D02*
X12703000Y-10749500D01*
X12871500Y-12758500D02*
X12871500Y-13058500D01*
X12721500Y-12908500D02*
X13021500Y-12908500D01*
X13030500Y-6790000D02*
X13030500Y-7090000D01*
X12880500Y-6940000D02*
X13180500Y-6940000D01*
X13348500Y-8948500D02*
X13348500Y-9248500D01*
X13198500Y-9098500D02*
X13498500Y-9098500D01*
X13506500Y-12504500D02*
X13506500Y-12804500D01*
X13356500Y-12654500D02*
X13656500Y-12654500D01*
X13662500Y-4665500D02*
X13662500Y-4965500D01*
X13512500Y-4815500D02*
X13812500Y-4815500D01*
X13823500Y-10854000D02*
X13823500Y-11154000D01*
X13673500Y-11004000D02*
X13973500Y-11004000D01*
X13983500Y-8694500D02*
X13983500Y-8994500D01*
X13833500Y-8844500D02*
X14133500Y-8844500D01*
X14297500Y-4411500D02*
X14297500Y-4711500D01*
X14147500Y-4561500D02*
X14447500Y-4561500D01*
X14301000Y-7044000D02*
X14301000Y-7344000D01*
X14151000Y-7194000D02*
X14451000Y-7194000D01*
X14458500Y-10600000D02*
X14458500Y-10900000D01*
X14308500Y-10750000D02*
X14608500Y-10750000D01*
X14775000Y-12758500D02*
X14775000Y-13058500D01*
X14625000Y-12908500D02*
X14925000Y-12908500D01*
X14936000Y-6790000D02*
X14936000Y-7090000D01*
X14786000Y-6940000D02*
X15086000Y-6940000D01*
X15253500Y-8949000D02*
X15253500Y-9249000D01*
X15103500Y-9099000D02*
X15403500Y-9099000D01*
X15410000Y-12504500D02*
X15410000Y-12804500D01*
X15260000Y-12654500D02*
X15560000Y-12654500D01*
X15729000Y-10854500D02*
X15729000Y-11154500D01*
X15579000Y-11004500D02*
X15879000Y-11004500D01*
X15888500Y-8695000D02*
X15888500Y-8995000D01*
X15738500Y-8845000D02*
X16038500Y-8845000D01*
X16206500Y-7044000D02*
X16206500Y-7344000D01*
X16056500Y-7194000D02*
X16356500Y-7194000D01*
X16364000Y-10600500D02*
X16364000Y-10900500D01*
X16214000Y-10750500D02*
X16514000Y-10750500D01*
X16680500Y-12757500D02*
X16680500Y-13057500D01*
X16530500Y-12907500D02*
X16830500Y-12907500D01*
X16837500Y-4665500D02*
X16837500Y-4965500D01*
X16687500Y-4815500D02*
X16987500Y-4815500D01*
X16841500Y-6790000D02*
X16841500Y-7090000D01*
X16691500Y-6940000D02*
X16991500Y-6940000D01*
X16917490Y-14662500D02*
X16917490Y-14962500D01*
X16767490Y-14812500D02*
X17067490Y-14812500D01*
X17159500Y-8948500D02*
X17159500Y-9248500D01*
X17009500Y-9098500D02*
X17309500Y-9098500D01*
X17315500Y-12503500D02*
X17315500Y-12803500D01*
X17165500Y-12653500D02*
X17465500Y-12653500D01*
X17472500Y-4411500D02*
X17472500Y-4711500D01*
X17322500Y-4561500D02*
X17622500Y-4561500D01*
X17552490Y-14408500D02*
X17552490Y-14708500D01*
X17402490Y-14558500D02*
X17702490Y-14558500D01*
X17633500Y-10852500D02*
X17633500Y-11152500D01*
X17483500Y-11002500D02*
X17783500Y-11002500D01*
X17794500Y-8694500D02*
X17794500Y-8994500D01*
X17644500Y-8844500D02*
X17944500Y-8844500D01*
X18111500Y-7043000D02*
X18111500Y-7343000D01*
X17961500Y-7193000D02*
X18261500Y-7193000D01*
X18268500Y-10598500D02*
X18268500Y-10898500D01*
X18118500Y-10748500D02*
X18418500Y-10748500D01*
X18585500Y-12757000D02*
X18585500Y-13057000D01*
X18435500Y-12907000D02*
X18735500Y-12907000D01*
X18743500Y-4666000D02*
X18743500Y-4966000D01*
X18593500Y-4816000D02*
X18893500Y-4816000D01*
X18746500Y-6789000D02*
X18746500Y-7089000D01*
X18596500Y-6939000D02*
X18896500Y-6939000D01*
X19065000Y-8948000D02*
X19065000Y-9248000D01*
X18915000Y-9098000D02*
X19215000Y-9098000D01*
X19220500Y-12503000D02*
X19220500Y-12803000D01*
X19070500Y-12653000D02*
X19370500Y-12653000D01*
X19378500Y-4412000D02*
X19378500Y-4712000D01*
X19228500Y-4562000D02*
X19528500Y-4562000D01*
X19538500Y-10852500D02*
X19538500Y-11152500D01*
X19388500Y-11002500D02*
X19688500Y-11002500D01*
X19700000Y-8694000D02*
X19700000Y-8994000D01*
X19550000Y-8844000D02*
X19850000Y-8844000D01*
X20018000Y-7043000D02*
X20018000Y-7343000D01*
X19868000Y-7193000D02*
X20168000Y-7193000D01*
X20173500Y-10598500D02*
X20173500Y-10898500D01*
X20023500Y-10748500D02*
X20323500Y-10748500D01*
X20490500Y-12757500D02*
X20490500Y-13057500D01*
X20340500Y-12907500D02*
X20640500Y-12907500D01*
X20649000Y-4666000D02*
X20649000Y-4966000D01*
X20499000Y-4816000D02*
X20799000Y-4816000D01*
X20653000Y-6789000D02*
X20653000Y-7089000D01*
X20503000Y-6939000D02*
X20803000Y-6939000D01*
X20970000Y-8947500D02*
X20970000Y-9247500D01*
X20820000Y-9097500D02*
X21120000Y-9097500D01*
X21125500Y-12503500D02*
X21125500Y-12803500D01*
X20975500Y-12653500D02*
X21275500Y-12653500D01*
X21284000Y-4412000D02*
X21284000Y-4712000D01*
X21134000Y-4562000D02*
X21434000Y-4562000D01*
X21444000Y-10852500D02*
X21444000Y-11152500D01*
X21294000Y-11002500D02*
X21594000Y-11002500D01*
X21605000Y-8693500D02*
X21605000Y-8993500D01*
X21455000Y-8843500D02*
X21755000Y-8843500D01*
X21923000Y-7042500D02*
X21923000Y-7342500D01*
X21773000Y-7192500D02*
X22073000Y-7192500D01*
X22079000Y-10598500D02*
X22079000Y-10898500D01*
X21929000Y-10748500D02*
X22229000Y-10748500D01*
X22394500Y-12757000D02*
X22394500Y-13057000D01*
X22244500Y-12907000D02*
X22544500Y-12907000D01*
X22551000Y-4666000D02*
X22551000Y-4966000D01*
X22401000Y-4816000D02*
X22701000Y-4816000D01*
X22558000Y-6788500D02*
X22558000Y-7088500D01*
X22408000Y-6938500D02*
X22708000Y-6938500D01*
X22876000Y-8947500D02*
X22876000Y-9247500D01*
X22726000Y-9097500D02*
X23026000Y-9097500D01*
X23029500Y-12503000D02*
X23029500Y-12803000D01*
X22879500Y-12653000D02*
X23179500Y-12653000D01*
X23186000Y-4412000D02*
X23186000Y-4712000D01*
X23036000Y-4562000D02*
X23336000Y-4562000D01*
X23348500Y-10852000D02*
X23348500Y-11152000D01*
X23198500Y-11002000D02*
X23498500Y-11002000D01*
X23511000Y-8693500D02*
X23511000Y-8993500D01*
X23361000Y-8843500D02*
X23661000Y-8843500D01*
X23823000Y-14662000D02*
X23823000Y-14962000D01*
X23673000Y-14812000D02*
X23973000Y-14812000D01*
X23828000Y-7042500D02*
X23828000Y-7342500D01*
X23678000Y-7192500D02*
X23978000Y-7192500D01*
X23983500Y-10598000D02*
X23983500Y-10898000D01*
X23833500Y-10748000D02*
X24133500Y-10748000D01*
X24299000Y-12757000D02*
X24299000Y-13057000D01*
X24149000Y-12907000D02*
X24449000Y-12907000D01*
X24458000Y-14408000D02*
X24458000Y-14708000D01*
X24308000Y-14558000D02*
X24608000Y-14558000D01*
X24463000Y-6788500D02*
X24463000Y-7088500D01*
X24313000Y-6938500D02*
X24613000Y-6938500D01*
X24781000Y-8947500D02*
X24781000Y-9247500D01*
X24631000Y-9097500D02*
X24931000Y-9097500D01*
X24934000Y-12503000D02*
X24934000Y-12803000D01*
X24784000Y-12653000D02*
X25084000Y-12653000D01*
X25253500Y-10851500D02*
X25253500Y-11151500D01*
X25103500Y-11001500D02*
X25403500Y-11001500D01*
X25416000Y-8693500D02*
X25416000Y-8993500D01*
X25266000Y-8843500D02*
X25566000Y-8843500D01*
X25728000Y-4666000D02*
X25728000Y-4966000D01*
X25578000Y-4816000D02*
X25878000Y-4816000D01*
X25728000Y-14662000D02*
X25728000Y-14962000D01*
X25578000Y-14812000D02*
X25878000Y-14812000D01*
X25731500Y-7042500D02*
X25731500Y-7342500D01*
X25581500Y-7192500D02*
X25881500Y-7192500D01*
X25888500Y-10597500D02*
X25888500Y-10897500D01*
X25738500Y-10747500D02*
X26038500Y-10747500D01*
X26204500Y-12757500D02*
X26204500Y-13057500D01*
X26054500Y-12907500D02*
X26354500Y-12907500D01*
X26363000Y-4412000D02*
X26363000Y-4712000D01*
X26213000Y-4562000D02*
X26513000Y-4562000D01*
X26363000Y-14408000D02*
X26363000Y-14708000D01*
X26213000Y-14558000D02*
X26513000Y-14558000D01*
X26366500Y-6788500D02*
X26366500Y-7088500D01*
X26216500Y-6938500D02*
X26516500Y-6938500D01*
X26684500Y-8947500D02*
X26684500Y-9247500D01*
X26534500Y-9097500D02*
X26834500Y-9097500D01*
X26839500Y-12503500D02*
X26839500Y-12803500D01*
X26689500Y-12653500D02*
X26989500Y-12653500D01*
X27158000Y-10852500D02*
X27158000Y-11152500D01*
X27008000Y-11002500D02*
X27308000Y-11002500D01*
X27319500Y-8693500D02*
X27319500Y-8993500D01*
X27169500Y-8843500D02*
X27469500Y-8843500D01*
X27633000Y-4666000D02*
X27633000Y-4966000D01*
X27483000Y-4816000D02*
X27783000Y-4816000D01*
X27633000Y-14662000D02*
X27633000Y-14962000D01*
X27483000Y-14812000D02*
X27783000Y-14812000D01*
X27635500Y-7042500D02*
X27635500Y-7342500D01*
X27485500Y-7192500D02*
X27785500Y-7192500D01*
X27793000Y-10598500D02*
X27793000Y-10898500D01*
X27643000Y-10748500D02*
X27943000Y-10748500D01*
X28268000Y-4412000D02*
X28268000Y-4712000D01*
X28118000Y-4562000D02*
X28418000Y-4562000D01*
X28268000Y-14408000D02*
X28268000Y-14708000D01*
X28118000Y-14558000D02*
X28418000Y-14558000D01*
X28270500Y-6788500D02*
X28270500Y-7088500D01*
X28120500Y-6938500D02*
X28420500Y-6938500D01*
X28588500Y-8947500D02*
X28588500Y-9247500D01*
X28438500Y-9097500D02*
X28738500Y-9097500D01*
X28824500Y-12757000D02*
X28824500Y-13057000D01*
X28674500Y-12907000D02*
X28974500Y-12907000D01*
X29223500Y-8693500D02*
X29223500Y-8993500D01*
X29073500Y-8843500D02*
X29373500Y-8843500D01*
X29459500Y-12503000D02*
X29459500Y-12803000D01*
X29309500Y-12653000D02*
X29609500Y-12653000D01*
X29538000Y-4666500D02*
X29538000Y-4966500D01*
X29388000Y-4816500D02*
X29688000Y-4816500D01*
X29789000Y-14912000D02*
X29789000Y-15212000D01*
X29639000Y-15062000D02*
X29939000Y-15062000D01*
X30173000Y-4412500D02*
X30173000Y-4712500D01*
X30023000Y-4562500D02*
X30323000Y-4562500D01*
X30253800Y-10852000D02*
X30253800Y-11152000D01*
X30103800Y-11002000D02*
X30403800Y-11002000D01*
X30424000Y-14658000D02*
X30424000Y-14958000D01*
X30274000Y-14808000D02*
X30574000Y-14808000D01*
X30492700Y-7041500D02*
X30492700Y-7341500D01*
X30342700Y-7191500D02*
X30642700Y-7191500D01*
X30888800Y-10598000D02*
X30888800Y-10898000D01*
X30738800Y-10748000D02*
X31038800Y-10748000D01*
X30969000Y-8947000D02*
X30969000Y-9247000D01*
X30819000Y-9097000D02*
X31119000Y-9097000D01*
X31127700Y-6787500D02*
X31127700Y-7087500D01*
X30977700Y-6937500D02*
X31277700Y-6937500D01*
X31443500Y-4666500D02*
X31443500Y-4966500D01*
X31293500Y-4816500D02*
X31593500Y-4816500D01*
X31604000Y-8693000D02*
X31604000Y-8993000D01*
X31454000Y-8843000D02*
X31754000Y-8843000D01*
X31693200Y-13006500D02*
X31693200Y-13306500D01*
X31543200Y-13156500D02*
X31843200Y-13156500D01*
X31693700Y-14912000D02*
X31693700Y-15212000D01*
X31543700Y-15062000D02*
X31843700Y-15062000D01*
X32078500Y-4412500D02*
X32078500Y-4712500D01*
X31928500Y-4562500D02*
X32228500Y-4562500D01*
X32328200Y-12752500D02*
X32328200Y-13052500D01*
X32178200Y-12902500D02*
X32478200Y-12902500D01*
X32328700Y-14658000D02*
X32328700Y-14958000D01*
X32178700Y-14808000D02*
X32478700Y-14808000D01*
X33599200Y-14912000D02*
X33599200Y-15212000D01*
X33449200Y-15062000D02*
X33749200Y-15062000D01*
X33848000Y-7042500D02*
X33848000Y-7342500D01*
X33698000Y-7192500D02*
X33998000Y-7192500D01*
X33848000Y-8947500D02*
X33848000Y-9247500D01*
X33698000Y-9097500D02*
X33998000Y-9097500D01*
X33848500Y-10852500D02*
X33848500Y-11152500D01*
X33698500Y-11002500D02*
X33998500Y-11002500D01*
X33848500Y-12757000D02*
X33848500Y-13057000D01*
X33698500Y-12907000D02*
X33998500Y-12907000D01*
X34234200Y-14658000D02*
X34234200Y-14958000D01*
X34084200Y-14808000D02*
X34384200Y-14808000D01*
X34483000Y-6788500D02*
X34483000Y-7088500D01*
X34333000Y-6938500D02*
X34633000Y-6938500D01*
X34483000Y-8693500D02*
X34483000Y-8993500D01*
X34333000Y-8843500D02*
X34633000Y-8843500D01*
X34483500Y-10598500D02*
X34483500Y-10898500D01*
X34333500Y-10748500D02*
X34633500Y-10748500D01*
X34483500Y-12503000D02*
X34483500Y-12803000D01*
X34333500Y-12653000D02*
X34633500Y-12653000D01*
D15*
X5259264Y-12571264D02*
X5259264Y-12355736D01*
X5043736Y-12355736D01*
X5043736Y-12571264D01*
X5259264Y-12571264D01*
X7646864Y-12571264D02*
X7646864Y-12355736D01*
X7431336Y-12355736D01*
X7431336Y-12571264D01*
X7646864Y-12571264D01*
X12406264Y-14475764D02*
X12406264Y-14260236D01*
X12190736Y-14260236D01*
X12190736Y-14475764D01*
X12406264Y-14475764D01*
X22406244Y-14475764D02*
X22406244Y-14260236D01*
X22190716Y-14260236D01*
X22190716Y-14475764D01*
X22406244Y-14475764D01*
X29548764Y-10665264D02*
X29548764Y-10449736D01*
X29333236Y-10449736D01*
X29333236Y-10665264D01*
X29548764Y-10665264D01*
X29787664Y-6854764D02*
X29787664Y-6639236D01*
X29572136Y-6639236D01*
X29572136Y-6854764D01*
X29787664Y-6854764D01*
X31936364Y-10665264D02*
X31936364Y-10449736D01*
X31720836Y-10449736D01*
X31720836Y-10665264D01*
X31936364Y-10665264D01*
X32175264Y-6854764D02*
X32175264Y-6639236D01*
X31959736Y-6639236D01*
X31959736Y-6854764D01*
X32175264Y-6854764D01*
D16*
X5151500Y-14186890D02*
X5350890Y-13987500D01*
X5151500Y-13788110D01*
X4952110Y-13987500D01*
X5151500Y-14186890D01*
X5154000Y-5269390D02*
X5353390Y-5070000D01*
X5154000Y-4870610D01*
X4954610Y-5070000D01*
X5154000Y-5269390D01*
X5154500Y-7645890D02*
X5353890Y-7446500D01*
X5154500Y-7247110D01*
X4955110Y-7446500D01*
X5154500Y-7645890D01*
X5393500Y-15266890D02*
X5592890Y-15067500D01*
X5393500Y-14868110D01*
X5194110Y-15067500D01*
X5393500Y-15266890D01*
X5630500Y-9550390D02*
X5829890Y-9351000D01*
X5630500Y-9151610D01*
X5431110Y-9351000D01*
X5630500Y-9550390D01*
X5868500Y-11455390D02*
X6067890Y-11256000D01*
X5868500Y-11056610D01*
X5669110Y-11256000D01*
X5868500Y-11455390D01*
X6345300Y-13361390D02*
X6544690Y-13162000D01*
X6345300Y-12962610D01*
X6145910Y-13162000D01*
X6345300Y-13361390D01*
X7059000Y-7645890D02*
X7258390Y-7446500D01*
X7059000Y-7247110D01*
X6859610Y-7446500D01*
X7059000Y-7645890D01*
X7539100Y-14186890D02*
X7738490Y-13987500D01*
X7539100Y-13788110D01*
X7339710Y-13987500D01*
X7539100Y-14186890D01*
X7775000Y-15266390D02*
X7974390Y-15067000D01*
X7775000Y-14867610D01*
X7575610Y-15067000D01*
X7775000Y-15266390D01*
X8012500Y-9549890D02*
X8211890Y-9350500D01*
X8012500Y-9151110D01*
X7813110Y-9350500D01*
X8012500Y-9549890D01*
X8328000Y-5268890D02*
X8527390Y-5069500D01*
X8328000Y-4870110D01*
X8128610Y-5069500D01*
X8328000Y-5268890D01*
X8488000Y-11454890D02*
X8687390Y-11255500D01*
X8488000Y-11056110D01*
X8288610Y-11255500D01*
X8488000Y-11454890D01*
X8967000Y-7646890D02*
X9166390Y-7447500D01*
X8967000Y-7248110D01*
X8767610Y-7447500D01*
X8967000Y-7646890D01*
X9441000Y-13360390D02*
X9640390Y-13161000D01*
X9441000Y-12961610D01*
X9241610Y-13161000D01*
X9441000Y-13360390D01*
X9918500Y-9551890D02*
X10117890Y-9352500D01*
X9918500Y-9153110D01*
X9719110Y-9352500D01*
X9918500Y-9551890D01*
X10156000Y-15265890D02*
X10355390Y-15066500D01*
X10156000Y-14867110D01*
X9956610Y-15066500D01*
X10156000Y-15265890D01*
X10233000Y-5268390D02*
X10432390Y-5069000D01*
X10233000Y-4869610D01*
X10033610Y-5069000D01*
X10233000Y-5268390D01*
X10394000Y-11456890D02*
X10593390Y-11257500D01*
X10394000Y-11058110D01*
X10194610Y-11257500D01*
X10394000Y-11456890D01*
X10872000Y-7647890D02*
X11071390Y-7448500D01*
X10872000Y-7249110D01*
X10672610Y-7448500D01*
X10872000Y-7647890D01*
X11347500Y-13360390D02*
X11546890Y-13161000D01*
X11347500Y-12961610D01*
X11148110Y-13161000D01*
X11347500Y-13360390D01*
X11824000Y-9551890D02*
X12023390Y-9352500D01*
X11824000Y-9153110D01*
X11624610Y-9352500D01*
X11824000Y-9551890D01*
X12138000Y-5268390D02*
X12337390Y-5069000D01*
X12138000Y-4869610D01*
X11938610Y-5069000D01*
X12138000Y-5268390D01*
X12298500Y-16091390D02*
X12497890Y-15892000D01*
X12298500Y-15692610D01*
X12099110Y-15892000D01*
X12298500Y-16091390D01*
X12299000Y-11456890D02*
X12498390Y-11257500D01*
X12299000Y-11058110D01*
X12099610Y-11257500D01*
X12299000Y-11456890D01*
X12776500Y-7647390D02*
X12975890Y-7448000D01*
X12776500Y-7248610D01*
X12577110Y-7448000D01*
X12776500Y-7647390D01*
X13252500Y-13361890D02*
X13451890Y-13162500D01*
X13252500Y-12963110D01*
X13053110Y-13162500D01*
X13252500Y-13361890D01*
X13729500Y-9551890D02*
X13928890Y-9352500D01*
X13729500Y-9153110D01*
X13530110Y-9352500D01*
X13729500Y-9551890D01*
X14043500Y-5268890D02*
X14242890Y-5069500D01*
X14043500Y-4870110D01*
X13844110Y-5069500D01*
X14043500Y-5268890D01*
X14204500Y-11457390D02*
X14403890Y-11258000D01*
X14204500Y-11058610D01*
X14005110Y-11258000D01*
X14204500Y-11457390D01*
X14682000Y-7647390D02*
X14881390Y-7448000D01*
X14682000Y-7248610D01*
X14482610Y-7448000D01*
X14682000Y-7647390D01*
X15156000Y-13361890D02*
X15355390Y-13162500D01*
X15156000Y-12963110D01*
X14956610Y-13162500D01*
X15156000Y-13361890D01*
X15634500Y-9552390D02*
X15833890Y-9353000D01*
X15634500Y-9153610D01*
X15435110Y-9353000D01*
X15634500Y-9552390D01*
X16110000Y-11457890D02*
X16309390Y-11258500D01*
X16110000Y-11059110D01*
X15910610Y-11258500D01*
X16110000Y-11457890D01*
X16587500Y-7647390D02*
X16786890Y-7448000D01*
X16587500Y-7248610D01*
X16388110Y-7448000D01*
X16587500Y-7647390D01*
X17061500Y-13360890D02*
X17260890Y-13161500D01*
X17061500Y-12962110D01*
X16862110Y-13161500D01*
X17061500Y-13360890D01*
X17218500Y-5268890D02*
X17417890Y-5069500D01*
X17218500Y-4870110D01*
X17019110Y-5069500D01*
X17218500Y-5268890D01*
X17298490Y-15265890D02*
X17497880Y-15066500D01*
X17298490Y-14867110D01*
X17099100Y-15066500D01*
X17298490Y-15265890D01*
X17540500Y-9551890D02*
X17739890Y-9352500D01*
X17540500Y-9153110D01*
X17341110Y-9352500D01*
X17540500Y-9551890D01*
X18014500Y-11455890D02*
X18213890Y-11256500D01*
X18014500Y-11057110D01*
X17815110Y-11256500D01*
X18014500Y-11455890D01*
X18492500Y-7646390D02*
X18691890Y-7447000D01*
X18492500Y-7247610D01*
X18293110Y-7447000D01*
X18492500Y-7646390D01*
X18966500Y-13360390D02*
X19165890Y-13161000D01*
X18966500Y-12961610D01*
X18767110Y-13161000D01*
X18966500Y-13360390D01*
X19124500Y-5269390D02*
X19323890Y-5070000D01*
X19124500Y-4870610D01*
X18925110Y-5070000D01*
X19124500Y-5269390D01*
X19446000Y-9551390D02*
X19645390Y-9352000D01*
X19446000Y-9152610D01*
X19246610Y-9352000D01*
X19446000Y-9551390D01*
X19919500Y-11455890D02*
X20118890Y-11256500D01*
X19919500Y-11057110D01*
X19720110Y-11256500D01*
X19919500Y-11455890D01*
X20399000Y-7646390D02*
X20598390Y-7447000D01*
X20399000Y-7247610D01*
X20199610Y-7447000D01*
X20399000Y-7646390D01*
X20871500Y-13360890D02*
X21070890Y-13161500D01*
X20871500Y-12962110D01*
X20672110Y-13161500D01*
X20871500Y-13360890D01*
X21030000Y-5269390D02*
X21229390Y-5070000D01*
X21030000Y-4870610D01*
X20830610Y-5070000D01*
X21030000Y-5269390D01*
X21351000Y-9550890D02*
X21550390Y-9351500D01*
X21351000Y-9152110D01*
X21151610Y-9351500D01*
X21351000Y-9550890D01*
X21825000Y-11455890D02*
X22024390Y-11256500D01*
X21825000Y-11057110D01*
X21625610Y-11256500D01*
X21825000Y-11455890D01*
X22298480Y-16091390D02*
X22497870Y-15892000D01*
X22298480Y-15692610D01*
X22099090Y-15892000D01*
X22298480Y-16091390D01*
X22304000Y-7645890D02*
X22503390Y-7446500D01*
X22304000Y-7247110D01*
X22104610Y-7446500D01*
X22304000Y-7645890D01*
X22775500Y-13360390D02*
X22974890Y-13161000D01*
X22775500Y-12961610D01*
X22576110Y-13161000D01*
X22775500Y-13360390D01*
X22932000Y-5269390D02*
X23131390Y-5070000D01*
X22932000Y-4870610D01*
X22732610Y-5070000D01*
X22932000Y-5269390D01*
X23257000Y-9550890D02*
X23456390Y-9351500D01*
X23257000Y-9152110D01*
X23057610Y-9351500D01*
X23257000Y-9550890D01*
X23729500Y-11455390D02*
X23928890Y-11256000D01*
X23729500Y-11056610D01*
X23530110Y-11256000D01*
X23729500Y-11455390D01*
X24204000Y-15265390D02*
X24403390Y-15066000D01*
X24204000Y-14866610D01*
X24004610Y-15066000D01*
X24204000Y-15265390D01*
X24209000Y-7645890D02*
X24408390Y-7446500D01*
X24209000Y-7247110D01*
X24009610Y-7446500D01*
X24209000Y-7645890D01*
X24680000Y-13360390D02*
X24879390Y-13161000D01*
X24680000Y-12961610D01*
X24480610Y-13161000D01*
X24680000Y-13360390D01*
X25162000Y-9550890D02*
X25361390Y-9351500D01*
X25162000Y-9152110D01*
X24962610Y-9351500D01*
X25162000Y-9550890D01*
X25634500Y-11454890D02*
X25833890Y-11255500D01*
X25634500Y-11056110D01*
X25435110Y-11255500D01*
X25634500Y-11454890D01*
X26109000Y-5269390D02*
X26308390Y-5070000D01*
X26109000Y-4870610D01*
X25909610Y-5070000D01*
X26109000Y-5269390D01*
X26109000Y-15265390D02*
X26308390Y-15066000D01*
X26109000Y-14866610D01*
X25909610Y-15066000D01*
X26109000Y-15265390D01*
X26112500Y-7645890D02*
X26311890Y-7446500D01*
X26112500Y-7247110D01*
X25913110Y-7446500D01*
X26112500Y-7645890D01*
X26585500Y-13360890D02*
X26784890Y-13161500D01*
X26585500Y-12962110D01*
X26386110Y-13161500D01*
X26585500Y-13360890D01*
X27065500Y-9550890D02*
X27264890Y-9351500D01*
X27065500Y-9152110D01*
X26866110Y-9351500D01*
X27065500Y-9550890D01*
X27539000Y-11455890D02*
X27738390Y-11256500D01*
X27539000Y-11057110D01*
X27339610Y-11256500D01*
X27539000Y-11455890D01*
X28014000Y-5269390D02*
X28213390Y-5070000D01*
X28014000Y-4870610D01*
X27814610Y-5070000D01*
X28014000Y-5269390D01*
X28014000Y-15265390D02*
X28213390Y-15066000D01*
X28014000Y-14866610D01*
X27814610Y-15066000D01*
X28014000Y-15265390D01*
X28016500Y-7645890D02*
X28215890Y-7446500D01*
X28016500Y-7247110D01*
X27817110Y-7446500D01*
X28016500Y-7645890D01*
X28969500Y-9550890D02*
X29168890Y-9351500D01*
X28969500Y-9152110D01*
X28770110Y-9351500D01*
X28969500Y-9550890D01*
X29205500Y-13360390D02*
X29404890Y-13161000D01*
X29205500Y-12961610D01*
X29006110Y-13161000D01*
X29205500Y-13360390D01*
X29441000Y-12280890D02*
X29640390Y-12081500D01*
X29441000Y-11882110D01*
X29241610Y-12081500D01*
X29441000Y-12280890D01*
X29679900Y-8470390D02*
X29879290Y-8271000D01*
X29679900Y-8071610D01*
X29480510Y-8271000D01*
X29679900Y-8470390D01*
X29919000Y-5269890D02*
X30118390Y-5070500D01*
X29919000Y-4871110D01*
X29719610Y-5070500D01*
X29919000Y-5269890D01*
X30170000Y-15515390D02*
X30369390Y-15316000D01*
X30170000Y-15116610D01*
X29970610Y-15316000D01*
X30170000Y-15515390D01*
X30634800Y-11455390D02*
X30834190Y-11256000D01*
X30634800Y-11056610D01*
X30435410Y-11256000D01*
X30634800Y-11455390D01*
X30873700Y-7644890D02*
X31073090Y-7445500D01*
X30873700Y-7246110D01*
X30674310Y-7445500D01*
X30873700Y-7644890D01*
X31350000Y-9550390D02*
X31549390Y-9351000D01*
X31350000Y-9151610D01*
X31150610Y-9351000D01*
X31350000Y-9550390D01*
X31824500Y-5269890D02*
X32023890Y-5070500D01*
X31824500Y-4871110D01*
X31625110Y-5070500D01*
X31824500Y-5269890D01*
X31828600Y-12280890D02*
X32027990Y-12081500D01*
X31828600Y-11882110D01*
X31629210Y-12081500D01*
X31828600Y-12280890D01*
X32067500Y-8470390D02*
X32266890Y-8271000D01*
X32067500Y-8071610D01*
X31868110Y-8271000D01*
X32067500Y-8470390D01*
X32074200Y-13609890D02*
X32273590Y-13410500D01*
X32074200Y-13211110D01*
X31874810Y-13410500D01*
X32074200Y-13609890D01*
X32074700Y-15515390D02*
X32274090Y-15316000D01*
X32074700Y-15116610D01*
X31875310Y-15316000D01*
X32074700Y-15515390D01*
X33980200Y-15515390D02*
X34179590Y-15316000D01*
X33980200Y-15116610D01*
X33780810Y-15316000D01*
X33980200Y-15515390D01*
X34229000Y-7645890D02*
X34428390Y-7446500D01*
X34229000Y-7247110D01*
X34029610Y-7446500D01*
X34229000Y-7645890D01*
X34229000Y-9550890D02*
X34428390Y-9351500D01*
X34229000Y-9152110D01*
X34029610Y-9351500D01*
X34229000Y-9550890D01*
X34229500Y-11455890D02*
X34428890Y-11256500D01*
X34229500Y-11057110D01*
X34030110Y-11256500D01*
X34229500Y-11455890D01*
X34229500Y-13360390D02*
X34428890Y-13161000D01*
X34229500Y-12961610D01*
X34030110Y-13161000D01*
X34229500Y-13360390D01*
D11*
X3979277Y-16788984D02*
X3979277Y-16588984D01*
X3979277Y-16588984D02*
X4026896Y-16588984D01*
X4026896Y-16588984D02*
X4055467Y-16598508D01*
X4055467Y-16598508D02*
X4074515Y-16617555D01*
X4074515Y-16617555D02*
X4084039Y-16636603D01*
X4084039Y-16636603D02*
X4093562Y-16674698D01*
X4093562Y-16674698D02*
X4093562Y-16703269D01*
X4093562Y-16703269D02*
X4084039Y-16741365D01*
X4084039Y-16741365D02*
X4074515Y-16760412D01*
X4074515Y-16760412D02*
X4055467Y-16779460D01*
X4055467Y-16779460D02*
X4026896Y-16788984D01*
X4026896Y-16788984D02*
X3979277Y-16788984D01*
X4179277Y-16788984D02*
X4179277Y-16655650D01*
X4179277Y-16693746D02*
X4188801Y-16674698D01*
X4188801Y-16674698D02*
X4198324Y-16665174D01*
X4198324Y-16665174D02*
X4217372Y-16655650D01*
X4217372Y-16655650D02*
X4236420Y-16655650D01*
X4303086Y-16788984D02*
X4303086Y-16655650D01*
X4303086Y-16588984D02*
X4293563Y-16598508D01*
X4293563Y-16598508D02*
X4303086Y-16608031D01*
X4303086Y-16608031D02*
X4312610Y-16598508D01*
X4312610Y-16598508D02*
X4303086Y-16588984D01*
X4303086Y-16588984D02*
X4303086Y-16608031D01*
X4426896Y-16788984D02*
X4407848Y-16779460D01*
X4407848Y-16779460D02*
X4398324Y-16760412D01*
X4398324Y-16760412D02*
X4398324Y-16588984D01*
X4531658Y-16788984D02*
X4512610Y-16779460D01*
X4512610Y-16779460D02*
X4503086Y-16760412D01*
X4503086Y-16760412D02*
X4503086Y-16588984D01*
X4760229Y-16788984D02*
X4760229Y-16588984D01*
X4760229Y-16588984D02*
X4826896Y-16731841D01*
X4826896Y-16731841D02*
X4893563Y-16588984D01*
X4893563Y-16588984D02*
X4893563Y-16788984D01*
X5074515Y-16788984D02*
X5074515Y-16684222D01*
X5074515Y-16684222D02*
X5064991Y-16665174D01*
X5064991Y-16665174D02*
X5045944Y-16655650D01*
X5045944Y-16655650D02*
X5007848Y-16655650D01*
X5007848Y-16655650D02*
X4988801Y-16665174D01*
X5074515Y-16779460D02*
X5055467Y-16788984D01*
X5055467Y-16788984D02*
X5007848Y-16788984D01*
X5007848Y-16788984D02*
X4988801Y-16779460D01*
X4988801Y-16779460D02*
X4979277Y-16760412D01*
X4979277Y-16760412D02*
X4979277Y-16741365D01*
X4979277Y-16741365D02*
X4988801Y-16722317D01*
X4988801Y-16722317D02*
X5007848Y-16712793D01*
X5007848Y-16712793D02*
X5055467Y-16712793D01*
X5055467Y-16712793D02*
X5074515Y-16703269D01*
X5169753Y-16655650D02*
X5169753Y-16855650D01*
X5169753Y-16665174D02*
X5188801Y-16655650D01*
X5188801Y-16655650D02*
X5226896Y-16655650D01*
X5226896Y-16655650D02*
X5245944Y-16665174D01*
X5245944Y-16665174D02*
X5255467Y-16674698D01*
X5255467Y-16674698D02*
X5264991Y-16693746D01*
X5264991Y-16693746D02*
X5264991Y-16750888D01*
X5264991Y-16750888D02*
X5255467Y-16769936D01*
X5255467Y-16769936D02*
X5245944Y-16779460D01*
X5245944Y-16779460D02*
X5226896Y-16788984D01*
X5226896Y-16788984D02*
X5188801Y-16788984D01*
X5188801Y-16788984D02*
X5169753Y-16779460D01*
X5350705Y-16769936D02*
X5360229Y-16779460D01*
X5360229Y-16779460D02*
X5350705Y-16788984D01*
X5350705Y-16788984D02*
X5341182Y-16779460D01*
X5341182Y-16779460D02*
X5350705Y-16769936D01*
X5350705Y-16769936D02*
X5350705Y-16788984D01*
X5350705Y-16665174D02*
X5360229Y-16674698D01*
X5360229Y-16674698D02*
X5350705Y-16684222D01*
X5350705Y-16684222D02*
X5341182Y-16674698D01*
X5341182Y-16674698D02*
X5350705Y-16665174D01*
X5350705Y-16665174D02*
X5350705Y-16684222D01*
D12*
X3653500Y-17085000D02*
X3718500Y-17150000D01*
X3718500Y-17085000D02*
X3653500Y-17150000D01*
D11*
X4017372Y-17008984D02*
X4036420Y-17008984D01*
X4036420Y-17008984D02*
X4055467Y-17018508D01*
X4055467Y-17018508D02*
X4064991Y-17028031D01*
X4064991Y-17028031D02*
X4074515Y-17047079D01*
X4074515Y-17047079D02*
X4084039Y-17085174D01*
X4084039Y-17085174D02*
X4084039Y-17132793D01*
X4084039Y-17132793D02*
X4074515Y-17170889D01*
X4074515Y-17170889D02*
X4064991Y-17189936D01*
X4064991Y-17189936D02*
X4055467Y-17199460D01*
X4055467Y-17199460D02*
X4036420Y-17208984D01*
X4036420Y-17208984D02*
X4017372Y-17208984D01*
X4017372Y-17208984D02*
X3998324Y-17199460D01*
X3998324Y-17199460D02*
X3988801Y-17189936D01*
X3988801Y-17189936D02*
X3979277Y-17170889D01*
X3979277Y-17170889D02*
X3969753Y-17132793D01*
X3969753Y-17132793D02*
X3969753Y-17085174D01*
X3969753Y-17085174D02*
X3979277Y-17047079D01*
X3979277Y-17047079D02*
X3988801Y-17028031D01*
X3988801Y-17028031D02*
X3998324Y-17018508D01*
X3998324Y-17018508D02*
X4017372Y-17008984D01*
X4169753Y-17189936D02*
X4179277Y-17199460D01*
X4179277Y-17199460D02*
X4169753Y-17208984D01*
X4169753Y-17208984D02*
X4160229Y-17199460D01*
X4160229Y-17199460D02*
X4169753Y-17189936D01*
X4169753Y-17189936D02*
X4169753Y-17208984D01*
X4350705Y-17008984D02*
X4312610Y-17008984D01*
X4312610Y-17008984D02*
X4293563Y-17018508D01*
X4293563Y-17018508D02*
X4284039Y-17028031D01*
X4284039Y-17028031D02*
X4264991Y-17056603D01*
X4264991Y-17056603D02*
X4255467Y-17094698D01*
X4255467Y-17094698D02*
X4255467Y-17170889D01*
X4255467Y-17170889D02*
X4264991Y-17189936D01*
X4264991Y-17189936D02*
X4274515Y-17199460D01*
X4274515Y-17199460D02*
X4293563Y-17208984D01*
X4293563Y-17208984D02*
X4331658Y-17208984D01*
X4331658Y-17208984D02*
X4350705Y-17199460D01*
X4350705Y-17199460D02*
X4360229Y-17189936D01*
X4360229Y-17189936D02*
X4369753Y-17170889D01*
X4369753Y-17170889D02*
X4369753Y-17123270D01*
X4369753Y-17123270D02*
X4360229Y-17104222D01*
X4360229Y-17104222D02*
X4350705Y-17094698D01*
X4350705Y-17094698D02*
X4331658Y-17085174D01*
X4331658Y-17085174D02*
X4293563Y-17085174D01*
X4293563Y-17085174D02*
X4274515Y-17094698D01*
X4274515Y-17094698D02*
X4264991Y-17104222D01*
X4264991Y-17104222D02*
X4255467Y-17123270D01*
X4550705Y-17008984D02*
X4455467Y-17008984D01*
X4455467Y-17008984D02*
X4445944Y-17104222D01*
X4445944Y-17104222D02*
X4455467Y-17094698D01*
X4455467Y-17094698D02*
X4474515Y-17085174D01*
X4474515Y-17085174D02*
X4522134Y-17085174D01*
X4522134Y-17085174D02*
X4541182Y-17094698D01*
X4541182Y-17094698D02*
X4550705Y-17104222D01*
X4550705Y-17104222D02*
X4560229Y-17123270D01*
X4560229Y-17123270D02*
X4560229Y-17170889D01*
X4560229Y-17170889D02*
X4550705Y-17189936D01*
X4550705Y-17189936D02*
X4541182Y-17199460D01*
X4541182Y-17199460D02*
X4522134Y-17208984D01*
X4522134Y-17208984D02*
X4474515Y-17208984D01*
X4474515Y-17208984D02*
X4455467Y-17199460D01*
X4455467Y-17199460D02*
X4445944Y-17189936D01*
X4684039Y-17008984D02*
X4703086Y-17008984D01*
X4703086Y-17008984D02*
X4722134Y-17018508D01*
X4722134Y-17018508D02*
X4731658Y-17028031D01*
X4731658Y-17028031D02*
X4741182Y-17047079D01*
X4741182Y-17047079D02*
X4750705Y-17085174D01*
X4750705Y-17085174D02*
X4750705Y-17132793D01*
X4750705Y-17132793D02*
X4741182Y-17170889D01*
X4741182Y-17170889D02*
X4731658Y-17189936D01*
X4731658Y-17189936D02*
X4722134Y-17199460D01*
X4722134Y-17199460D02*
X4703086Y-17208984D01*
X4703086Y-17208984D02*
X4684039Y-17208984D01*
X4684039Y-17208984D02*
X4664991Y-17199460D01*
X4664991Y-17199460D02*
X4655467Y-17189936D01*
X4655467Y-17189936D02*
X4645944Y-17170889D01*
X4645944Y-17170889D02*
X4636420Y-17132793D01*
X4636420Y-17132793D02*
X4636420Y-17085174D01*
X4636420Y-17085174D02*
X4645944Y-17047079D01*
X4645944Y-17047079D02*
X4655467Y-17028031D01*
X4655467Y-17028031D02*
X4664991Y-17018508D01*
X4664991Y-17018508D02*
X4684039Y-17008984D01*
X4836420Y-17208984D02*
X4836420Y-17075650D01*
X4836420Y-17094698D02*
X4845944Y-17085174D01*
X4845944Y-17085174D02*
X4864991Y-17075650D01*
X4864991Y-17075650D02*
X4893563Y-17075650D01*
X4893563Y-17075650D02*
X4912610Y-17085174D01*
X4912610Y-17085174D02*
X4922134Y-17104222D01*
X4922134Y-17104222D02*
X4922134Y-17208984D01*
X4922134Y-17104222D02*
X4931658Y-17085174D01*
X4931658Y-17085174D02*
X4950705Y-17075650D01*
X4950705Y-17075650D02*
X4979277Y-17075650D01*
X4979277Y-17075650D02*
X4998325Y-17085174D01*
X4998325Y-17085174D02*
X5007848Y-17104222D01*
X5007848Y-17104222D02*
X5007848Y-17208984D01*
X5103086Y-17208984D02*
X5103086Y-17075650D01*
X5103086Y-17094698D02*
X5112610Y-17085174D01*
X5112610Y-17085174D02*
X5131658Y-17075650D01*
X5131658Y-17075650D02*
X5160229Y-17075650D01*
X5160229Y-17075650D02*
X5179277Y-17085174D01*
X5179277Y-17085174D02*
X5188801Y-17104222D01*
X5188801Y-17104222D02*
X5188801Y-17208984D01*
X5188801Y-17104222D02*
X5198325Y-17085174D01*
X5198325Y-17085174D02*
X5217372Y-17075650D01*
X5217372Y-17075650D02*
X5245944Y-17075650D01*
X5245944Y-17075650D02*
X5264991Y-17085174D01*
X5264991Y-17085174D02*
X5274515Y-17104222D01*
X5274515Y-17104222D02*
X5274515Y-17208984D01*
X5664991Y-16999460D02*
X5493563Y-17256603D01*
X5922134Y-17008984D02*
X5941182Y-17008984D01*
X5941182Y-17008984D02*
X5960229Y-17018508D01*
X5960229Y-17018508D02*
X5969753Y-17028031D01*
X5969753Y-17028031D02*
X5979277Y-17047079D01*
X5979277Y-17047079D02*
X5988801Y-17085174D01*
X5988801Y-17085174D02*
X5988801Y-17132793D01*
X5988801Y-17132793D02*
X5979277Y-17170889D01*
X5979277Y-17170889D02*
X5969753Y-17189936D01*
X5969753Y-17189936D02*
X5960229Y-17199460D01*
X5960229Y-17199460D02*
X5941182Y-17208984D01*
X5941182Y-17208984D02*
X5922134Y-17208984D01*
X5922134Y-17208984D02*
X5903086Y-17199460D01*
X5903086Y-17199460D02*
X5893563Y-17189936D01*
X5893563Y-17189936D02*
X5884039Y-17170889D01*
X5884039Y-17170889D02*
X5874515Y-17132793D01*
X5874515Y-17132793D02*
X5874515Y-17085174D01*
X5874515Y-17085174D02*
X5884039Y-17047079D01*
X5884039Y-17047079D02*
X5893563Y-17028031D01*
X5893563Y-17028031D02*
X5903086Y-17018508D01*
X5903086Y-17018508D02*
X5922134Y-17008984D01*
X6074515Y-17189936D02*
X6084039Y-17199460D01*
X6084039Y-17199460D02*
X6074515Y-17208984D01*
X6074515Y-17208984D02*
X6064991Y-17199460D01*
X6064991Y-17199460D02*
X6074515Y-17189936D01*
X6074515Y-17189936D02*
X6074515Y-17208984D01*
X6207848Y-17008984D02*
X6226896Y-17008984D01*
X6226896Y-17008984D02*
X6245944Y-17018508D01*
X6245944Y-17018508D02*
X6255467Y-17028031D01*
X6255467Y-17028031D02*
X6264991Y-17047079D01*
X6264991Y-17047079D02*
X6274515Y-17085174D01*
X6274515Y-17085174D02*
X6274515Y-17132793D01*
X6274515Y-17132793D02*
X6264991Y-17170889D01*
X6264991Y-17170889D02*
X6255467Y-17189936D01*
X6255467Y-17189936D02*
X6245944Y-17199460D01*
X6245944Y-17199460D02*
X6226896Y-17208984D01*
X6226896Y-17208984D02*
X6207848Y-17208984D01*
X6207848Y-17208984D02*
X6188801Y-17199460D01*
X6188801Y-17199460D02*
X6179277Y-17189936D01*
X6179277Y-17189936D02*
X6169753Y-17170889D01*
X6169753Y-17170889D02*
X6160229Y-17132793D01*
X6160229Y-17132793D02*
X6160229Y-17085174D01*
X6160229Y-17085174D02*
X6169753Y-17047079D01*
X6169753Y-17047079D02*
X6179277Y-17028031D01*
X6179277Y-17028031D02*
X6188801Y-17018508D01*
X6188801Y-17018508D02*
X6207848Y-17008984D01*
X6350706Y-17028031D02*
X6360229Y-17018508D01*
X6360229Y-17018508D02*
X6379277Y-17008984D01*
X6379277Y-17008984D02*
X6426896Y-17008984D01*
X6426896Y-17008984D02*
X6445944Y-17018508D01*
X6445944Y-17018508D02*
X6455467Y-17028031D01*
X6455467Y-17028031D02*
X6464991Y-17047079D01*
X6464991Y-17047079D02*
X6464991Y-17066127D01*
X6464991Y-17066127D02*
X6455467Y-17094698D01*
X6455467Y-17094698D02*
X6341182Y-17208984D01*
X6341182Y-17208984D02*
X6464991Y-17208984D01*
X6645944Y-17008984D02*
X6550706Y-17008984D01*
X6550706Y-17008984D02*
X6541182Y-17104222D01*
X6541182Y-17104222D02*
X6550706Y-17094698D01*
X6550706Y-17094698D02*
X6569753Y-17085174D01*
X6569753Y-17085174D02*
X6617372Y-17085174D01*
X6617372Y-17085174D02*
X6636420Y-17094698D01*
X6636420Y-17094698D02*
X6645944Y-17104222D01*
X6645944Y-17104222D02*
X6655467Y-17123270D01*
X6655467Y-17123270D02*
X6655467Y-17170889D01*
X6655467Y-17170889D02*
X6645944Y-17189936D01*
X6645944Y-17189936D02*
X6636420Y-17199460D01*
X6636420Y-17199460D02*
X6617372Y-17208984D01*
X6617372Y-17208984D02*
X6569753Y-17208984D01*
X6569753Y-17208984D02*
X6550706Y-17199460D01*
X6550706Y-17199460D02*
X6541182Y-17189936D01*
X6826896Y-17008984D02*
X6788801Y-17008984D01*
X6788801Y-17008984D02*
X6769753Y-17018508D01*
X6769753Y-17018508D02*
X6760229Y-17028031D01*
X6760229Y-17028031D02*
X6741182Y-17056603D01*
X6741182Y-17056603D02*
X6731658Y-17094698D01*
X6731658Y-17094698D02*
X6731658Y-17170889D01*
X6731658Y-17170889D02*
X6741182Y-17189936D01*
X6741182Y-17189936D02*
X6750706Y-17199460D01*
X6750706Y-17199460D02*
X6769753Y-17208984D01*
X6769753Y-17208984D02*
X6807848Y-17208984D01*
X6807848Y-17208984D02*
X6826896Y-17199460D01*
X6826896Y-17199460D02*
X6836420Y-17189936D01*
X6836420Y-17189936D02*
X6845944Y-17170889D01*
X6845944Y-17170889D02*
X6845944Y-17123270D01*
X6845944Y-17123270D02*
X6836420Y-17104222D01*
X6836420Y-17104222D02*
X6826896Y-17094698D01*
X6826896Y-17094698D02*
X6807848Y-17085174D01*
X6807848Y-17085174D02*
X6769753Y-17085174D01*
X6769753Y-17085174D02*
X6750706Y-17094698D01*
X6750706Y-17094698D02*
X6741182Y-17104222D01*
X6741182Y-17104222D02*
X6731658Y-17123270D01*
X6922134Y-17008984D02*
X6922134Y-17047079D01*
X6998325Y-17008984D02*
X6998325Y-17047079D01*
X7293563Y-17285174D02*
X7284039Y-17275650D01*
X7284039Y-17275650D02*
X7264991Y-17247079D01*
X7264991Y-17247079D02*
X7255468Y-17228031D01*
X7255468Y-17228031D02*
X7245944Y-17199460D01*
X7245944Y-17199460D02*
X7236420Y-17151841D01*
X7236420Y-17151841D02*
X7236420Y-17113746D01*
X7236420Y-17113746D02*
X7245944Y-17066127D01*
X7245944Y-17066127D02*
X7255468Y-17037555D01*
X7255468Y-17037555D02*
X7264991Y-17018508D01*
X7264991Y-17018508D02*
X7284039Y-16989936D01*
X7284039Y-16989936D02*
X7293563Y-16980412D01*
X7360229Y-17028031D02*
X7369753Y-17018508D01*
X7369753Y-17018508D02*
X7388801Y-17008984D01*
X7388801Y-17008984D02*
X7436420Y-17008984D01*
X7436420Y-17008984D02*
X7455468Y-17018508D01*
X7455468Y-17018508D02*
X7464991Y-17028031D01*
X7464991Y-17028031D02*
X7474515Y-17047079D01*
X7474515Y-17047079D02*
X7474515Y-17066127D01*
X7474515Y-17066127D02*
X7464991Y-17094698D01*
X7464991Y-17094698D02*
X7350706Y-17208984D01*
X7350706Y-17208984D02*
X7474515Y-17208984D01*
X7712610Y-17208984D02*
X7712610Y-17008984D01*
X7798325Y-17208984D02*
X7798325Y-17104222D01*
X7798325Y-17104222D02*
X7788801Y-17085174D01*
X7788801Y-17085174D02*
X7769753Y-17075650D01*
X7769753Y-17075650D02*
X7741182Y-17075650D01*
X7741182Y-17075650D02*
X7722134Y-17085174D01*
X7722134Y-17085174D02*
X7712610Y-17094698D01*
X7922134Y-17208984D02*
X7903087Y-17199460D01*
X7903087Y-17199460D02*
X7893563Y-17189936D01*
X7893563Y-17189936D02*
X7884039Y-17170889D01*
X7884039Y-17170889D02*
X7884039Y-17113746D01*
X7884039Y-17113746D02*
X7893563Y-17094698D01*
X7893563Y-17094698D02*
X7903087Y-17085174D01*
X7903087Y-17085174D02*
X7922134Y-17075650D01*
X7922134Y-17075650D02*
X7950706Y-17075650D01*
X7950706Y-17075650D02*
X7969753Y-17085174D01*
X7969753Y-17085174D02*
X7979277Y-17094698D01*
X7979277Y-17094698D02*
X7988801Y-17113746D01*
X7988801Y-17113746D02*
X7988801Y-17170889D01*
X7988801Y-17170889D02*
X7979277Y-17189936D01*
X7979277Y-17189936D02*
X7969753Y-17199460D01*
X7969753Y-17199460D02*
X7950706Y-17208984D01*
X7950706Y-17208984D02*
X7922134Y-17208984D01*
X8103087Y-17208984D02*
X8084039Y-17199460D01*
X8084039Y-17199460D02*
X8074515Y-17180412D01*
X8074515Y-17180412D02*
X8074515Y-17008984D01*
X8255468Y-17199460D02*
X8236420Y-17208984D01*
X8236420Y-17208984D02*
X8198325Y-17208984D01*
X8198325Y-17208984D02*
X8179277Y-17199460D01*
X8179277Y-17199460D02*
X8169753Y-17180412D01*
X8169753Y-17180412D02*
X8169753Y-17104222D01*
X8169753Y-17104222D02*
X8179277Y-17085174D01*
X8179277Y-17085174D02*
X8198325Y-17075650D01*
X8198325Y-17075650D02*
X8236420Y-17075650D01*
X8236420Y-17075650D02*
X8255468Y-17085174D01*
X8255468Y-17085174D02*
X8264991Y-17104222D01*
X8264991Y-17104222D02*
X8264991Y-17123270D01*
X8264991Y-17123270D02*
X8169753Y-17142317D01*
X8341182Y-17199460D02*
X8360230Y-17208984D01*
X8360230Y-17208984D02*
X8398325Y-17208984D01*
X8398325Y-17208984D02*
X8417373Y-17199460D01*
X8417373Y-17199460D02*
X8426896Y-17180412D01*
X8426896Y-17180412D02*
X8426896Y-17170889D01*
X8426896Y-17170889D02*
X8417373Y-17151841D01*
X8417373Y-17151841D02*
X8398325Y-17142317D01*
X8398325Y-17142317D02*
X8369753Y-17142317D01*
X8369753Y-17142317D02*
X8350706Y-17132793D01*
X8350706Y-17132793D02*
X8341182Y-17113746D01*
X8341182Y-17113746D02*
X8341182Y-17104222D01*
X8341182Y-17104222D02*
X8350706Y-17085174D01*
X8350706Y-17085174D02*
X8369753Y-17075650D01*
X8369753Y-17075650D02*
X8398325Y-17075650D01*
X8398325Y-17075650D02*
X8417373Y-17085174D01*
X8493563Y-17285174D02*
X8503087Y-17275650D01*
X8503087Y-17275650D02*
X8522134Y-17247079D01*
X8522134Y-17247079D02*
X8531658Y-17228031D01*
X8531658Y-17228031D02*
X8541182Y-17199460D01*
X8541182Y-17199460D02*
X8550706Y-17151841D01*
X8550706Y-17151841D02*
X8550706Y-17113746D01*
X8550706Y-17113746D02*
X8541182Y-17066127D01*
X8541182Y-17066127D02*
X8531658Y-17037555D01*
X8531658Y-17037555D02*
X8522134Y-17018508D01*
X8522134Y-17018508D02*
X8503087Y-16989936D01*
X8503087Y-16989936D02*
X8493563Y-16980412D01*
X8855468Y-17285174D02*
X8845944Y-17275650D01*
X8845944Y-17275650D02*
X8826896Y-17247079D01*
X8826896Y-17247079D02*
X8817373Y-17228031D01*
X8817373Y-17228031D02*
X8807849Y-17199460D01*
X8807849Y-17199460D02*
X8798325Y-17151841D01*
X8798325Y-17151841D02*
X8798325Y-17113746D01*
X8798325Y-17113746D02*
X8807849Y-17066127D01*
X8807849Y-17066127D02*
X8817373Y-17037555D01*
X8817373Y-17037555D02*
X8826896Y-17018508D01*
X8826896Y-17018508D02*
X8845944Y-16989936D01*
X8845944Y-16989936D02*
X8855468Y-16980412D01*
X8931658Y-17075650D02*
X8931658Y-17208984D01*
X8931658Y-17094698D02*
X8941182Y-17085174D01*
X8941182Y-17085174D02*
X8960230Y-17075650D01*
X8960230Y-17075650D02*
X8988801Y-17075650D01*
X8988801Y-17075650D02*
X9007849Y-17085174D01*
X9007849Y-17085174D02*
X9017373Y-17104222D01*
X9017373Y-17104222D02*
X9017373Y-17208984D01*
X9141182Y-17208984D02*
X9122134Y-17199460D01*
X9122134Y-17199460D02*
X9112611Y-17189936D01*
X9112611Y-17189936D02*
X9103087Y-17170889D01*
X9103087Y-17170889D02*
X9103087Y-17113746D01*
X9103087Y-17113746D02*
X9112611Y-17094698D01*
X9112611Y-17094698D02*
X9122134Y-17085174D01*
X9122134Y-17085174D02*
X9141182Y-17075650D01*
X9141182Y-17075650D02*
X9169754Y-17075650D01*
X9169754Y-17075650D02*
X9188801Y-17085174D01*
X9188801Y-17085174D02*
X9198325Y-17094698D01*
X9198325Y-17094698D02*
X9207849Y-17113746D01*
X9207849Y-17113746D02*
X9207849Y-17170889D01*
X9207849Y-17170889D02*
X9198325Y-17189936D01*
X9198325Y-17189936D02*
X9188801Y-17199460D01*
X9188801Y-17199460D02*
X9169754Y-17208984D01*
X9169754Y-17208984D02*
X9141182Y-17208984D01*
X9264992Y-17075650D02*
X9341182Y-17075650D01*
X9293563Y-17008984D02*
X9293563Y-17180412D01*
X9293563Y-17180412D02*
X9303087Y-17199460D01*
X9303087Y-17199460D02*
X9322134Y-17208984D01*
X9322134Y-17208984D02*
X9341182Y-17208984D01*
X9560230Y-17075650D02*
X9560230Y-17275650D01*
X9560230Y-17085174D02*
X9579277Y-17075650D01*
X9579277Y-17075650D02*
X9617373Y-17075650D01*
X9617373Y-17075650D02*
X9636420Y-17085174D01*
X9636420Y-17085174D02*
X9645944Y-17094698D01*
X9645944Y-17094698D02*
X9655468Y-17113746D01*
X9655468Y-17113746D02*
X9655468Y-17170889D01*
X9655468Y-17170889D02*
X9645944Y-17189936D01*
X9645944Y-17189936D02*
X9636420Y-17199460D01*
X9636420Y-17199460D02*
X9617373Y-17208984D01*
X9617373Y-17208984D02*
X9579277Y-17208984D01*
X9579277Y-17208984D02*
X9560230Y-17199460D01*
X9769754Y-17208984D02*
X9750706Y-17199460D01*
X9750706Y-17199460D02*
X9741182Y-17180412D01*
X9741182Y-17180412D02*
X9741182Y-17008984D01*
X9931658Y-17208984D02*
X9931658Y-17104222D01*
X9931658Y-17104222D02*
X9922135Y-17085174D01*
X9922135Y-17085174D02*
X9903087Y-17075650D01*
X9903087Y-17075650D02*
X9864992Y-17075650D01*
X9864992Y-17075650D02*
X9845944Y-17085174D01*
X9931658Y-17199460D02*
X9912611Y-17208984D01*
X9912611Y-17208984D02*
X9864992Y-17208984D01*
X9864992Y-17208984D02*
X9845944Y-17199460D01*
X9845944Y-17199460D02*
X9836420Y-17180412D01*
X9836420Y-17180412D02*
X9836420Y-17161365D01*
X9836420Y-17161365D02*
X9845944Y-17142317D01*
X9845944Y-17142317D02*
X9864992Y-17132793D01*
X9864992Y-17132793D02*
X9912611Y-17132793D01*
X9912611Y-17132793D02*
X9931658Y-17123270D01*
X9998325Y-17075650D02*
X10074515Y-17075650D01*
X10026896Y-17008984D02*
X10026896Y-17180412D01*
X10026896Y-17180412D02*
X10036420Y-17199460D01*
X10036420Y-17199460D02*
X10055468Y-17208984D01*
X10055468Y-17208984D02*
X10074515Y-17208984D01*
X10217373Y-17199460D02*
X10198325Y-17208984D01*
X10198325Y-17208984D02*
X10160230Y-17208984D01*
X10160230Y-17208984D02*
X10141182Y-17199460D01*
X10141182Y-17199460D02*
X10131658Y-17180412D01*
X10131658Y-17180412D02*
X10131658Y-17104222D01*
X10131658Y-17104222D02*
X10141182Y-17085174D01*
X10141182Y-17085174D02*
X10160230Y-17075650D01*
X10160230Y-17075650D02*
X10198325Y-17075650D01*
X10198325Y-17075650D02*
X10217373Y-17085174D01*
X10217373Y-17085174D02*
X10226896Y-17104222D01*
X10226896Y-17104222D02*
X10226896Y-17123270D01*
X10226896Y-17123270D02*
X10131658Y-17142317D01*
X10398325Y-17208984D02*
X10398325Y-17008984D01*
X10398325Y-17199460D02*
X10379277Y-17208984D01*
X10379277Y-17208984D02*
X10341182Y-17208984D01*
X10341182Y-17208984D02*
X10322135Y-17199460D01*
X10322135Y-17199460D02*
X10312611Y-17189936D01*
X10312611Y-17189936D02*
X10303087Y-17170889D01*
X10303087Y-17170889D02*
X10303087Y-17113746D01*
X10303087Y-17113746D02*
X10312611Y-17094698D01*
X10312611Y-17094698D02*
X10322135Y-17085174D01*
X10322135Y-17085174D02*
X10341182Y-17075650D01*
X10341182Y-17075650D02*
X10379277Y-17075650D01*
X10379277Y-17075650D02*
X10398325Y-17085174D01*
X10474516Y-17285174D02*
X10484039Y-17275650D01*
X10484039Y-17275650D02*
X10503087Y-17247079D01*
X10503087Y-17247079D02*
X10512611Y-17228031D01*
X10512611Y-17228031D02*
X10522135Y-17199460D01*
X10522135Y-17199460D02*
X10531658Y-17151841D01*
X10531658Y-17151841D02*
X10531658Y-17113746D01*
X10531658Y-17113746D02*
X10522135Y-17066127D01*
X10522135Y-17066127D02*
X10512611Y-17037555D01*
X10512611Y-17037555D02*
X10503087Y-17018508D01*
X10503087Y-17018508D02*
X10484039Y-16989936D01*
X10484039Y-16989936D02*
X10474516Y-16980412D01*
D13*
X3718500Y-17381500D02*
G75*
G03*
X3718500Y-17381500I-87500J0D01*
G01*
D11*
X4084039Y-17472984D02*
X3969753Y-17472984D01*
X4026896Y-17472984D02*
X4026896Y-17272984D01*
X4026896Y-17272984D02*
X4007848Y-17301555D01*
X4007848Y-17301555D02*
X3988801Y-17320603D01*
X3988801Y-17320603D02*
X3969753Y-17330127D01*
X4169753Y-17453936D02*
X4179277Y-17463460D01*
X4179277Y-17463460D02*
X4169753Y-17472984D01*
X4169753Y-17472984D02*
X4160229Y-17463460D01*
X4160229Y-17463460D02*
X4169753Y-17453936D01*
X4169753Y-17453936D02*
X4169753Y-17472984D01*
X4245944Y-17272984D02*
X4379277Y-17272984D01*
X4379277Y-17272984D02*
X4293563Y-17472984D01*
X4550705Y-17272984D02*
X4455467Y-17272984D01*
X4455467Y-17272984D02*
X4445944Y-17368222D01*
X4445944Y-17368222D02*
X4455467Y-17358698D01*
X4455467Y-17358698D02*
X4474515Y-17349174D01*
X4474515Y-17349174D02*
X4522134Y-17349174D01*
X4522134Y-17349174D02*
X4541182Y-17358698D01*
X4541182Y-17358698D02*
X4550705Y-17368222D01*
X4550705Y-17368222D02*
X4560229Y-17387270D01*
X4560229Y-17387270D02*
X4560229Y-17434889D01*
X4560229Y-17434889D02*
X4550705Y-17453936D01*
X4550705Y-17453936D02*
X4541182Y-17463460D01*
X4541182Y-17463460D02*
X4522134Y-17472984D01*
X4522134Y-17472984D02*
X4474515Y-17472984D01*
X4474515Y-17472984D02*
X4455467Y-17463460D01*
X4455467Y-17463460D02*
X4445944Y-17453936D01*
X4684039Y-17272984D02*
X4703086Y-17272984D01*
X4703086Y-17272984D02*
X4722134Y-17282508D01*
X4722134Y-17282508D02*
X4731658Y-17292031D01*
X4731658Y-17292031D02*
X4741182Y-17311079D01*
X4741182Y-17311079D02*
X4750705Y-17349174D01*
X4750705Y-17349174D02*
X4750705Y-17396793D01*
X4750705Y-17396793D02*
X4741182Y-17434889D01*
X4741182Y-17434889D02*
X4731658Y-17453936D01*
X4731658Y-17453936D02*
X4722134Y-17463460D01*
X4722134Y-17463460D02*
X4703086Y-17472984D01*
X4703086Y-17472984D02*
X4684039Y-17472984D01*
X4684039Y-17472984D02*
X4664991Y-17463460D01*
X4664991Y-17463460D02*
X4655467Y-17453936D01*
X4655467Y-17453936D02*
X4645944Y-17434889D01*
X4645944Y-17434889D02*
X4636420Y-17396793D01*
X4636420Y-17396793D02*
X4636420Y-17349174D01*
X4636420Y-17349174D02*
X4645944Y-17311079D01*
X4645944Y-17311079D02*
X4655467Y-17292031D01*
X4655467Y-17292031D02*
X4664991Y-17282508D01*
X4664991Y-17282508D02*
X4684039Y-17272984D01*
X4836420Y-17472984D02*
X4836420Y-17339650D01*
X4836420Y-17358698D02*
X4845944Y-17349174D01*
X4845944Y-17349174D02*
X4864991Y-17339650D01*
X4864991Y-17339650D02*
X4893563Y-17339650D01*
X4893563Y-17339650D02*
X4912610Y-17349174D01*
X4912610Y-17349174D02*
X4922134Y-17368222D01*
X4922134Y-17368222D02*
X4922134Y-17472984D01*
X4922134Y-17368222D02*
X4931658Y-17349174D01*
X4931658Y-17349174D02*
X4950705Y-17339650D01*
X4950705Y-17339650D02*
X4979277Y-17339650D01*
X4979277Y-17339650D02*
X4998325Y-17349174D01*
X4998325Y-17349174D02*
X5007848Y-17368222D01*
X5007848Y-17368222D02*
X5007848Y-17472984D01*
X5103086Y-17472984D02*
X5103086Y-17339650D01*
X5103086Y-17358698D02*
X5112610Y-17349174D01*
X5112610Y-17349174D02*
X5131658Y-17339650D01*
X5131658Y-17339650D02*
X5160229Y-17339650D01*
X5160229Y-17339650D02*
X5179277Y-17349174D01*
X5179277Y-17349174D02*
X5188801Y-17368222D01*
X5188801Y-17368222D02*
X5188801Y-17472984D01*
X5188801Y-17368222D02*
X5198325Y-17349174D01*
X5198325Y-17349174D02*
X5217372Y-17339650D01*
X5217372Y-17339650D02*
X5245944Y-17339650D01*
X5245944Y-17339650D02*
X5264991Y-17349174D01*
X5264991Y-17349174D02*
X5274515Y-17368222D01*
X5274515Y-17368222D02*
X5274515Y-17472984D01*
X5664991Y-17263460D02*
X5493563Y-17520603D01*
X5922134Y-17272984D02*
X5941182Y-17272984D01*
X5941182Y-17272984D02*
X5960229Y-17282508D01*
X5960229Y-17282508D02*
X5969753Y-17292031D01*
X5969753Y-17292031D02*
X5979277Y-17311079D01*
X5979277Y-17311079D02*
X5988801Y-17349174D01*
X5988801Y-17349174D02*
X5988801Y-17396793D01*
X5988801Y-17396793D02*
X5979277Y-17434889D01*
X5979277Y-17434889D02*
X5969753Y-17453936D01*
X5969753Y-17453936D02*
X5960229Y-17463460D01*
X5960229Y-17463460D02*
X5941182Y-17472984D01*
X5941182Y-17472984D02*
X5922134Y-17472984D01*
X5922134Y-17472984D02*
X5903086Y-17463460D01*
X5903086Y-17463460D02*
X5893563Y-17453936D01*
X5893563Y-17453936D02*
X5884039Y-17434889D01*
X5884039Y-17434889D02*
X5874515Y-17396793D01*
X5874515Y-17396793D02*
X5874515Y-17349174D01*
X5874515Y-17349174D02*
X5884039Y-17311079D01*
X5884039Y-17311079D02*
X5893563Y-17292031D01*
X5893563Y-17292031D02*
X5903086Y-17282508D01*
X5903086Y-17282508D02*
X5922134Y-17272984D01*
X6074515Y-17453936D02*
X6084039Y-17463460D01*
X6084039Y-17463460D02*
X6074515Y-17472984D01*
X6074515Y-17472984D02*
X6064991Y-17463460D01*
X6064991Y-17463460D02*
X6074515Y-17453936D01*
X6074515Y-17453936D02*
X6074515Y-17472984D01*
X6207848Y-17272984D02*
X6226896Y-17272984D01*
X6226896Y-17272984D02*
X6245944Y-17282508D01*
X6245944Y-17282508D02*
X6255467Y-17292031D01*
X6255467Y-17292031D02*
X6264991Y-17311079D01*
X6264991Y-17311079D02*
X6274515Y-17349174D01*
X6274515Y-17349174D02*
X6274515Y-17396793D01*
X6274515Y-17396793D02*
X6264991Y-17434889D01*
X6264991Y-17434889D02*
X6255467Y-17453936D01*
X6255467Y-17453936D02*
X6245944Y-17463460D01*
X6245944Y-17463460D02*
X6226896Y-17472984D01*
X6226896Y-17472984D02*
X6207848Y-17472984D01*
X6207848Y-17472984D02*
X6188801Y-17463460D01*
X6188801Y-17463460D02*
X6179277Y-17453936D01*
X6179277Y-17453936D02*
X6169753Y-17434889D01*
X6169753Y-17434889D02*
X6160229Y-17396793D01*
X6160229Y-17396793D02*
X6160229Y-17349174D01*
X6160229Y-17349174D02*
X6169753Y-17311079D01*
X6169753Y-17311079D02*
X6179277Y-17292031D01*
X6179277Y-17292031D02*
X6188801Y-17282508D01*
X6188801Y-17282508D02*
X6207848Y-17272984D01*
X6445944Y-17272984D02*
X6407848Y-17272984D01*
X6407848Y-17272984D02*
X6388801Y-17282508D01*
X6388801Y-17282508D02*
X6379277Y-17292031D01*
X6379277Y-17292031D02*
X6360229Y-17320603D01*
X6360229Y-17320603D02*
X6350706Y-17358698D01*
X6350706Y-17358698D02*
X6350706Y-17434889D01*
X6350706Y-17434889D02*
X6360229Y-17453936D01*
X6360229Y-17453936D02*
X6369753Y-17463460D01*
X6369753Y-17463460D02*
X6388801Y-17472984D01*
X6388801Y-17472984D02*
X6426896Y-17472984D01*
X6426896Y-17472984D02*
X6445944Y-17463460D01*
X6445944Y-17463460D02*
X6455467Y-17453936D01*
X6455467Y-17453936D02*
X6464991Y-17434889D01*
X6464991Y-17434889D02*
X6464991Y-17387270D01*
X6464991Y-17387270D02*
X6455467Y-17368222D01*
X6455467Y-17368222D02*
X6445944Y-17358698D01*
X6445944Y-17358698D02*
X6426896Y-17349174D01*
X6426896Y-17349174D02*
X6388801Y-17349174D01*
X6388801Y-17349174D02*
X6369753Y-17358698D01*
X6369753Y-17358698D02*
X6360229Y-17368222D01*
X6360229Y-17368222D02*
X6350706Y-17387270D01*
X6579277Y-17358698D02*
X6560229Y-17349174D01*
X6560229Y-17349174D02*
X6550706Y-17339650D01*
X6550706Y-17339650D02*
X6541182Y-17320603D01*
X6541182Y-17320603D02*
X6541182Y-17311079D01*
X6541182Y-17311079D02*
X6550706Y-17292031D01*
X6550706Y-17292031D02*
X6560229Y-17282508D01*
X6560229Y-17282508D02*
X6579277Y-17272984D01*
X6579277Y-17272984D02*
X6617372Y-17272984D01*
X6617372Y-17272984D02*
X6636420Y-17282508D01*
X6636420Y-17282508D02*
X6645944Y-17292031D01*
X6645944Y-17292031D02*
X6655467Y-17311079D01*
X6655467Y-17311079D02*
X6655467Y-17320603D01*
X6655467Y-17320603D02*
X6645944Y-17339650D01*
X6645944Y-17339650D02*
X6636420Y-17349174D01*
X6636420Y-17349174D02*
X6617372Y-17358698D01*
X6617372Y-17358698D02*
X6579277Y-17358698D01*
X6579277Y-17358698D02*
X6560229Y-17368222D01*
X6560229Y-17368222D02*
X6550706Y-17377746D01*
X6550706Y-17377746D02*
X6541182Y-17396793D01*
X6541182Y-17396793D02*
X6541182Y-17434889D01*
X6541182Y-17434889D02*
X6550706Y-17453936D01*
X6550706Y-17453936D02*
X6560229Y-17463460D01*
X6560229Y-17463460D02*
X6579277Y-17472984D01*
X6579277Y-17472984D02*
X6617372Y-17472984D01*
X6617372Y-17472984D02*
X6636420Y-17463460D01*
X6636420Y-17463460D02*
X6645944Y-17453936D01*
X6645944Y-17453936D02*
X6655467Y-17434889D01*
X6655467Y-17434889D02*
X6655467Y-17396793D01*
X6655467Y-17396793D02*
X6645944Y-17377746D01*
X6645944Y-17377746D02*
X6636420Y-17368222D01*
X6636420Y-17368222D02*
X6617372Y-17358698D01*
X6750706Y-17472984D02*
X6788801Y-17472984D01*
X6788801Y-17472984D02*
X6807848Y-17463460D01*
X6807848Y-17463460D02*
X6817372Y-17453936D01*
X6817372Y-17453936D02*
X6836420Y-17425365D01*
X6836420Y-17425365D02*
X6845944Y-17387270D01*
X6845944Y-17387270D02*
X6845944Y-17311079D01*
X6845944Y-17311079D02*
X6836420Y-17292031D01*
X6836420Y-17292031D02*
X6826896Y-17282508D01*
X6826896Y-17282508D02*
X6807848Y-17272984D01*
X6807848Y-17272984D02*
X6769753Y-17272984D01*
X6769753Y-17272984D02*
X6750706Y-17282508D01*
X6750706Y-17282508D02*
X6741182Y-17292031D01*
X6741182Y-17292031D02*
X6731658Y-17311079D01*
X6731658Y-17311079D02*
X6731658Y-17358698D01*
X6731658Y-17358698D02*
X6741182Y-17377746D01*
X6741182Y-17377746D02*
X6750706Y-17387270D01*
X6750706Y-17387270D02*
X6769753Y-17396793D01*
X6769753Y-17396793D02*
X6807848Y-17396793D01*
X6807848Y-17396793D02*
X6826896Y-17387270D01*
X6826896Y-17387270D02*
X6836420Y-17377746D01*
X6836420Y-17377746D02*
X6845944Y-17358698D01*
X6922134Y-17272984D02*
X6922134Y-17311079D01*
X6998325Y-17272984D02*
X6998325Y-17311079D01*
X7293563Y-17549174D02*
X7284039Y-17539650D01*
X7284039Y-17539650D02*
X7264991Y-17511079D01*
X7264991Y-17511079D02*
X7255468Y-17492031D01*
X7255468Y-17492031D02*
X7245944Y-17463460D01*
X7245944Y-17463460D02*
X7236420Y-17415841D01*
X7236420Y-17415841D02*
X7236420Y-17377746D01*
X7236420Y-17377746D02*
X7245944Y-17330127D01*
X7245944Y-17330127D02*
X7255468Y-17301555D01*
X7255468Y-17301555D02*
X7264991Y-17282508D01*
X7264991Y-17282508D02*
X7284039Y-17253936D01*
X7284039Y-17253936D02*
X7293563Y-17244412D01*
X7474515Y-17472984D02*
X7360229Y-17472984D01*
X7417372Y-17472984D02*
X7417372Y-17272984D01*
X7417372Y-17272984D02*
X7398325Y-17301555D01*
X7398325Y-17301555D02*
X7379277Y-17320603D01*
X7379277Y-17320603D02*
X7360229Y-17330127D01*
X7645944Y-17272984D02*
X7607848Y-17272984D01*
X7607848Y-17272984D02*
X7588801Y-17282508D01*
X7588801Y-17282508D02*
X7579277Y-17292031D01*
X7579277Y-17292031D02*
X7560229Y-17320603D01*
X7560229Y-17320603D02*
X7550706Y-17358698D01*
X7550706Y-17358698D02*
X7550706Y-17434889D01*
X7550706Y-17434889D02*
X7560229Y-17453936D01*
X7560229Y-17453936D02*
X7569753Y-17463460D01*
X7569753Y-17463460D02*
X7588801Y-17472984D01*
X7588801Y-17472984D02*
X7626896Y-17472984D01*
X7626896Y-17472984D02*
X7645944Y-17463460D01*
X7645944Y-17463460D02*
X7655468Y-17453936D01*
X7655468Y-17453936D02*
X7664991Y-17434889D01*
X7664991Y-17434889D02*
X7664991Y-17387270D01*
X7664991Y-17387270D02*
X7655468Y-17368222D01*
X7655468Y-17368222D02*
X7645944Y-17358698D01*
X7645944Y-17358698D02*
X7626896Y-17349174D01*
X7626896Y-17349174D02*
X7588801Y-17349174D01*
X7588801Y-17349174D02*
X7569753Y-17358698D01*
X7569753Y-17358698D02*
X7560229Y-17368222D01*
X7560229Y-17368222D02*
X7550706Y-17387270D01*
X7741182Y-17292031D02*
X7750706Y-17282508D01*
X7750706Y-17282508D02*
X7769753Y-17272984D01*
X7769753Y-17272984D02*
X7817372Y-17272984D01*
X7817372Y-17272984D02*
X7836420Y-17282508D01*
X7836420Y-17282508D02*
X7845944Y-17292031D01*
X7845944Y-17292031D02*
X7855468Y-17311079D01*
X7855468Y-17311079D02*
X7855468Y-17330127D01*
X7855468Y-17330127D02*
X7845944Y-17358698D01*
X7845944Y-17358698D02*
X7731658Y-17472984D01*
X7731658Y-17472984D02*
X7855468Y-17472984D01*
X8093563Y-17472984D02*
X8093563Y-17272984D01*
X8179277Y-17472984D02*
X8179277Y-17368222D01*
X8179277Y-17368222D02*
X8169753Y-17349174D01*
X8169753Y-17349174D02*
X8150706Y-17339650D01*
X8150706Y-17339650D02*
X8122134Y-17339650D01*
X8122134Y-17339650D02*
X8103087Y-17349174D01*
X8103087Y-17349174D02*
X8093563Y-17358698D01*
X8303087Y-17472984D02*
X8284039Y-17463460D01*
X8284039Y-17463460D02*
X8274515Y-17453936D01*
X8274515Y-17453936D02*
X8264991Y-17434889D01*
X8264991Y-17434889D02*
X8264991Y-17377746D01*
X8264991Y-17377746D02*
X8274515Y-17358698D01*
X8274515Y-17358698D02*
X8284039Y-17349174D01*
X8284039Y-17349174D02*
X8303087Y-17339650D01*
X8303087Y-17339650D02*
X8331658Y-17339650D01*
X8331658Y-17339650D02*
X8350706Y-17349174D01*
X8350706Y-17349174D02*
X8360230Y-17358698D01*
X8360230Y-17358698D02*
X8369753Y-17377746D01*
X8369753Y-17377746D02*
X8369753Y-17434889D01*
X8369753Y-17434889D02*
X8360230Y-17453936D01*
X8360230Y-17453936D02*
X8350706Y-17463460D01*
X8350706Y-17463460D02*
X8331658Y-17472984D01*
X8331658Y-17472984D02*
X8303087Y-17472984D01*
X8484039Y-17472984D02*
X8464992Y-17463460D01*
X8464992Y-17463460D02*
X8455468Y-17444412D01*
X8455468Y-17444412D02*
X8455468Y-17272984D01*
X8636420Y-17463460D02*
X8617373Y-17472984D01*
X8617373Y-17472984D02*
X8579277Y-17472984D01*
X8579277Y-17472984D02*
X8560230Y-17463460D01*
X8560230Y-17463460D02*
X8550706Y-17444412D01*
X8550706Y-17444412D02*
X8550706Y-17368222D01*
X8550706Y-17368222D02*
X8560230Y-17349174D01*
X8560230Y-17349174D02*
X8579277Y-17339650D01*
X8579277Y-17339650D02*
X8617373Y-17339650D01*
X8617373Y-17339650D02*
X8636420Y-17349174D01*
X8636420Y-17349174D02*
X8645944Y-17368222D01*
X8645944Y-17368222D02*
X8645944Y-17387270D01*
X8645944Y-17387270D02*
X8550706Y-17406317D01*
X8722134Y-17463460D02*
X8741182Y-17472984D01*
X8741182Y-17472984D02*
X8779277Y-17472984D01*
X8779277Y-17472984D02*
X8798325Y-17463460D01*
X8798325Y-17463460D02*
X8807849Y-17444412D01*
X8807849Y-17444412D02*
X8807849Y-17434889D01*
X8807849Y-17434889D02*
X8798325Y-17415841D01*
X8798325Y-17415841D02*
X8779277Y-17406317D01*
X8779277Y-17406317D02*
X8750706Y-17406317D01*
X8750706Y-17406317D02*
X8731658Y-17396793D01*
X8731658Y-17396793D02*
X8722134Y-17377746D01*
X8722134Y-17377746D02*
X8722134Y-17368222D01*
X8722134Y-17368222D02*
X8731658Y-17349174D01*
X8731658Y-17349174D02*
X8750706Y-17339650D01*
X8750706Y-17339650D02*
X8779277Y-17339650D01*
X8779277Y-17339650D02*
X8798325Y-17349174D01*
X8874515Y-17549174D02*
X8884039Y-17539650D01*
X8884039Y-17539650D02*
X8903087Y-17511079D01*
X8903087Y-17511079D02*
X8912611Y-17492031D01*
X8912611Y-17492031D02*
X8922134Y-17463460D01*
X8922134Y-17463460D02*
X8931658Y-17415841D01*
X8931658Y-17415841D02*
X8931658Y-17377746D01*
X8931658Y-17377746D02*
X8922134Y-17330127D01*
X8922134Y-17330127D02*
X8912611Y-17301555D01*
X8912611Y-17301555D02*
X8903087Y-17282508D01*
X8903087Y-17282508D02*
X8884039Y-17253936D01*
X8884039Y-17253936D02*
X8874515Y-17244412D01*
X9236420Y-17549174D02*
X9226896Y-17539650D01*
X9226896Y-17539650D02*
X9207849Y-17511079D01*
X9207849Y-17511079D02*
X9198325Y-17492031D01*
X9198325Y-17492031D02*
X9188801Y-17463460D01*
X9188801Y-17463460D02*
X9179277Y-17415841D01*
X9179277Y-17415841D02*
X9179277Y-17377746D01*
X9179277Y-17377746D02*
X9188801Y-17330127D01*
X9188801Y-17330127D02*
X9198325Y-17301555D01*
X9198325Y-17301555D02*
X9207849Y-17282508D01*
X9207849Y-17282508D02*
X9226896Y-17253936D01*
X9226896Y-17253936D02*
X9236420Y-17244412D01*
X9312611Y-17339650D02*
X9312611Y-17472984D01*
X9312611Y-17358698D02*
X9322134Y-17349174D01*
X9322134Y-17349174D02*
X9341182Y-17339650D01*
X9341182Y-17339650D02*
X9369754Y-17339650D01*
X9369754Y-17339650D02*
X9388801Y-17349174D01*
X9388801Y-17349174D02*
X9398325Y-17368222D01*
X9398325Y-17368222D02*
X9398325Y-17472984D01*
X9522134Y-17472984D02*
X9503087Y-17463460D01*
X9503087Y-17463460D02*
X9493563Y-17453936D01*
X9493563Y-17453936D02*
X9484039Y-17434889D01*
X9484039Y-17434889D02*
X9484039Y-17377746D01*
X9484039Y-17377746D02*
X9493563Y-17358698D01*
X9493563Y-17358698D02*
X9503087Y-17349174D01*
X9503087Y-17349174D02*
X9522134Y-17339650D01*
X9522134Y-17339650D02*
X9550706Y-17339650D01*
X9550706Y-17339650D02*
X9569754Y-17349174D01*
X9569754Y-17349174D02*
X9579277Y-17358698D01*
X9579277Y-17358698D02*
X9588801Y-17377746D01*
X9588801Y-17377746D02*
X9588801Y-17434889D01*
X9588801Y-17434889D02*
X9579277Y-17453936D01*
X9579277Y-17453936D02*
X9569754Y-17463460D01*
X9569754Y-17463460D02*
X9550706Y-17472984D01*
X9550706Y-17472984D02*
X9522134Y-17472984D01*
X9645944Y-17339650D02*
X9722134Y-17339650D01*
X9674515Y-17272984D02*
X9674515Y-17444412D01*
X9674515Y-17444412D02*
X9684039Y-17463460D01*
X9684039Y-17463460D02*
X9703087Y-17472984D01*
X9703087Y-17472984D02*
X9722134Y-17472984D01*
X9941182Y-17339650D02*
X9941182Y-17539650D01*
X9941182Y-17349174D02*
X9960230Y-17339650D01*
X9960230Y-17339650D02*
X9998325Y-17339650D01*
X9998325Y-17339650D02*
X10017373Y-17349174D01*
X10017373Y-17349174D02*
X10026896Y-17358698D01*
X10026896Y-17358698D02*
X10036420Y-17377746D01*
X10036420Y-17377746D02*
X10036420Y-17434889D01*
X10036420Y-17434889D02*
X10026896Y-17453936D01*
X10026896Y-17453936D02*
X10017373Y-17463460D01*
X10017373Y-17463460D02*
X9998325Y-17472984D01*
X9998325Y-17472984D02*
X9960230Y-17472984D01*
X9960230Y-17472984D02*
X9941182Y-17463460D01*
X10150706Y-17472984D02*
X10131658Y-17463460D01*
X10131658Y-17463460D02*
X10122135Y-17444412D01*
X10122135Y-17444412D02*
X10122135Y-17272984D01*
X10312611Y-17472984D02*
X10312611Y-17368222D01*
X10312611Y-17368222D02*
X10303087Y-17349174D01*
X10303087Y-17349174D02*
X10284039Y-17339650D01*
X10284039Y-17339650D02*
X10245944Y-17339650D01*
X10245944Y-17339650D02*
X10226896Y-17349174D01*
X10312611Y-17463460D02*
X10293563Y-17472984D01*
X10293563Y-17472984D02*
X10245944Y-17472984D01*
X10245944Y-17472984D02*
X10226896Y-17463460D01*
X10226896Y-17463460D02*
X10217373Y-17444412D01*
X10217373Y-17444412D02*
X10217373Y-17425365D01*
X10217373Y-17425365D02*
X10226896Y-17406317D01*
X10226896Y-17406317D02*
X10245944Y-17396793D01*
X10245944Y-17396793D02*
X10293563Y-17396793D01*
X10293563Y-17396793D02*
X10312611Y-17387270D01*
X10379277Y-17339650D02*
X10455468Y-17339650D01*
X10407849Y-17272984D02*
X10407849Y-17444412D01*
X10407849Y-17444412D02*
X10417373Y-17463460D01*
X10417373Y-17463460D02*
X10436420Y-17472984D01*
X10436420Y-17472984D02*
X10455468Y-17472984D01*
X10598325Y-17463460D02*
X10579277Y-17472984D01*
X10579277Y-17472984D02*
X10541182Y-17472984D01*
X10541182Y-17472984D02*
X10522135Y-17463460D01*
X10522135Y-17463460D02*
X10512611Y-17444412D01*
X10512611Y-17444412D02*
X10512611Y-17368222D01*
X10512611Y-17368222D02*
X10522135Y-17349174D01*
X10522135Y-17349174D02*
X10541182Y-17339650D01*
X10541182Y-17339650D02*
X10579277Y-17339650D01*
X10579277Y-17339650D02*
X10598325Y-17349174D01*
X10598325Y-17349174D02*
X10607849Y-17368222D01*
X10607849Y-17368222D02*
X10607849Y-17387270D01*
X10607849Y-17387270D02*
X10512611Y-17406317D01*
X10779277Y-17472984D02*
X10779277Y-17272984D01*
X10779277Y-17463460D02*
X10760230Y-17472984D01*
X10760230Y-17472984D02*
X10722135Y-17472984D01*
X10722135Y-17472984D02*
X10703087Y-17463460D01*
X10703087Y-17463460D02*
X10693563Y-17453936D01*
X10693563Y-17453936D02*
X10684039Y-17434889D01*
X10684039Y-17434889D02*
X10684039Y-17377746D01*
X10684039Y-17377746D02*
X10693563Y-17358698D01*
X10693563Y-17358698D02*
X10703087Y-17349174D01*
X10703087Y-17349174D02*
X10722135Y-17339650D01*
X10722135Y-17339650D02*
X10760230Y-17339650D01*
X10760230Y-17339650D02*
X10779277Y-17349174D01*
X10855468Y-17549174D02*
X10864992Y-17539650D01*
X10864992Y-17539650D02*
X10884039Y-17511079D01*
X10884039Y-17511079D02*
X10893563Y-17492031D01*
X10893563Y-17492031D02*
X10903087Y-17463460D01*
X10903087Y-17463460D02*
X10912611Y-17415841D01*
X10912611Y-17415841D02*
X10912611Y-17377746D01*
X10912611Y-17377746D02*
X10903087Y-17330127D01*
X10903087Y-17330127D02*
X10893563Y-17301555D01*
X10893563Y-17301555D02*
X10884039Y-17282508D01*
X10884039Y-17282508D02*
X10864992Y-17253936D01*
X10864992Y-17253936D02*
X10855468Y-17244412D01*
X3618500Y-17576500D02*
X3618500Y-17776500D01*
X3518500Y-17676500D02*
X3718500Y-17676500D01*
X3960229Y-17567984D02*
X4084039Y-17567984D01*
X4084039Y-17567984D02*
X4017372Y-17644174D01*
X4017372Y-17644174D02*
X4045943Y-17644174D01*
X4045943Y-17644174D02*
X4064991Y-17653698D01*
X4064991Y-17653698D02*
X4074515Y-17663222D01*
X4074515Y-17663222D02*
X4084039Y-17682270D01*
X4084039Y-17682270D02*
X4084039Y-17729889D01*
X4084039Y-17729889D02*
X4074515Y-17748936D01*
X4074515Y-17748936D02*
X4064991Y-17758460D01*
X4064991Y-17758460D02*
X4045943Y-17767984D01*
X4045943Y-17767984D02*
X3988801Y-17767984D01*
X3988801Y-17767984D02*
X3969753Y-17758460D01*
X3969753Y-17758460D02*
X3960229Y-17748936D01*
X4169753Y-17748936D02*
X4179277Y-17758460D01*
X4179277Y-17758460D02*
X4169753Y-17767984D01*
X4169753Y-17767984D02*
X4160229Y-17758460D01*
X4160229Y-17758460D02*
X4169753Y-17748936D01*
X4169753Y-17748936D02*
X4169753Y-17767984D01*
X4303086Y-17567984D02*
X4322134Y-17567984D01*
X4322134Y-17567984D02*
X4341182Y-17577508D01*
X4341182Y-17577508D02*
X4350705Y-17587031D01*
X4350705Y-17587031D02*
X4360229Y-17606079D01*
X4360229Y-17606079D02*
X4369753Y-17644174D01*
X4369753Y-17644174D02*
X4369753Y-17691793D01*
X4369753Y-17691793D02*
X4360229Y-17729889D01*
X4360229Y-17729889D02*
X4350705Y-17748936D01*
X4350705Y-17748936D02*
X4341182Y-17758460D01*
X4341182Y-17758460D02*
X4322134Y-17767984D01*
X4322134Y-17767984D02*
X4303086Y-17767984D01*
X4303086Y-17767984D02*
X4284039Y-17758460D01*
X4284039Y-17758460D02*
X4274515Y-17748936D01*
X4274515Y-17748936D02*
X4264991Y-17729889D01*
X4264991Y-17729889D02*
X4255467Y-17691793D01*
X4255467Y-17691793D02*
X4255467Y-17644174D01*
X4255467Y-17644174D02*
X4264991Y-17606079D01*
X4264991Y-17606079D02*
X4274515Y-17587031D01*
X4274515Y-17587031D02*
X4284039Y-17577508D01*
X4284039Y-17577508D02*
X4303086Y-17567984D01*
X4493563Y-17567984D02*
X4512610Y-17567984D01*
X4512610Y-17567984D02*
X4531658Y-17577508D01*
X4531658Y-17577508D02*
X4541182Y-17587031D01*
X4541182Y-17587031D02*
X4550705Y-17606079D01*
X4550705Y-17606079D02*
X4560229Y-17644174D01*
X4560229Y-17644174D02*
X4560229Y-17691793D01*
X4560229Y-17691793D02*
X4550705Y-17729889D01*
X4550705Y-17729889D02*
X4541182Y-17748936D01*
X4541182Y-17748936D02*
X4531658Y-17758460D01*
X4531658Y-17758460D02*
X4512610Y-17767984D01*
X4512610Y-17767984D02*
X4493563Y-17767984D01*
X4493563Y-17767984D02*
X4474515Y-17758460D01*
X4474515Y-17758460D02*
X4464991Y-17748936D01*
X4464991Y-17748936D02*
X4455467Y-17729889D01*
X4455467Y-17729889D02*
X4445944Y-17691793D01*
X4445944Y-17691793D02*
X4445944Y-17644174D01*
X4445944Y-17644174D02*
X4455467Y-17606079D01*
X4455467Y-17606079D02*
X4464991Y-17587031D01*
X4464991Y-17587031D02*
X4474515Y-17577508D01*
X4474515Y-17577508D02*
X4493563Y-17567984D01*
X4684039Y-17567984D02*
X4703086Y-17567984D01*
X4703086Y-17567984D02*
X4722134Y-17577508D01*
X4722134Y-17577508D02*
X4731658Y-17587031D01*
X4731658Y-17587031D02*
X4741182Y-17606079D01*
X4741182Y-17606079D02*
X4750705Y-17644174D01*
X4750705Y-17644174D02*
X4750705Y-17691793D01*
X4750705Y-17691793D02*
X4741182Y-17729889D01*
X4741182Y-17729889D02*
X4731658Y-17748936D01*
X4731658Y-17748936D02*
X4722134Y-17758460D01*
X4722134Y-17758460D02*
X4703086Y-17767984D01*
X4703086Y-17767984D02*
X4684039Y-17767984D01*
X4684039Y-17767984D02*
X4664991Y-17758460D01*
X4664991Y-17758460D02*
X4655467Y-17748936D01*
X4655467Y-17748936D02*
X4645944Y-17729889D01*
X4645944Y-17729889D02*
X4636420Y-17691793D01*
X4636420Y-17691793D02*
X4636420Y-17644174D01*
X4636420Y-17644174D02*
X4645944Y-17606079D01*
X4645944Y-17606079D02*
X4655467Y-17587031D01*
X4655467Y-17587031D02*
X4664991Y-17577508D01*
X4664991Y-17577508D02*
X4684039Y-17567984D01*
X4836420Y-17767984D02*
X4836420Y-17634650D01*
X4836420Y-17653698D02*
X4845944Y-17644174D01*
X4845944Y-17644174D02*
X4864991Y-17634650D01*
X4864991Y-17634650D02*
X4893563Y-17634650D01*
X4893563Y-17634650D02*
X4912610Y-17644174D01*
X4912610Y-17644174D02*
X4922134Y-17663222D01*
X4922134Y-17663222D02*
X4922134Y-17767984D01*
X4922134Y-17663222D02*
X4931658Y-17644174D01*
X4931658Y-17644174D02*
X4950705Y-17634650D01*
X4950705Y-17634650D02*
X4979277Y-17634650D01*
X4979277Y-17634650D02*
X4998325Y-17644174D01*
X4998325Y-17644174D02*
X5007848Y-17663222D01*
X5007848Y-17663222D02*
X5007848Y-17767984D01*
X5103086Y-17767984D02*
X5103086Y-17634650D01*
X5103086Y-17653698D02*
X5112610Y-17644174D01*
X5112610Y-17644174D02*
X5131658Y-17634650D01*
X5131658Y-17634650D02*
X5160229Y-17634650D01*
X5160229Y-17634650D02*
X5179277Y-17644174D01*
X5179277Y-17644174D02*
X5188801Y-17663222D01*
X5188801Y-17663222D02*
X5188801Y-17767984D01*
X5188801Y-17663222D02*
X5198325Y-17644174D01*
X5198325Y-17644174D02*
X5217372Y-17634650D01*
X5217372Y-17634650D02*
X5245944Y-17634650D01*
X5245944Y-17634650D02*
X5264991Y-17644174D01*
X5264991Y-17644174D02*
X5274515Y-17663222D01*
X5274515Y-17663222D02*
X5274515Y-17767984D01*
X5664991Y-17558460D02*
X5493563Y-17815603D01*
X5922134Y-17567984D02*
X5941182Y-17567984D01*
X5941182Y-17567984D02*
X5960229Y-17577508D01*
X5960229Y-17577508D02*
X5969753Y-17587031D01*
X5969753Y-17587031D02*
X5979277Y-17606079D01*
X5979277Y-17606079D02*
X5988801Y-17644174D01*
X5988801Y-17644174D02*
X5988801Y-17691793D01*
X5988801Y-17691793D02*
X5979277Y-17729889D01*
X5979277Y-17729889D02*
X5969753Y-17748936D01*
X5969753Y-17748936D02*
X5960229Y-17758460D01*
X5960229Y-17758460D02*
X5941182Y-17767984D01*
X5941182Y-17767984D02*
X5922134Y-17767984D01*
X5922134Y-17767984D02*
X5903086Y-17758460D01*
X5903086Y-17758460D02*
X5893563Y-17748936D01*
X5893563Y-17748936D02*
X5884039Y-17729889D01*
X5884039Y-17729889D02*
X5874515Y-17691793D01*
X5874515Y-17691793D02*
X5874515Y-17644174D01*
X5874515Y-17644174D02*
X5884039Y-17606079D01*
X5884039Y-17606079D02*
X5893563Y-17587031D01*
X5893563Y-17587031D02*
X5903086Y-17577508D01*
X5903086Y-17577508D02*
X5922134Y-17567984D01*
X6074515Y-17748936D02*
X6084039Y-17758460D01*
X6084039Y-17758460D02*
X6074515Y-17767984D01*
X6074515Y-17767984D02*
X6064991Y-17758460D01*
X6064991Y-17758460D02*
X6074515Y-17748936D01*
X6074515Y-17748936D02*
X6074515Y-17767984D01*
X6274515Y-17767984D02*
X6160229Y-17767984D01*
X6217372Y-17767984D02*
X6217372Y-17567984D01*
X6217372Y-17567984D02*
X6198325Y-17596555D01*
X6198325Y-17596555D02*
X6179277Y-17615603D01*
X6179277Y-17615603D02*
X6160229Y-17625127D01*
X6464991Y-17767984D02*
X6350706Y-17767984D01*
X6407848Y-17767984D02*
X6407848Y-17567984D01*
X6407848Y-17567984D02*
X6388801Y-17596555D01*
X6388801Y-17596555D02*
X6369753Y-17615603D01*
X6369753Y-17615603D02*
X6350706Y-17625127D01*
X6579277Y-17653698D02*
X6560229Y-17644174D01*
X6560229Y-17644174D02*
X6550706Y-17634650D01*
X6550706Y-17634650D02*
X6541182Y-17615603D01*
X6541182Y-17615603D02*
X6541182Y-17606079D01*
X6541182Y-17606079D02*
X6550706Y-17587031D01*
X6550706Y-17587031D02*
X6560229Y-17577508D01*
X6560229Y-17577508D02*
X6579277Y-17567984D01*
X6579277Y-17567984D02*
X6617372Y-17567984D01*
X6617372Y-17567984D02*
X6636420Y-17577508D01*
X6636420Y-17577508D02*
X6645944Y-17587031D01*
X6645944Y-17587031D02*
X6655467Y-17606079D01*
X6655467Y-17606079D02*
X6655467Y-17615603D01*
X6655467Y-17615603D02*
X6645944Y-17634650D01*
X6645944Y-17634650D02*
X6636420Y-17644174D01*
X6636420Y-17644174D02*
X6617372Y-17653698D01*
X6617372Y-17653698D02*
X6579277Y-17653698D01*
X6579277Y-17653698D02*
X6560229Y-17663222D01*
X6560229Y-17663222D02*
X6550706Y-17672746D01*
X6550706Y-17672746D02*
X6541182Y-17691793D01*
X6541182Y-17691793D02*
X6541182Y-17729889D01*
X6541182Y-17729889D02*
X6550706Y-17748936D01*
X6550706Y-17748936D02*
X6560229Y-17758460D01*
X6560229Y-17758460D02*
X6579277Y-17767984D01*
X6579277Y-17767984D02*
X6617372Y-17767984D01*
X6617372Y-17767984D02*
X6636420Y-17758460D01*
X6636420Y-17758460D02*
X6645944Y-17748936D01*
X6645944Y-17748936D02*
X6655467Y-17729889D01*
X6655467Y-17729889D02*
X6655467Y-17691793D01*
X6655467Y-17691793D02*
X6645944Y-17672746D01*
X6645944Y-17672746D02*
X6636420Y-17663222D01*
X6636420Y-17663222D02*
X6617372Y-17653698D01*
X6845944Y-17767984D02*
X6731658Y-17767984D01*
X6788801Y-17767984D02*
X6788801Y-17567984D01*
X6788801Y-17567984D02*
X6769753Y-17596555D01*
X6769753Y-17596555D02*
X6750706Y-17615603D01*
X6750706Y-17615603D02*
X6731658Y-17625127D01*
X6922134Y-17567984D02*
X6922134Y-17606079D01*
X6998325Y-17567984D02*
X6998325Y-17606079D01*
X7293563Y-17844174D02*
X7284039Y-17834650D01*
X7284039Y-17834650D02*
X7264991Y-17806079D01*
X7264991Y-17806079D02*
X7255468Y-17787031D01*
X7255468Y-17787031D02*
X7245944Y-17758460D01*
X7245944Y-17758460D02*
X7236420Y-17710841D01*
X7236420Y-17710841D02*
X7236420Y-17672746D01*
X7236420Y-17672746D02*
X7245944Y-17625127D01*
X7245944Y-17625127D02*
X7255468Y-17596555D01*
X7255468Y-17596555D02*
X7264991Y-17577508D01*
X7264991Y-17577508D02*
X7284039Y-17548936D01*
X7284039Y-17548936D02*
X7293563Y-17539412D01*
X7474515Y-17767984D02*
X7360229Y-17767984D01*
X7417372Y-17767984D02*
X7417372Y-17567984D01*
X7417372Y-17567984D02*
X7398325Y-17596555D01*
X7398325Y-17596555D02*
X7379277Y-17615603D01*
X7379277Y-17615603D02*
X7360229Y-17625127D01*
X7645944Y-17567984D02*
X7607848Y-17567984D01*
X7607848Y-17567984D02*
X7588801Y-17577508D01*
X7588801Y-17577508D02*
X7579277Y-17587031D01*
X7579277Y-17587031D02*
X7560229Y-17615603D01*
X7560229Y-17615603D02*
X7550706Y-17653698D01*
X7550706Y-17653698D02*
X7550706Y-17729889D01*
X7550706Y-17729889D02*
X7560229Y-17748936D01*
X7560229Y-17748936D02*
X7569753Y-17758460D01*
X7569753Y-17758460D02*
X7588801Y-17767984D01*
X7588801Y-17767984D02*
X7626896Y-17767984D01*
X7626896Y-17767984D02*
X7645944Y-17758460D01*
X7645944Y-17758460D02*
X7655468Y-17748936D01*
X7655468Y-17748936D02*
X7664991Y-17729889D01*
X7664991Y-17729889D02*
X7664991Y-17682270D01*
X7664991Y-17682270D02*
X7655468Y-17663222D01*
X7655468Y-17663222D02*
X7645944Y-17653698D01*
X7645944Y-17653698D02*
X7626896Y-17644174D01*
X7626896Y-17644174D02*
X7588801Y-17644174D01*
X7588801Y-17644174D02*
X7569753Y-17653698D01*
X7569753Y-17653698D02*
X7560229Y-17663222D01*
X7560229Y-17663222D02*
X7550706Y-17682270D01*
X7741182Y-17587031D02*
X7750706Y-17577508D01*
X7750706Y-17577508D02*
X7769753Y-17567984D01*
X7769753Y-17567984D02*
X7817372Y-17567984D01*
X7817372Y-17567984D02*
X7836420Y-17577508D01*
X7836420Y-17577508D02*
X7845944Y-17587031D01*
X7845944Y-17587031D02*
X7855468Y-17606079D01*
X7855468Y-17606079D02*
X7855468Y-17625127D01*
X7855468Y-17625127D02*
X7845944Y-17653698D01*
X7845944Y-17653698D02*
X7731658Y-17767984D01*
X7731658Y-17767984D02*
X7855468Y-17767984D01*
X8093563Y-17767984D02*
X8093563Y-17567984D01*
X8179277Y-17767984D02*
X8179277Y-17663222D01*
X8179277Y-17663222D02*
X8169753Y-17644174D01*
X8169753Y-17644174D02*
X8150706Y-17634650D01*
X8150706Y-17634650D02*
X8122134Y-17634650D01*
X8122134Y-17634650D02*
X8103087Y-17644174D01*
X8103087Y-17644174D02*
X8093563Y-17653698D01*
X8303087Y-17767984D02*
X8284039Y-17758460D01*
X8284039Y-17758460D02*
X8274515Y-17748936D01*
X8274515Y-17748936D02*
X8264991Y-17729889D01*
X8264991Y-17729889D02*
X8264991Y-17672746D01*
X8264991Y-17672746D02*
X8274515Y-17653698D01*
X8274515Y-17653698D02*
X8284039Y-17644174D01*
X8284039Y-17644174D02*
X8303087Y-17634650D01*
X8303087Y-17634650D02*
X8331658Y-17634650D01*
X8331658Y-17634650D02*
X8350706Y-17644174D01*
X8350706Y-17644174D02*
X8360230Y-17653698D01*
X8360230Y-17653698D02*
X8369753Y-17672746D01*
X8369753Y-17672746D02*
X8369753Y-17729889D01*
X8369753Y-17729889D02*
X8360230Y-17748936D01*
X8360230Y-17748936D02*
X8350706Y-17758460D01*
X8350706Y-17758460D02*
X8331658Y-17767984D01*
X8331658Y-17767984D02*
X8303087Y-17767984D01*
X8484039Y-17767984D02*
X8464992Y-17758460D01*
X8464992Y-17758460D02*
X8455468Y-17739412D01*
X8455468Y-17739412D02*
X8455468Y-17567984D01*
X8636420Y-17758460D02*
X8617373Y-17767984D01*
X8617373Y-17767984D02*
X8579277Y-17767984D01*
X8579277Y-17767984D02*
X8560230Y-17758460D01*
X8560230Y-17758460D02*
X8550706Y-17739412D01*
X8550706Y-17739412D02*
X8550706Y-17663222D01*
X8550706Y-17663222D02*
X8560230Y-17644174D01*
X8560230Y-17644174D02*
X8579277Y-17634650D01*
X8579277Y-17634650D02*
X8617373Y-17634650D01*
X8617373Y-17634650D02*
X8636420Y-17644174D01*
X8636420Y-17644174D02*
X8645944Y-17663222D01*
X8645944Y-17663222D02*
X8645944Y-17682270D01*
X8645944Y-17682270D02*
X8550706Y-17701317D01*
X8722134Y-17758460D02*
X8741182Y-17767984D01*
X8741182Y-17767984D02*
X8779277Y-17767984D01*
X8779277Y-17767984D02*
X8798325Y-17758460D01*
X8798325Y-17758460D02*
X8807849Y-17739412D01*
X8807849Y-17739412D02*
X8807849Y-17729889D01*
X8807849Y-17729889D02*
X8798325Y-17710841D01*
X8798325Y-17710841D02*
X8779277Y-17701317D01*
X8779277Y-17701317D02*
X8750706Y-17701317D01*
X8750706Y-17701317D02*
X8731658Y-17691793D01*
X8731658Y-17691793D02*
X8722134Y-17672746D01*
X8722134Y-17672746D02*
X8722134Y-17663222D01*
X8722134Y-17663222D02*
X8731658Y-17644174D01*
X8731658Y-17644174D02*
X8750706Y-17634650D01*
X8750706Y-17634650D02*
X8779277Y-17634650D01*
X8779277Y-17634650D02*
X8798325Y-17644174D01*
X8874515Y-17844174D02*
X8884039Y-17834650D01*
X8884039Y-17834650D02*
X8903087Y-17806079D01*
X8903087Y-17806079D02*
X8912611Y-17787031D01*
X8912611Y-17787031D02*
X8922134Y-17758460D01*
X8922134Y-17758460D02*
X8931658Y-17710841D01*
X8931658Y-17710841D02*
X8931658Y-17672746D01*
X8931658Y-17672746D02*
X8922134Y-17625127D01*
X8922134Y-17625127D02*
X8912611Y-17596555D01*
X8912611Y-17596555D02*
X8903087Y-17577508D01*
X8903087Y-17577508D02*
X8884039Y-17548936D01*
X8884039Y-17548936D02*
X8874515Y-17539412D01*
X9236420Y-17844174D02*
X9226896Y-17834650D01*
X9226896Y-17834650D02*
X9207849Y-17806079D01*
X9207849Y-17806079D02*
X9198325Y-17787031D01*
X9198325Y-17787031D02*
X9188801Y-17758460D01*
X9188801Y-17758460D02*
X9179277Y-17710841D01*
X9179277Y-17710841D02*
X9179277Y-17672746D01*
X9179277Y-17672746D02*
X9188801Y-17625127D01*
X9188801Y-17625127D02*
X9198325Y-17596555D01*
X9198325Y-17596555D02*
X9207849Y-17577508D01*
X9207849Y-17577508D02*
X9226896Y-17548936D01*
X9226896Y-17548936D02*
X9236420Y-17539412D01*
X9312611Y-17634650D02*
X9312611Y-17767984D01*
X9312611Y-17653698D02*
X9322134Y-17644174D01*
X9322134Y-17644174D02*
X9341182Y-17634650D01*
X9341182Y-17634650D02*
X9369754Y-17634650D01*
X9369754Y-17634650D02*
X9388801Y-17644174D01*
X9388801Y-17644174D02*
X9398325Y-17663222D01*
X9398325Y-17663222D02*
X9398325Y-17767984D01*
X9522134Y-17767984D02*
X9503087Y-17758460D01*
X9503087Y-17758460D02*
X9493563Y-17748936D01*
X9493563Y-17748936D02*
X9484039Y-17729889D01*
X9484039Y-17729889D02*
X9484039Y-17672746D01*
X9484039Y-17672746D02*
X9493563Y-17653698D01*
X9493563Y-17653698D02*
X9503087Y-17644174D01*
X9503087Y-17644174D02*
X9522134Y-17634650D01*
X9522134Y-17634650D02*
X9550706Y-17634650D01*
X9550706Y-17634650D02*
X9569754Y-17644174D01*
X9569754Y-17644174D02*
X9579277Y-17653698D01*
X9579277Y-17653698D02*
X9588801Y-17672746D01*
X9588801Y-17672746D02*
X9588801Y-17729889D01*
X9588801Y-17729889D02*
X9579277Y-17748936D01*
X9579277Y-17748936D02*
X9569754Y-17758460D01*
X9569754Y-17758460D02*
X9550706Y-17767984D01*
X9550706Y-17767984D02*
X9522134Y-17767984D01*
X9645944Y-17634650D02*
X9722134Y-17634650D01*
X9674515Y-17567984D02*
X9674515Y-17739412D01*
X9674515Y-17739412D02*
X9684039Y-17758460D01*
X9684039Y-17758460D02*
X9703087Y-17767984D01*
X9703087Y-17767984D02*
X9722134Y-17767984D01*
X9941182Y-17634650D02*
X9941182Y-17834650D01*
X9941182Y-17644174D02*
X9960230Y-17634650D01*
X9960230Y-17634650D02*
X9998325Y-17634650D01*
X9998325Y-17634650D02*
X10017373Y-17644174D01*
X10017373Y-17644174D02*
X10026896Y-17653698D01*
X10026896Y-17653698D02*
X10036420Y-17672746D01*
X10036420Y-17672746D02*
X10036420Y-17729889D01*
X10036420Y-17729889D02*
X10026896Y-17748936D01*
X10026896Y-17748936D02*
X10017373Y-17758460D01*
X10017373Y-17758460D02*
X9998325Y-17767984D01*
X9998325Y-17767984D02*
X9960230Y-17767984D01*
X9960230Y-17767984D02*
X9941182Y-17758460D01*
X10150706Y-17767984D02*
X10131658Y-17758460D01*
X10131658Y-17758460D02*
X10122135Y-17739412D01*
X10122135Y-17739412D02*
X10122135Y-17567984D01*
X10312611Y-17767984D02*
X10312611Y-17663222D01*
X10312611Y-17663222D02*
X10303087Y-17644174D01*
X10303087Y-17644174D02*
X10284039Y-17634650D01*
X10284039Y-17634650D02*
X10245944Y-17634650D01*
X10245944Y-17634650D02*
X10226896Y-17644174D01*
X10312611Y-17758460D02*
X10293563Y-17767984D01*
X10293563Y-17767984D02*
X10245944Y-17767984D01*
X10245944Y-17767984D02*
X10226896Y-17758460D01*
X10226896Y-17758460D02*
X10217373Y-17739412D01*
X10217373Y-17739412D02*
X10217373Y-17720365D01*
X10217373Y-17720365D02*
X10226896Y-17701317D01*
X10226896Y-17701317D02*
X10245944Y-17691793D01*
X10245944Y-17691793D02*
X10293563Y-17691793D01*
X10293563Y-17691793D02*
X10312611Y-17682270D01*
X10379277Y-17634650D02*
X10455468Y-17634650D01*
X10407849Y-17567984D02*
X10407849Y-17739412D01*
X10407849Y-17739412D02*
X10417373Y-17758460D01*
X10417373Y-17758460D02*
X10436420Y-17767984D01*
X10436420Y-17767984D02*
X10455468Y-17767984D01*
X10598325Y-17758460D02*
X10579277Y-17767984D01*
X10579277Y-17767984D02*
X10541182Y-17767984D01*
X10541182Y-17767984D02*
X10522135Y-17758460D01*
X10522135Y-17758460D02*
X10512611Y-17739412D01*
X10512611Y-17739412D02*
X10512611Y-17663222D01*
X10512611Y-17663222D02*
X10522135Y-17644174D01*
X10522135Y-17644174D02*
X10541182Y-17634650D01*
X10541182Y-17634650D02*
X10579277Y-17634650D01*
X10579277Y-17634650D02*
X10598325Y-17644174D01*
X10598325Y-17644174D02*
X10607849Y-17663222D01*
X10607849Y-17663222D02*
X10607849Y-17682270D01*
X10607849Y-17682270D02*
X10512611Y-17701317D01*
X10779277Y-17767984D02*
X10779277Y-17567984D01*
X10779277Y-17758460D02*
X10760230Y-17767984D01*
X10760230Y-17767984D02*
X10722135Y-17767984D01*
X10722135Y-17767984D02*
X10703087Y-17758460D01*
X10703087Y-17758460D02*
X10693563Y-17748936D01*
X10693563Y-17748936D02*
X10684039Y-17729889D01*
X10684039Y-17729889D02*
X10684039Y-17672746D01*
X10684039Y-17672746D02*
X10693563Y-17653698D01*
X10693563Y-17653698D02*
X10703087Y-17644174D01*
X10703087Y-17644174D02*
X10722135Y-17634650D01*
X10722135Y-17634650D02*
X10760230Y-17634650D01*
X10760230Y-17634650D02*
X10779277Y-17644174D01*
X10855468Y-17844174D02*
X10864992Y-17834650D01*
X10864992Y-17834650D02*
X10884039Y-17806079D01*
X10884039Y-17806079D02*
X10893563Y-17787031D01*
X10893563Y-17787031D02*
X10903087Y-17758460D01*
X10903087Y-17758460D02*
X10912611Y-17710841D01*
X10912611Y-17710841D02*
X10912611Y-17672746D01*
X10912611Y-17672746D02*
X10903087Y-17625127D01*
X10903087Y-17625127D02*
X10893563Y-17596555D01*
X10893563Y-17596555D02*
X10884039Y-17577508D01*
X10884039Y-17577508D02*
X10864992Y-17548936D01*
X10864992Y-17548936D02*
X10855468Y-17539412D01*
X3689211Y-18067211D02*
X3689211Y-17925789D01*
X3547789Y-17925789D01*
X3547789Y-18067211D01*
X3689211Y-18067211D01*
X3960229Y-17887984D02*
X4084039Y-17887984D01*
X4084039Y-17887984D02*
X4017372Y-17964174D01*
X4017372Y-17964174D02*
X4045943Y-17964174D01*
X4045943Y-17964174D02*
X4064991Y-17973698D01*
X4064991Y-17973698D02*
X4074515Y-17983222D01*
X4074515Y-17983222D02*
X4084039Y-18002270D01*
X4084039Y-18002270D02*
X4084039Y-18049889D01*
X4084039Y-18049889D02*
X4074515Y-18068936D01*
X4074515Y-18068936D02*
X4064991Y-18078460D01*
X4064991Y-18078460D02*
X4045943Y-18087984D01*
X4045943Y-18087984D02*
X3988801Y-18087984D01*
X3988801Y-18087984D02*
X3969753Y-18078460D01*
X3969753Y-18078460D02*
X3960229Y-18068936D01*
X4169753Y-18068936D02*
X4179277Y-18078460D01*
X4179277Y-18078460D02*
X4169753Y-18087984D01*
X4169753Y-18087984D02*
X4160229Y-18078460D01*
X4160229Y-18078460D02*
X4169753Y-18068936D01*
X4169753Y-18068936D02*
X4169753Y-18087984D01*
X4303086Y-17887984D02*
X4322134Y-17887984D01*
X4322134Y-17887984D02*
X4341182Y-17897508D01*
X4341182Y-17897508D02*
X4350705Y-17907031D01*
X4350705Y-17907031D02*
X4360229Y-17926079D01*
X4360229Y-17926079D02*
X4369753Y-17964174D01*
X4369753Y-17964174D02*
X4369753Y-18011793D01*
X4369753Y-18011793D02*
X4360229Y-18049889D01*
X4360229Y-18049889D02*
X4350705Y-18068936D01*
X4350705Y-18068936D02*
X4341182Y-18078460D01*
X4341182Y-18078460D02*
X4322134Y-18087984D01*
X4322134Y-18087984D02*
X4303086Y-18087984D01*
X4303086Y-18087984D02*
X4284039Y-18078460D01*
X4284039Y-18078460D02*
X4274515Y-18068936D01*
X4274515Y-18068936D02*
X4264991Y-18049889D01*
X4264991Y-18049889D02*
X4255467Y-18011793D01*
X4255467Y-18011793D02*
X4255467Y-17964174D01*
X4255467Y-17964174D02*
X4264991Y-17926079D01*
X4264991Y-17926079D02*
X4274515Y-17907031D01*
X4274515Y-17907031D02*
X4284039Y-17897508D01*
X4284039Y-17897508D02*
X4303086Y-17887984D01*
X4541182Y-17954650D02*
X4541182Y-18087984D01*
X4493563Y-17878460D02*
X4445944Y-18021317D01*
X4445944Y-18021317D02*
X4569753Y-18021317D01*
X4674515Y-17973698D02*
X4655467Y-17964174D01*
X4655467Y-17964174D02*
X4645944Y-17954650D01*
X4645944Y-17954650D02*
X4636420Y-17935603D01*
X4636420Y-17935603D02*
X4636420Y-17926079D01*
X4636420Y-17926079D02*
X4645944Y-17907031D01*
X4645944Y-17907031D02*
X4655467Y-17897508D01*
X4655467Y-17897508D02*
X4674515Y-17887984D01*
X4674515Y-17887984D02*
X4712610Y-17887984D01*
X4712610Y-17887984D02*
X4731658Y-17897508D01*
X4731658Y-17897508D02*
X4741182Y-17907031D01*
X4741182Y-17907031D02*
X4750705Y-17926079D01*
X4750705Y-17926079D02*
X4750705Y-17935603D01*
X4750705Y-17935603D02*
X4741182Y-17954650D01*
X4741182Y-17954650D02*
X4731658Y-17964174D01*
X4731658Y-17964174D02*
X4712610Y-17973698D01*
X4712610Y-17973698D02*
X4674515Y-17973698D01*
X4674515Y-17973698D02*
X4655467Y-17983222D01*
X4655467Y-17983222D02*
X4645944Y-17992746D01*
X4645944Y-17992746D02*
X4636420Y-18011793D01*
X4636420Y-18011793D02*
X4636420Y-18049889D01*
X4636420Y-18049889D02*
X4645944Y-18068936D01*
X4645944Y-18068936D02*
X4655467Y-18078460D01*
X4655467Y-18078460D02*
X4674515Y-18087984D01*
X4674515Y-18087984D02*
X4712610Y-18087984D01*
X4712610Y-18087984D02*
X4731658Y-18078460D01*
X4731658Y-18078460D02*
X4741182Y-18068936D01*
X4741182Y-18068936D02*
X4750705Y-18049889D01*
X4750705Y-18049889D02*
X4750705Y-18011793D01*
X4750705Y-18011793D02*
X4741182Y-17992746D01*
X4741182Y-17992746D02*
X4731658Y-17983222D01*
X4731658Y-17983222D02*
X4712610Y-17973698D01*
X4836420Y-18087984D02*
X4836420Y-17954650D01*
X4836420Y-17973698D02*
X4845944Y-17964174D01*
X4845944Y-17964174D02*
X4864991Y-17954650D01*
X4864991Y-17954650D02*
X4893563Y-17954650D01*
X4893563Y-17954650D02*
X4912610Y-17964174D01*
X4912610Y-17964174D02*
X4922134Y-17983222D01*
X4922134Y-17983222D02*
X4922134Y-18087984D01*
X4922134Y-17983222D02*
X4931658Y-17964174D01*
X4931658Y-17964174D02*
X4950705Y-17954650D01*
X4950705Y-17954650D02*
X4979277Y-17954650D01*
X4979277Y-17954650D02*
X4998325Y-17964174D01*
X4998325Y-17964174D02*
X5007848Y-17983222D01*
X5007848Y-17983222D02*
X5007848Y-18087984D01*
X5103086Y-18087984D02*
X5103086Y-17954650D01*
X5103086Y-17973698D02*
X5112610Y-17964174D01*
X5112610Y-17964174D02*
X5131658Y-17954650D01*
X5131658Y-17954650D02*
X5160229Y-17954650D01*
X5160229Y-17954650D02*
X5179277Y-17964174D01*
X5179277Y-17964174D02*
X5188801Y-17983222D01*
X5188801Y-17983222D02*
X5188801Y-18087984D01*
X5188801Y-17983222D02*
X5198325Y-17964174D01*
X5198325Y-17964174D02*
X5217372Y-17954650D01*
X5217372Y-17954650D02*
X5245944Y-17954650D01*
X5245944Y-17954650D02*
X5264991Y-17964174D01*
X5264991Y-17964174D02*
X5274515Y-17983222D01*
X5274515Y-17983222D02*
X5274515Y-18087984D01*
X5664991Y-17878460D02*
X5493563Y-18135603D01*
X5922134Y-17887984D02*
X5941182Y-17887984D01*
X5941182Y-17887984D02*
X5960229Y-17897508D01*
X5960229Y-17897508D02*
X5969753Y-17907031D01*
X5969753Y-17907031D02*
X5979277Y-17926079D01*
X5979277Y-17926079D02*
X5988801Y-17964174D01*
X5988801Y-17964174D02*
X5988801Y-18011793D01*
X5988801Y-18011793D02*
X5979277Y-18049889D01*
X5979277Y-18049889D02*
X5969753Y-18068936D01*
X5969753Y-18068936D02*
X5960229Y-18078460D01*
X5960229Y-18078460D02*
X5941182Y-18087984D01*
X5941182Y-18087984D02*
X5922134Y-18087984D01*
X5922134Y-18087984D02*
X5903086Y-18078460D01*
X5903086Y-18078460D02*
X5893563Y-18068936D01*
X5893563Y-18068936D02*
X5884039Y-18049889D01*
X5884039Y-18049889D02*
X5874515Y-18011793D01*
X5874515Y-18011793D02*
X5874515Y-17964174D01*
X5874515Y-17964174D02*
X5884039Y-17926079D01*
X5884039Y-17926079D02*
X5893563Y-17907031D01*
X5893563Y-17907031D02*
X5903086Y-17897508D01*
X5903086Y-17897508D02*
X5922134Y-17887984D01*
X6074515Y-18068936D02*
X6084039Y-18078460D01*
X6084039Y-18078460D02*
X6074515Y-18087984D01*
X6074515Y-18087984D02*
X6064991Y-18078460D01*
X6064991Y-18078460D02*
X6074515Y-18068936D01*
X6074515Y-18068936D02*
X6074515Y-18087984D01*
X6274515Y-18087984D02*
X6160229Y-18087984D01*
X6217372Y-18087984D02*
X6217372Y-17887984D01*
X6217372Y-17887984D02*
X6198325Y-17916555D01*
X6198325Y-17916555D02*
X6179277Y-17935603D01*
X6179277Y-17935603D02*
X6160229Y-17945127D01*
X6350706Y-17907031D02*
X6360229Y-17897508D01*
X6360229Y-17897508D02*
X6379277Y-17887984D01*
X6379277Y-17887984D02*
X6426896Y-17887984D01*
X6426896Y-17887984D02*
X6445944Y-17897508D01*
X6445944Y-17897508D02*
X6455467Y-17907031D01*
X6455467Y-17907031D02*
X6464991Y-17926079D01*
X6464991Y-17926079D02*
X6464991Y-17945127D01*
X6464991Y-17945127D02*
X6455467Y-17973698D01*
X6455467Y-17973698D02*
X6341182Y-18087984D01*
X6341182Y-18087984D02*
X6464991Y-18087984D01*
X6588801Y-17887984D02*
X6607848Y-17887984D01*
X6607848Y-17887984D02*
X6626896Y-17897508D01*
X6626896Y-17897508D02*
X6636420Y-17907031D01*
X6636420Y-17907031D02*
X6645944Y-17926079D01*
X6645944Y-17926079D02*
X6655467Y-17964174D01*
X6655467Y-17964174D02*
X6655467Y-18011793D01*
X6655467Y-18011793D02*
X6645944Y-18049889D01*
X6645944Y-18049889D02*
X6636420Y-18068936D01*
X6636420Y-18068936D02*
X6626896Y-18078460D01*
X6626896Y-18078460D02*
X6607848Y-18087984D01*
X6607848Y-18087984D02*
X6588801Y-18087984D01*
X6588801Y-18087984D02*
X6569753Y-18078460D01*
X6569753Y-18078460D02*
X6560229Y-18068936D01*
X6560229Y-18068936D02*
X6550706Y-18049889D01*
X6550706Y-18049889D02*
X6541182Y-18011793D01*
X6541182Y-18011793D02*
X6541182Y-17964174D01*
X6541182Y-17964174D02*
X6550706Y-17926079D01*
X6550706Y-17926079D02*
X6560229Y-17907031D01*
X6560229Y-17907031D02*
X6569753Y-17897508D01*
X6569753Y-17897508D02*
X6588801Y-17887984D01*
X6779277Y-17887984D02*
X6798325Y-17887984D01*
X6798325Y-17887984D02*
X6817372Y-17897508D01*
X6817372Y-17897508D02*
X6826896Y-17907031D01*
X6826896Y-17907031D02*
X6836420Y-17926079D01*
X6836420Y-17926079D02*
X6845944Y-17964174D01*
X6845944Y-17964174D02*
X6845944Y-18011793D01*
X6845944Y-18011793D02*
X6836420Y-18049889D01*
X6836420Y-18049889D02*
X6826896Y-18068936D01*
X6826896Y-18068936D02*
X6817372Y-18078460D01*
X6817372Y-18078460D02*
X6798325Y-18087984D01*
X6798325Y-18087984D02*
X6779277Y-18087984D01*
X6779277Y-18087984D02*
X6760229Y-18078460D01*
X6760229Y-18078460D02*
X6750706Y-18068936D01*
X6750706Y-18068936D02*
X6741182Y-18049889D01*
X6741182Y-18049889D02*
X6731658Y-18011793D01*
X6731658Y-18011793D02*
X6731658Y-17964174D01*
X6731658Y-17964174D02*
X6741182Y-17926079D01*
X6741182Y-17926079D02*
X6750706Y-17907031D01*
X6750706Y-17907031D02*
X6760229Y-17897508D01*
X6760229Y-17897508D02*
X6779277Y-17887984D01*
X6922134Y-17887984D02*
X6922134Y-17926079D01*
X6998325Y-17887984D02*
X6998325Y-17926079D01*
X7293563Y-18164174D02*
X7284039Y-18154650D01*
X7284039Y-18154650D02*
X7264991Y-18126079D01*
X7264991Y-18126079D02*
X7255468Y-18107031D01*
X7255468Y-18107031D02*
X7245944Y-18078460D01*
X7245944Y-18078460D02*
X7236420Y-18030841D01*
X7236420Y-18030841D02*
X7236420Y-17992746D01*
X7236420Y-17992746D02*
X7245944Y-17945127D01*
X7245944Y-17945127D02*
X7255468Y-17916555D01*
X7255468Y-17916555D02*
X7264991Y-17897508D01*
X7264991Y-17897508D02*
X7284039Y-17868936D01*
X7284039Y-17868936D02*
X7293563Y-17859412D01*
X7398325Y-17973698D02*
X7379277Y-17964174D01*
X7379277Y-17964174D02*
X7369753Y-17954650D01*
X7369753Y-17954650D02*
X7360229Y-17935603D01*
X7360229Y-17935603D02*
X7360229Y-17926079D01*
X7360229Y-17926079D02*
X7369753Y-17907031D01*
X7369753Y-17907031D02*
X7379277Y-17897508D01*
X7379277Y-17897508D02*
X7398325Y-17887984D01*
X7398325Y-17887984D02*
X7436420Y-17887984D01*
X7436420Y-17887984D02*
X7455468Y-17897508D01*
X7455468Y-17897508D02*
X7464991Y-17907031D01*
X7464991Y-17907031D02*
X7474515Y-17926079D01*
X7474515Y-17926079D02*
X7474515Y-17935603D01*
X7474515Y-17935603D02*
X7464991Y-17954650D01*
X7464991Y-17954650D02*
X7455468Y-17964174D01*
X7455468Y-17964174D02*
X7436420Y-17973698D01*
X7436420Y-17973698D02*
X7398325Y-17973698D01*
X7398325Y-17973698D02*
X7379277Y-17983222D01*
X7379277Y-17983222D02*
X7369753Y-17992746D01*
X7369753Y-17992746D02*
X7360229Y-18011793D01*
X7360229Y-18011793D02*
X7360229Y-18049889D01*
X7360229Y-18049889D02*
X7369753Y-18068936D01*
X7369753Y-18068936D02*
X7379277Y-18078460D01*
X7379277Y-18078460D02*
X7398325Y-18087984D01*
X7398325Y-18087984D02*
X7436420Y-18087984D01*
X7436420Y-18087984D02*
X7455468Y-18078460D01*
X7455468Y-18078460D02*
X7464991Y-18068936D01*
X7464991Y-18068936D02*
X7474515Y-18049889D01*
X7474515Y-18049889D02*
X7474515Y-18011793D01*
X7474515Y-18011793D02*
X7464991Y-17992746D01*
X7464991Y-17992746D02*
X7455468Y-17983222D01*
X7455468Y-17983222D02*
X7436420Y-17973698D01*
X7712610Y-18087984D02*
X7712610Y-17887984D01*
X7798325Y-18087984D02*
X7798325Y-17983222D01*
X7798325Y-17983222D02*
X7788801Y-17964174D01*
X7788801Y-17964174D02*
X7769753Y-17954650D01*
X7769753Y-17954650D02*
X7741182Y-17954650D01*
X7741182Y-17954650D02*
X7722134Y-17964174D01*
X7722134Y-17964174D02*
X7712610Y-17973698D01*
X7922134Y-18087984D02*
X7903087Y-18078460D01*
X7903087Y-18078460D02*
X7893563Y-18068936D01*
X7893563Y-18068936D02*
X7884039Y-18049889D01*
X7884039Y-18049889D02*
X7884039Y-17992746D01*
X7884039Y-17992746D02*
X7893563Y-17973698D01*
X7893563Y-17973698D02*
X7903087Y-17964174D01*
X7903087Y-17964174D02*
X7922134Y-17954650D01*
X7922134Y-17954650D02*
X7950706Y-17954650D01*
X7950706Y-17954650D02*
X7969753Y-17964174D01*
X7969753Y-17964174D02*
X7979277Y-17973698D01*
X7979277Y-17973698D02*
X7988801Y-17992746D01*
X7988801Y-17992746D02*
X7988801Y-18049889D01*
X7988801Y-18049889D02*
X7979277Y-18068936D01*
X7979277Y-18068936D02*
X7969753Y-18078460D01*
X7969753Y-18078460D02*
X7950706Y-18087984D01*
X7950706Y-18087984D02*
X7922134Y-18087984D01*
X8103087Y-18087984D02*
X8084039Y-18078460D01*
X8084039Y-18078460D02*
X8074515Y-18059412D01*
X8074515Y-18059412D02*
X8074515Y-17887984D01*
X8255468Y-18078460D02*
X8236420Y-18087984D01*
X8236420Y-18087984D02*
X8198325Y-18087984D01*
X8198325Y-18087984D02*
X8179277Y-18078460D01*
X8179277Y-18078460D02*
X8169753Y-18059412D01*
X8169753Y-18059412D02*
X8169753Y-17983222D01*
X8169753Y-17983222D02*
X8179277Y-17964174D01*
X8179277Y-17964174D02*
X8198325Y-17954650D01*
X8198325Y-17954650D02*
X8236420Y-17954650D01*
X8236420Y-17954650D02*
X8255468Y-17964174D01*
X8255468Y-17964174D02*
X8264991Y-17983222D01*
X8264991Y-17983222D02*
X8264991Y-18002270D01*
X8264991Y-18002270D02*
X8169753Y-18021317D01*
X8341182Y-18078460D02*
X8360230Y-18087984D01*
X8360230Y-18087984D02*
X8398325Y-18087984D01*
X8398325Y-18087984D02*
X8417373Y-18078460D01*
X8417373Y-18078460D02*
X8426896Y-18059412D01*
X8426896Y-18059412D02*
X8426896Y-18049889D01*
X8426896Y-18049889D02*
X8417373Y-18030841D01*
X8417373Y-18030841D02*
X8398325Y-18021317D01*
X8398325Y-18021317D02*
X8369753Y-18021317D01*
X8369753Y-18021317D02*
X8350706Y-18011793D01*
X8350706Y-18011793D02*
X8341182Y-17992746D01*
X8341182Y-17992746D02*
X8341182Y-17983222D01*
X8341182Y-17983222D02*
X8350706Y-17964174D01*
X8350706Y-17964174D02*
X8369753Y-17954650D01*
X8369753Y-17954650D02*
X8398325Y-17954650D01*
X8398325Y-17954650D02*
X8417373Y-17964174D01*
X8493563Y-18164174D02*
X8503087Y-18154650D01*
X8503087Y-18154650D02*
X8522134Y-18126079D01*
X8522134Y-18126079D02*
X8531658Y-18107031D01*
X8531658Y-18107031D02*
X8541182Y-18078460D01*
X8541182Y-18078460D02*
X8550706Y-18030841D01*
X8550706Y-18030841D02*
X8550706Y-17992746D01*
X8550706Y-17992746D02*
X8541182Y-17945127D01*
X8541182Y-17945127D02*
X8531658Y-17916555D01*
X8531658Y-17916555D02*
X8522134Y-17897508D01*
X8522134Y-17897508D02*
X8503087Y-17868936D01*
X8503087Y-17868936D02*
X8493563Y-17859412D01*
X8855468Y-18164174D02*
X8845944Y-18154650D01*
X8845944Y-18154650D02*
X8826896Y-18126079D01*
X8826896Y-18126079D02*
X8817373Y-18107031D01*
X8817373Y-18107031D02*
X8807849Y-18078460D01*
X8807849Y-18078460D02*
X8798325Y-18030841D01*
X8798325Y-18030841D02*
X8798325Y-17992746D01*
X8798325Y-17992746D02*
X8807849Y-17945127D01*
X8807849Y-17945127D02*
X8817373Y-17916555D01*
X8817373Y-17916555D02*
X8826896Y-17897508D01*
X8826896Y-17897508D02*
X8845944Y-17868936D01*
X8845944Y-17868936D02*
X8855468Y-17859412D01*
X8931658Y-17954650D02*
X8931658Y-18087984D01*
X8931658Y-17973698D02*
X8941182Y-17964174D01*
X8941182Y-17964174D02*
X8960230Y-17954650D01*
X8960230Y-17954650D02*
X8988801Y-17954650D01*
X8988801Y-17954650D02*
X9007849Y-17964174D01*
X9007849Y-17964174D02*
X9017373Y-17983222D01*
X9017373Y-17983222D02*
X9017373Y-18087984D01*
X9141182Y-18087984D02*
X9122134Y-18078460D01*
X9122134Y-18078460D02*
X9112611Y-18068936D01*
X9112611Y-18068936D02*
X9103087Y-18049889D01*
X9103087Y-18049889D02*
X9103087Y-17992746D01*
X9103087Y-17992746D02*
X9112611Y-17973698D01*
X9112611Y-17973698D02*
X9122134Y-17964174D01*
X9122134Y-17964174D02*
X9141182Y-17954650D01*
X9141182Y-17954650D02*
X9169754Y-17954650D01*
X9169754Y-17954650D02*
X9188801Y-17964174D01*
X9188801Y-17964174D02*
X9198325Y-17973698D01*
X9198325Y-17973698D02*
X9207849Y-17992746D01*
X9207849Y-17992746D02*
X9207849Y-18049889D01*
X9207849Y-18049889D02*
X9198325Y-18068936D01*
X9198325Y-18068936D02*
X9188801Y-18078460D01*
X9188801Y-18078460D02*
X9169754Y-18087984D01*
X9169754Y-18087984D02*
X9141182Y-18087984D01*
X9264992Y-17954650D02*
X9341182Y-17954650D01*
X9293563Y-17887984D02*
X9293563Y-18059412D01*
X9293563Y-18059412D02*
X9303087Y-18078460D01*
X9303087Y-18078460D02*
X9322134Y-18087984D01*
X9322134Y-18087984D02*
X9341182Y-18087984D01*
X9560230Y-17954650D02*
X9560230Y-18154650D01*
X9560230Y-17964174D02*
X9579277Y-17954650D01*
X9579277Y-17954650D02*
X9617373Y-17954650D01*
X9617373Y-17954650D02*
X9636420Y-17964174D01*
X9636420Y-17964174D02*
X9645944Y-17973698D01*
X9645944Y-17973698D02*
X9655468Y-17992746D01*
X9655468Y-17992746D02*
X9655468Y-18049889D01*
X9655468Y-18049889D02*
X9645944Y-18068936D01*
X9645944Y-18068936D02*
X9636420Y-18078460D01*
X9636420Y-18078460D02*
X9617373Y-18087984D01*
X9617373Y-18087984D02*
X9579277Y-18087984D01*
X9579277Y-18087984D02*
X9560230Y-18078460D01*
X9769754Y-18087984D02*
X9750706Y-18078460D01*
X9750706Y-18078460D02*
X9741182Y-18059412D01*
X9741182Y-18059412D02*
X9741182Y-17887984D01*
X9931658Y-18087984D02*
X9931658Y-17983222D01*
X9931658Y-17983222D02*
X9922135Y-17964174D01*
X9922135Y-17964174D02*
X9903087Y-17954650D01*
X9903087Y-17954650D02*
X9864992Y-17954650D01*
X9864992Y-17954650D02*
X9845944Y-17964174D01*
X9931658Y-18078460D02*
X9912611Y-18087984D01*
X9912611Y-18087984D02*
X9864992Y-18087984D01*
X9864992Y-18087984D02*
X9845944Y-18078460D01*
X9845944Y-18078460D02*
X9836420Y-18059412D01*
X9836420Y-18059412D02*
X9836420Y-18040365D01*
X9836420Y-18040365D02*
X9845944Y-18021317D01*
X9845944Y-18021317D02*
X9864992Y-18011793D01*
X9864992Y-18011793D02*
X9912611Y-18011793D01*
X9912611Y-18011793D02*
X9931658Y-18002270D01*
X9998325Y-17954650D02*
X10074515Y-17954650D01*
X10026896Y-17887984D02*
X10026896Y-18059412D01*
X10026896Y-18059412D02*
X10036420Y-18078460D01*
X10036420Y-18078460D02*
X10055468Y-18087984D01*
X10055468Y-18087984D02*
X10074515Y-18087984D01*
X10217373Y-18078460D02*
X10198325Y-18087984D01*
X10198325Y-18087984D02*
X10160230Y-18087984D01*
X10160230Y-18087984D02*
X10141182Y-18078460D01*
X10141182Y-18078460D02*
X10131658Y-18059412D01*
X10131658Y-18059412D02*
X10131658Y-17983222D01*
X10131658Y-17983222D02*
X10141182Y-17964174D01*
X10141182Y-17964174D02*
X10160230Y-17954650D01*
X10160230Y-17954650D02*
X10198325Y-17954650D01*
X10198325Y-17954650D02*
X10217373Y-17964174D01*
X10217373Y-17964174D02*
X10226896Y-17983222D01*
X10226896Y-17983222D02*
X10226896Y-18002270D01*
X10226896Y-18002270D02*
X10131658Y-18021317D01*
X10398325Y-18087984D02*
X10398325Y-17887984D01*
X10398325Y-18078460D02*
X10379277Y-18087984D01*
X10379277Y-18087984D02*
X10341182Y-18087984D01*
X10341182Y-18087984D02*
X10322135Y-18078460D01*
X10322135Y-18078460D02*
X10312611Y-18068936D01*
X10312611Y-18068936D02*
X10303087Y-18049889D01*
X10303087Y-18049889D02*
X10303087Y-17992746D01*
X10303087Y-17992746D02*
X10312611Y-17973698D01*
X10312611Y-17973698D02*
X10322135Y-17964174D01*
X10322135Y-17964174D02*
X10341182Y-17954650D01*
X10341182Y-17954650D02*
X10379277Y-17954650D01*
X10379277Y-17954650D02*
X10398325Y-17964174D01*
X10474516Y-18164174D02*
X10484039Y-18154650D01*
X10484039Y-18154650D02*
X10503087Y-18126079D01*
X10503087Y-18126079D02*
X10512611Y-18107031D01*
X10512611Y-18107031D02*
X10522135Y-18078460D01*
X10522135Y-18078460D02*
X10531658Y-18030841D01*
X10531658Y-18030841D02*
X10531658Y-17992746D01*
X10531658Y-17992746D02*
X10522135Y-17945127D01*
X10522135Y-17945127D02*
X10512611Y-17916555D01*
X10512611Y-17916555D02*
X10503087Y-17897508D01*
X10503087Y-17897508D02*
X10484039Y-17868936D01*
X10484039Y-17868936D02*
X10474516Y-17859412D01*
X3618500Y-18416500D02*
X3718500Y-18316500D01*
X3618500Y-18216500D01*
X3518500Y-18316500D01*
X3618500Y-18416500D01*
X3960229Y-18207984D02*
X4084039Y-18207984D01*
X4084039Y-18207984D02*
X4017372Y-18284174D01*
X4017372Y-18284174D02*
X4045943Y-18284174D01*
X4045943Y-18284174D02*
X4064991Y-18293698D01*
X4064991Y-18293698D02*
X4074515Y-18303222D01*
X4074515Y-18303222D02*
X4084039Y-18322270D01*
X4084039Y-18322270D02*
X4084039Y-18369889D01*
X4084039Y-18369889D02*
X4074515Y-18388936D01*
X4074515Y-18388936D02*
X4064991Y-18398460D01*
X4064991Y-18398460D02*
X4045943Y-18407984D01*
X4045943Y-18407984D02*
X3988801Y-18407984D01*
X3988801Y-18407984D02*
X3969753Y-18398460D01*
X3969753Y-18398460D02*
X3960229Y-18388936D01*
X4169753Y-18388936D02*
X4179277Y-18398460D01*
X4179277Y-18398460D02*
X4169753Y-18407984D01*
X4169753Y-18407984D02*
X4160229Y-18398460D01*
X4160229Y-18398460D02*
X4169753Y-18388936D01*
X4169753Y-18388936D02*
X4169753Y-18407984D01*
X4274515Y-18407984D02*
X4312610Y-18407984D01*
X4312610Y-18407984D02*
X4331658Y-18398460D01*
X4331658Y-18398460D02*
X4341182Y-18388936D01*
X4341182Y-18388936D02*
X4360229Y-18360365D01*
X4360229Y-18360365D02*
X4369753Y-18322270D01*
X4369753Y-18322270D02*
X4369753Y-18246079D01*
X4369753Y-18246079D02*
X4360229Y-18227031D01*
X4360229Y-18227031D02*
X4350705Y-18217508D01*
X4350705Y-18217508D02*
X4331658Y-18207984D01*
X4331658Y-18207984D02*
X4293563Y-18207984D01*
X4293563Y-18207984D02*
X4274515Y-18217508D01*
X4274515Y-18217508D02*
X4264991Y-18227031D01*
X4264991Y-18227031D02*
X4255467Y-18246079D01*
X4255467Y-18246079D02*
X4255467Y-18293698D01*
X4255467Y-18293698D02*
X4264991Y-18312746D01*
X4264991Y-18312746D02*
X4274515Y-18322270D01*
X4274515Y-18322270D02*
X4293563Y-18331793D01*
X4293563Y-18331793D02*
X4331658Y-18331793D01*
X4331658Y-18331793D02*
X4350705Y-18322270D01*
X4350705Y-18322270D02*
X4360229Y-18312746D01*
X4360229Y-18312746D02*
X4369753Y-18293698D01*
X4484039Y-18293698D02*
X4464991Y-18284174D01*
X4464991Y-18284174D02*
X4455467Y-18274650D01*
X4455467Y-18274650D02*
X4445944Y-18255603D01*
X4445944Y-18255603D02*
X4445944Y-18246079D01*
X4445944Y-18246079D02*
X4455467Y-18227031D01*
X4455467Y-18227031D02*
X4464991Y-18217508D01*
X4464991Y-18217508D02*
X4484039Y-18207984D01*
X4484039Y-18207984D02*
X4522134Y-18207984D01*
X4522134Y-18207984D02*
X4541182Y-18217508D01*
X4541182Y-18217508D02*
X4550705Y-18227031D01*
X4550705Y-18227031D02*
X4560229Y-18246079D01*
X4560229Y-18246079D02*
X4560229Y-18255603D01*
X4560229Y-18255603D02*
X4550705Y-18274650D01*
X4550705Y-18274650D02*
X4541182Y-18284174D01*
X4541182Y-18284174D02*
X4522134Y-18293698D01*
X4522134Y-18293698D02*
X4484039Y-18293698D01*
X4484039Y-18293698D02*
X4464991Y-18303222D01*
X4464991Y-18303222D02*
X4455467Y-18312746D01*
X4455467Y-18312746D02*
X4445944Y-18331793D01*
X4445944Y-18331793D02*
X4445944Y-18369889D01*
X4445944Y-18369889D02*
X4455467Y-18388936D01*
X4455467Y-18388936D02*
X4464991Y-18398460D01*
X4464991Y-18398460D02*
X4484039Y-18407984D01*
X4484039Y-18407984D02*
X4522134Y-18407984D01*
X4522134Y-18407984D02*
X4541182Y-18398460D01*
X4541182Y-18398460D02*
X4550705Y-18388936D01*
X4550705Y-18388936D02*
X4560229Y-18369889D01*
X4560229Y-18369889D02*
X4560229Y-18331793D01*
X4560229Y-18331793D02*
X4550705Y-18312746D01*
X4550705Y-18312746D02*
X4541182Y-18303222D01*
X4541182Y-18303222D02*
X4522134Y-18293698D01*
X4674515Y-18293698D02*
X4655467Y-18284174D01*
X4655467Y-18284174D02*
X4645944Y-18274650D01*
X4645944Y-18274650D02*
X4636420Y-18255603D01*
X4636420Y-18255603D02*
X4636420Y-18246079D01*
X4636420Y-18246079D02*
X4645944Y-18227031D01*
X4645944Y-18227031D02*
X4655467Y-18217508D01*
X4655467Y-18217508D02*
X4674515Y-18207984D01*
X4674515Y-18207984D02*
X4712610Y-18207984D01*
X4712610Y-18207984D02*
X4731658Y-18217508D01*
X4731658Y-18217508D02*
X4741182Y-18227031D01*
X4741182Y-18227031D02*
X4750705Y-18246079D01*
X4750705Y-18246079D02*
X4750705Y-18255603D01*
X4750705Y-18255603D02*
X4741182Y-18274650D01*
X4741182Y-18274650D02*
X4731658Y-18284174D01*
X4731658Y-18284174D02*
X4712610Y-18293698D01*
X4712610Y-18293698D02*
X4674515Y-18293698D01*
X4674515Y-18293698D02*
X4655467Y-18303222D01*
X4655467Y-18303222D02*
X4645944Y-18312746D01*
X4645944Y-18312746D02*
X4636420Y-18331793D01*
X4636420Y-18331793D02*
X4636420Y-18369889D01*
X4636420Y-18369889D02*
X4645944Y-18388936D01*
X4645944Y-18388936D02*
X4655467Y-18398460D01*
X4655467Y-18398460D02*
X4674515Y-18407984D01*
X4674515Y-18407984D02*
X4712610Y-18407984D01*
X4712610Y-18407984D02*
X4731658Y-18398460D01*
X4731658Y-18398460D02*
X4741182Y-18388936D01*
X4741182Y-18388936D02*
X4750705Y-18369889D01*
X4750705Y-18369889D02*
X4750705Y-18331793D01*
X4750705Y-18331793D02*
X4741182Y-18312746D01*
X4741182Y-18312746D02*
X4731658Y-18303222D01*
X4731658Y-18303222D02*
X4712610Y-18293698D01*
X4836420Y-18407984D02*
X4836420Y-18274650D01*
X4836420Y-18293698D02*
X4845944Y-18284174D01*
X4845944Y-18284174D02*
X4864991Y-18274650D01*
X4864991Y-18274650D02*
X4893563Y-18274650D01*
X4893563Y-18274650D02*
X4912610Y-18284174D01*
X4912610Y-18284174D02*
X4922134Y-18303222D01*
X4922134Y-18303222D02*
X4922134Y-18407984D01*
X4922134Y-18303222D02*
X4931658Y-18284174D01*
X4931658Y-18284174D02*
X4950705Y-18274650D01*
X4950705Y-18274650D02*
X4979277Y-18274650D01*
X4979277Y-18274650D02*
X4998325Y-18284174D01*
X4998325Y-18284174D02*
X5007848Y-18303222D01*
X5007848Y-18303222D02*
X5007848Y-18407984D01*
X5103086Y-18407984D02*
X5103086Y-18274650D01*
X5103086Y-18293698D02*
X5112610Y-18284174D01*
X5112610Y-18284174D02*
X5131658Y-18274650D01*
X5131658Y-18274650D02*
X5160229Y-18274650D01*
X5160229Y-18274650D02*
X5179277Y-18284174D01*
X5179277Y-18284174D02*
X5188801Y-18303222D01*
X5188801Y-18303222D02*
X5188801Y-18407984D01*
X5188801Y-18303222D02*
X5198325Y-18284174D01*
X5198325Y-18284174D02*
X5217372Y-18274650D01*
X5217372Y-18274650D02*
X5245944Y-18274650D01*
X5245944Y-18274650D02*
X5264991Y-18284174D01*
X5264991Y-18284174D02*
X5274515Y-18303222D01*
X5274515Y-18303222D02*
X5274515Y-18407984D01*
X5664991Y-18198460D02*
X5493563Y-18455603D01*
X5922134Y-18207984D02*
X5941182Y-18207984D01*
X5941182Y-18207984D02*
X5960229Y-18217508D01*
X5960229Y-18217508D02*
X5969753Y-18227031D01*
X5969753Y-18227031D02*
X5979277Y-18246079D01*
X5979277Y-18246079D02*
X5988801Y-18284174D01*
X5988801Y-18284174D02*
X5988801Y-18331793D01*
X5988801Y-18331793D02*
X5979277Y-18369889D01*
X5979277Y-18369889D02*
X5969753Y-18388936D01*
X5969753Y-18388936D02*
X5960229Y-18398460D01*
X5960229Y-18398460D02*
X5941182Y-18407984D01*
X5941182Y-18407984D02*
X5922134Y-18407984D01*
X5922134Y-18407984D02*
X5903086Y-18398460D01*
X5903086Y-18398460D02*
X5893563Y-18388936D01*
X5893563Y-18388936D02*
X5884039Y-18369889D01*
X5884039Y-18369889D02*
X5874515Y-18331793D01*
X5874515Y-18331793D02*
X5874515Y-18284174D01*
X5874515Y-18284174D02*
X5884039Y-18246079D01*
X5884039Y-18246079D02*
X5893563Y-18227031D01*
X5893563Y-18227031D02*
X5903086Y-18217508D01*
X5903086Y-18217508D02*
X5922134Y-18207984D01*
X6074515Y-18388936D02*
X6084039Y-18398460D01*
X6084039Y-18398460D02*
X6074515Y-18407984D01*
X6074515Y-18407984D02*
X6064991Y-18398460D01*
X6064991Y-18398460D02*
X6074515Y-18388936D01*
X6074515Y-18388936D02*
X6074515Y-18407984D01*
X6274515Y-18407984D02*
X6160229Y-18407984D01*
X6217372Y-18407984D02*
X6217372Y-18207984D01*
X6217372Y-18207984D02*
X6198325Y-18236555D01*
X6198325Y-18236555D02*
X6179277Y-18255603D01*
X6179277Y-18255603D02*
X6160229Y-18265127D01*
X6455467Y-18207984D02*
X6360229Y-18207984D01*
X6360229Y-18207984D02*
X6350706Y-18303222D01*
X6350706Y-18303222D02*
X6360229Y-18293698D01*
X6360229Y-18293698D02*
X6379277Y-18284174D01*
X6379277Y-18284174D02*
X6426896Y-18284174D01*
X6426896Y-18284174D02*
X6445944Y-18293698D01*
X6445944Y-18293698D02*
X6455467Y-18303222D01*
X6455467Y-18303222D02*
X6464991Y-18322270D01*
X6464991Y-18322270D02*
X6464991Y-18369889D01*
X6464991Y-18369889D02*
X6455467Y-18388936D01*
X6455467Y-18388936D02*
X6445944Y-18398460D01*
X6445944Y-18398460D02*
X6426896Y-18407984D01*
X6426896Y-18407984D02*
X6379277Y-18407984D01*
X6379277Y-18407984D02*
X6360229Y-18398460D01*
X6360229Y-18398460D02*
X6350706Y-18388936D01*
X6531658Y-18207984D02*
X6664991Y-18207984D01*
X6664991Y-18207984D02*
X6579277Y-18407984D01*
X6779277Y-18207984D02*
X6798325Y-18207984D01*
X6798325Y-18207984D02*
X6817372Y-18217508D01*
X6817372Y-18217508D02*
X6826896Y-18227031D01*
X6826896Y-18227031D02*
X6836420Y-18246079D01*
X6836420Y-18246079D02*
X6845944Y-18284174D01*
X6845944Y-18284174D02*
X6845944Y-18331793D01*
X6845944Y-18331793D02*
X6836420Y-18369889D01*
X6836420Y-18369889D02*
X6826896Y-18388936D01*
X6826896Y-18388936D02*
X6817372Y-18398460D01*
X6817372Y-18398460D02*
X6798325Y-18407984D01*
X6798325Y-18407984D02*
X6779277Y-18407984D01*
X6779277Y-18407984D02*
X6760229Y-18398460D01*
X6760229Y-18398460D02*
X6750706Y-18388936D01*
X6750706Y-18388936D02*
X6741182Y-18369889D01*
X6741182Y-18369889D02*
X6731658Y-18331793D01*
X6731658Y-18331793D02*
X6731658Y-18284174D01*
X6731658Y-18284174D02*
X6741182Y-18246079D01*
X6741182Y-18246079D02*
X6750706Y-18227031D01*
X6750706Y-18227031D02*
X6760229Y-18217508D01*
X6760229Y-18217508D02*
X6779277Y-18207984D01*
X6922134Y-18207984D02*
X6922134Y-18246079D01*
X6998325Y-18207984D02*
X6998325Y-18246079D01*
X7293563Y-18484174D02*
X7284039Y-18474650D01*
X7284039Y-18474650D02*
X7264991Y-18446079D01*
X7264991Y-18446079D02*
X7255468Y-18427031D01*
X7255468Y-18427031D02*
X7245944Y-18398460D01*
X7245944Y-18398460D02*
X7236420Y-18350841D01*
X7236420Y-18350841D02*
X7236420Y-18312746D01*
X7236420Y-18312746D02*
X7245944Y-18265127D01*
X7245944Y-18265127D02*
X7255468Y-18236555D01*
X7255468Y-18236555D02*
X7264991Y-18217508D01*
X7264991Y-18217508D02*
X7284039Y-18188936D01*
X7284039Y-18188936D02*
X7293563Y-18179412D01*
X7398325Y-18293698D02*
X7379277Y-18284174D01*
X7379277Y-18284174D02*
X7369753Y-18274650D01*
X7369753Y-18274650D02*
X7360229Y-18255603D01*
X7360229Y-18255603D02*
X7360229Y-18246079D01*
X7360229Y-18246079D02*
X7369753Y-18227031D01*
X7369753Y-18227031D02*
X7379277Y-18217508D01*
X7379277Y-18217508D02*
X7398325Y-18207984D01*
X7398325Y-18207984D02*
X7436420Y-18207984D01*
X7436420Y-18207984D02*
X7455468Y-18217508D01*
X7455468Y-18217508D02*
X7464991Y-18227031D01*
X7464991Y-18227031D02*
X7474515Y-18246079D01*
X7474515Y-18246079D02*
X7474515Y-18255603D01*
X7474515Y-18255603D02*
X7464991Y-18274650D01*
X7464991Y-18274650D02*
X7455468Y-18284174D01*
X7455468Y-18284174D02*
X7436420Y-18293698D01*
X7436420Y-18293698D02*
X7398325Y-18293698D01*
X7398325Y-18293698D02*
X7379277Y-18303222D01*
X7379277Y-18303222D02*
X7369753Y-18312746D01*
X7369753Y-18312746D02*
X7360229Y-18331793D01*
X7360229Y-18331793D02*
X7360229Y-18369889D01*
X7360229Y-18369889D02*
X7369753Y-18388936D01*
X7369753Y-18388936D02*
X7379277Y-18398460D01*
X7379277Y-18398460D02*
X7398325Y-18407984D01*
X7398325Y-18407984D02*
X7436420Y-18407984D01*
X7436420Y-18407984D02*
X7455468Y-18398460D01*
X7455468Y-18398460D02*
X7464991Y-18388936D01*
X7464991Y-18388936D02*
X7474515Y-18369889D01*
X7474515Y-18369889D02*
X7474515Y-18331793D01*
X7474515Y-18331793D02*
X7464991Y-18312746D01*
X7464991Y-18312746D02*
X7455468Y-18303222D01*
X7455468Y-18303222D02*
X7436420Y-18293698D01*
X7569753Y-18407984D02*
X7607848Y-18407984D01*
X7607848Y-18407984D02*
X7626896Y-18398460D01*
X7626896Y-18398460D02*
X7636420Y-18388936D01*
X7636420Y-18388936D02*
X7655468Y-18360365D01*
X7655468Y-18360365D02*
X7664991Y-18322270D01*
X7664991Y-18322270D02*
X7664991Y-18246079D01*
X7664991Y-18246079D02*
X7655468Y-18227031D01*
X7655468Y-18227031D02*
X7645944Y-18217508D01*
X7645944Y-18217508D02*
X7626896Y-18207984D01*
X7626896Y-18207984D02*
X7588801Y-18207984D01*
X7588801Y-18207984D02*
X7569753Y-18217508D01*
X7569753Y-18217508D02*
X7560229Y-18227031D01*
X7560229Y-18227031D02*
X7550706Y-18246079D01*
X7550706Y-18246079D02*
X7550706Y-18293698D01*
X7550706Y-18293698D02*
X7560229Y-18312746D01*
X7560229Y-18312746D02*
X7569753Y-18322270D01*
X7569753Y-18322270D02*
X7588801Y-18331793D01*
X7588801Y-18331793D02*
X7626896Y-18331793D01*
X7626896Y-18331793D02*
X7645944Y-18322270D01*
X7645944Y-18322270D02*
X7655468Y-18312746D01*
X7655468Y-18312746D02*
X7664991Y-18293698D01*
X7903087Y-18407984D02*
X7903087Y-18207984D01*
X7988801Y-18407984D02*
X7988801Y-18303222D01*
X7988801Y-18303222D02*
X7979277Y-18284174D01*
X7979277Y-18284174D02*
X7960230Y-18274650D01*
X7960230Y-18274650D02*
X7931658Y-18274650D01*
X7931658Y-18274650D02*
X7912610Y-18284174D01*
X7912610Y-18284174D02*
X7903087Y-18293698D01*
X8112610Y-18407984D02*
X8093563Y-18398460D01*
X8093563Y-18398460D02*
X8084039Y-18388936D01*
X8084039Y-18388936D02*
X8074515Y-18369889D01*
X8074515Y-18369889D02*
X8074515Y-18312746D01*
X8074515Y-18312746D02*
X8084039Y-18293698D01*
X8084039Y-18293698D02*
X8093563Y-18284174D01*
X8093563Y-18284174D02*
X8112610Y-18274650D01*
X8112610Y-18274650D02*
X8141182Y-18274650D01*
X8141182Y-18274650D02*
X8160230Y-18284174D01*
X8160230Y-18284174D02*
X8169753Y-18293698D01*
X8169753Y-18293698D02*
X8179277Y-18312746D01*
X8179277Y-18312746D02*
X8179277Y-18369889D01*
X8179277Y-18369889D02*
X8169753Y-18388936D01*
X8169753Y-18388936D02*
X8160230Y-18398460D01*
X8160230Y-18398460D02*
X8141182Y-18407984D01*
X8141182Y-18407984D02*
X8112610Y-18407984D01*
X8293563Y-18407984D02*
X8274515Y-18398460D01*
X8274515Y-18398460D02*
X8264991Y-18379412D01*
X8264991Y-18379412D02*
X8264991Y-18207984D01*
X8445944Y-18398460D02*
X8426896Y-18407984D01*
X8426896Y-18407984D02*
X8388801Y-18407984D01*
X8388801Y-18407984D02*
X8369753Y-18398460D01*
X8369753Y-18398460D02*
X8360230Y-18379412D01*
X8360230Y-18379412D02*
X8360230Y-18303222D01*
X8360230Y-18303222D02*
X8369753Y-18284174D01*
X8369753Y-18284174D02*
X8388801Y-18274650D01*
X8388801Y-18274650D02*
X8426896Y-18274650D01*
X8426896Y-18274650D02*
X8445944Y-18284174D01*
X8445944Y-18284174D02*
X8455468Y-18303222D01*
X8455468Y-18303222D02*
X8455468Y-18322270D01*
X8455468Y-18322270D02*
X8360230Y-18341317D01*
X8531658Y-18398460D02*
X8550706Y-18407984D01*
X8550706Y-18407984D02*
X8588801Y-18407984D01*
X8588801Y-18407984D02*
X8607849Y-18398460D01*
X8607849Y-18398460D02*
X8617373Y-18379412D01*
X8617373Y-18379412D02*
X8617373Y-18369889D01*
X8617373Y-18369889D02*
X8607849Y-18350841D01*
X8607849Y-18350841D02*
X8588801Y-18341317D01*
X8588801Y-18341317D02*
X8560230Y-18341317D01*
X8560230Y-18341317D02*
X8541182Y-18331793D01*
X8541182Y-18331793D02*
X8531658Y-18312746D01*
X8531658Y-18312746D02*
X8531658Y-18303222D01*
X8531658Y-18303222D02*
X8541182Y-18284174D01*
X8541182Y-18284174D02*
X8560230Y-18274650D01*
X8560230Y-18274650D02*
X8588801Y-18274650D01*
X8588801Y-18274650D02*
X8607849Y-18284174D01*
X8684039Y-18484174D02*
X8693563Y-18474650D01*
X8693563Y-18474650D02*
X8712611Y-18446079D01*
X8712611Y-18446079D02*
X8722134Y-18427031D01*
X8722134Y-18427031D02*
X8731658Y-18398460D01*
X8731658Y-18398460D02*
X8741182Y-18350841D01*
X8741182Y-18350841D02*
X8741182Y-18312746D01*
X8741182Y-18312746D02*
X8731658Y-18265127D01*
X8731658Y-18265127D02*
X8722134Y-18236555D01*
X8722134Y-18236555D02*
X8712611Y-18217508D01*
X8712611Y-18217508D02*
X8693563Y-18188936D01*
X8693563Y-18188936D02*
X8684039Y-18179412D01*
X9045944Y-18484174D02*
X9036420Y-18474650D01*
X9036420Y-18474650D02*
X9017373Y-18446079D01*
X9017373Y-18446079D02*
X9007849Y-18427031D01*
X9007849Y-18427031D02*
X8998325Y-18398460D01*
X8998325Y-18398460D02*
X8988801Y-18350841D01*
X8988801Y-18350841D02*
X8988801Y-18312746D01*
X8988801Y-18312746D02*
X8998325Y-18265127D01*
X8998325Y-18265127D02*
X9007849Y-18236555D01*
X9007849Y-18236555D02*
X9017373Y-18217508D01*
X9017373Y-18217508D02*
X9036420Y-18188936D01*
X9036420Y-18188936D02*
X9045944Y-18179412D01*
X9122134Y-18274650D02*
X9122134Y-18407984D01*
X9122134Y-18293698D02*
X9131658Y-18284174D01*
X9131658Y-18284174D02*
X9150706Y-18274650D01*
X9150706Y-18274650D02*
X9179277Y-18274650D01*
X9179277Y-18274650D02*
X9198325Y-18284174D01*
X9198325Y-18284174D02*
X9207849Y-18303222D01*
X9207849Y-18303222D02*
X9207849Y-18407984D01*
X9331658Y-18407984D02*
X9312611Y-18398460D01*
X9312611Y-18398460D02*
X9303087Y-18388936D01*
X9303087Y-18388936D02*
X9293563Y-18369889D01*
X9293563Y-18369889D02*
X9293563Y-18312746D01*
X9293563Y-18312746D02*
X9303087Y-18293698D01*
X9303087Y-18293698D02*
X9312611Y-18284174D01*
X9312611Y-18284174D02*
X9331658Y-18274650D01*
X9331658Y-18274650D02*
X9360230Y-18274650D01*
X9360230Y-18274650D02*
X9379277Y-18284174D01*
X9379277Y-18284174D02*
X9388801Y-18293698D01*
X9388801Y-18293698D02*
X9398325Y-18312746D01*
X9398325Y-18312746D02*
X9398325Y-18369889D01*
X9398325Y-18369889D02*
X9388801Y-18388936D01*
X9388801Y-18388936D02*
X9379277Y-18398460D01*
X9379277Y-18398460D02*
X9360230Y-18407984D01*
X9360230Y-18407984D02*
X9331658Y-18407984D01*
X9455468Y-18274650D02*
X9531658Y-18274650D01*
X9484039Y-18207984D02*
X9484039Y-18379412D01*
X9484039Y-18379412D02*
X9493563Y-18398460D01*
X9493563Y-18398460D02*
X9512611Y-18407984D01*
X9512611Y-18407984D02*
X9531658Y-18407984D01*
X9750706Y-18274650D02*
X9750706Y-18474650D01*
X9750706Y-18284174D02*
X9769754Y-18274650D01*
X9769754Y-18274650D02*
X9807849Y-18274650D01*
X9807849Y-18274650D02*
X9826896Y-18284174D01*
X9826896Y-18284174D02*
X9836420Y-18293698D01*
X9836420Y-18293698D02*
X9845944Y-18312746D01*
X9845944Y-18312746D02*
X9845944Y-18369889D01*
X9845944Y-18369889D02*
X9836420Y-18388936D01*
X9836420Y-18388936D02*
X9826896Y-18398460D01*
X9826896Y-18398460D02*
X9807849Y-18407984D01*
X9807849Y-18407984D02*
X9769754Y-18407984D01*
X9769754Y-18407984D02*
X9750706Y-18398460D01*
X9960230Y-18407984D02*
X9941182Y-18398460D01*
X9941182Y-18398460D02*
X9931658Y-18379412D01*
X9931658Y-18379412D02*
X9931658Y-18207984D01*
X10122135Y-18407984D02*
X10122135Y-18303222D01*
X10122135Y-18303222D02*
X10112611Y-18284174D01*
X10112611Y-18284174D02*
X10093563Y-18274650D01*
X10093563Y-18274650D02*
X10055468Y-18274650D01*
X10055468Y-18274650D02*
X10036420Y-18284174D01*
X10122135Y-18398460D02*
X10103087Y-18407984D01*
X10103087Y-18407984D02*
X10055468Y-18407984D01*
X10055468Y-18407984D02*
X10036420Y-18398460D01*
X10036420Y-18398460D02*
X10026896Y-18379412D01*
X10026896Y-18379412D02*
X10026896Y-18360365D01*
X10026896Y-18360365D02*
X10036420Y-18341317D01*
X10036420Y-18341317D02*
X10055468Y-18331793D01*
X10055468Y-18331793D02*
X10103087Y-18331793D01*
X10103087Y-18331793D02*
X10122135Y-18322270D01*
X10188801Y-18274650D02*
X10264992Y-18274650D01*
X10217373Y-18207984D02*
X10217373Y-18379412D01*
X10217373Y-18379412D02*
X10226896Y-18398460D01*
X10226896Y-18398460D02*
X10245944Y-18407984D01*
X10245944Y-18407984D02*
X10264992Y-18407984D01*
X10407849Y-18398460D02*
X10388801Y-18407984D01*
X10388801Y-18407984D02*
X10350706Y-18407984D01*
X10350706Y-18407984D02*
X10331658Y-18398460D01*
X10331658Y-18398460D02*
X10322135Y-18379412D01*
X10322135Y-18379412D02*
X10322135Y-18303222D01*
X10322135Y-18303222D02*
X10331658Y-18284174D01*
X10331658Y-18284174D02*
X10350706Y-18274650D01*
X10350706Y-18274650D02*
X10388801Y-18274650D01*
X10388801Y-18274650D02*
X10407849Y-18284174D01*
X10407849Y-18284174D02*
X10417373Y-18303222D01*
X10417373Y-18303222D02*
X10417373Y-18322270D01*
X10417373Y-18322270D02*
X10322135Y-18341317D01*
X10588801Y-18407984D02*
X10588801Y-18207984D01*
X10588801Y-18398460D02*
X10569754Y-18407984D01*
X10569754Y-18407984D02*
X10531658Y-18407984D01*
X10531658Y-18407984D02*
X10512611Y-18398460D01*
X10512611Y-18398460D02*
X10503087Y-18388936D01*
X10503087Y-18388936D02*
X10493563Y-18369889D01*
X10493563Y-18369889D02*
X10493563Y-18312746D01*
X10493563Y-18312746D02*
X10503087Y-18293698D01*
X10503087Y-18293698D02*
X10512611Y-18284174D01*
X10512611Y-18284174D02*
X10531658Y-18274650D01*
X10531658Y-18274650D02*
X10569754Y-18274650D01*
X10569754Y-18274650D02*
X10588801Y-18284174D01*
X10664992Y-18484174D02*
X10674516Y-18474650D01*
X10674516Y-18474650D02*
X10693563Y-18446079D01*
X10693563Y-18446079D02*
X10703087Y-18427031D01*
X10703087Y-18427031D02*
X10712611Y-18398460D01*
X10712611Y-18398460D02*
X10722135Y-18350841D01*
X10722135Y-18350841D02*
X10722135Y-18312746D01*
X10722135Y-18312746D02*
X10712611Y-18265127D01*
X10712611Y-18265127D02*
X10703087Y-18236555D01*
X10703087Y-18236555D02*
X10693563Y-18217508D01*
X10693563Y-18217508D02*
X10674516Y-18188936D01*
X10674516Y-18188936D02*
X10664992Y-18179412D01*
M02*
