%TF.GenerationSoftware,KiCad,Pcbnew,7.0.7*%
%TF.CreationDate,2023-10-13T15:10:30-04:00*%
%TF.ProjectId,Model A-1.0,4d6f6465-6c20-4412-9d31-2e302e6b6963,1.0*%
%TF.SameCoordinates,Original*%
%TF.FileFunction,Drillmap*%
%TF.FilePolarity,Positive*%
%FSLAX45Y45*%
G04 Gerber Fmt 4.5, Leading zero omitted, Abs format (unit mm)*
G04 Created by KiCad (PCBNEW 7.0.7) date 2023-10-13 15:10:30*
%MOMM*%
%LPD*%
G01*
G04 APERTURE LIST*
%ADD10C,0.100000*%
%ADD11C,0.200000*%
%ADD12C,0.040000*%
%ADD13C,0.060000*%
%ADD14C,0.260000*%
%ADD15C,0.320000*%
G04 APERTURE END LIST*
D10*
X3723500Y-16272500D02*
G75*
G03*
X3923500Y-16472500I200000J0D01*
G01*
X3923500Y-3572500D02*
G75*
G03*
X3723500Y-3772500I0J-200000D01*
G01*
X37523500Y-16472500D02*
G75*
G03*
X37723500Y-16272500I0J200000D01*
G01*
X3923500Y-3572500D02*
X37523500Y-3572500D01*
X3723500Y-16272500D02*
X3723500Y-3772500D01*
X37723500Y-3772500D02*
X37723500Y-16272500D01*
X37723500Y-3772500D02*
G75*
G03*
X37523500Y-3572500I-200000J0D01*
G01*
X37523500Y-16472500D02*
X3923500Y-16472500D01*
D11*
D12*
X5133000Y-5641500D02*
X5173000Y-5681500D01*
X5173000Y-5641500D02*
X5133000Y-5681500D01*
X5136500Y-8000000D02*
X5176500Y-8040000D01*
X5176500Y-8000000D02*
X5136500Y-8040000D01*
X5383000Y-15651000D02*
X5423000Y-15691000D01*
X5423000Y-15651000D02*
X5383000Y-15691000D01*
X5603000Y-9947000D02*
X5643000Y-9987000D01*
X5643000Y-9947000D02*
X5603000Y-9987000D01*
X5855500Y-11824000D02*
X5895500Y-11864000D01*
X5895500Y-11824000D02*
X5855500Y-11864000D01*
X6340000Y-13743000D02*
X6380000Y-13783000D01*
X6380000Y-13743000D02*
X6340000Y-13783000D01*
X7064500Y-8005000D02*
X7104500Y-8045000D01*
X7104500Y-8005000D02*
X7064500Y-8045000D01*
X7776500Y-15666000D02*
X7816500Y-15706000D01*
X7816500Y-15666000D02*
X7776500Y-15706000D01*
X8008500Y-9915000D02*
X8048500Y-9955000D01*
X8048500Y-9915000D02*
X8008500Y-9955000D01*
X8323500Y-5637000D02*
X8363500Y-5677000D01*
X8363500Y-5637000D02*
X8323500Y-5677000D01*
X8469500Y-11830000D02*
X8509500Y-11870000D01*
X8509500Y-11830000D02*
X8469500Y-11870000D01*
X8966000Y-8016000D02*
X9006000Y-8056000D01*
X9006000Y-8016000D02*
X8966000Y-8056000D01*
X9437000Y-13743000D02*
X9477000Y-13783000D01*
X9477000Y-13743000D02*
X9437000Y-13783000D01*
X9909500Y-9933500D02*
X9949500Y-9973500D01*
X9949500Y-9933500D02*
X9909500Y-9973500D01*
X9921000Y-12943500D02*
X9961000Y-12983500D01*
X9961000Y-12943500D02*
X9921000Y-12983500D01*
X10157000Y-15661500D02*
X10197000Y-15701500D01*
X10197000Y-15661500D02*
X10157000Y-15701500D01*
X10231500Y-5646000D02*
X10271500Y-5686000D01*
X10271500Y-5646000D02*
X10231500Y-5686000D01*
X10388000Y-11856000D02*
X10428000Y-11896000D01*
X10428000Y-11856000D02*
X10388000Y-11896000D01*
X10889500Y-8002500D02*
X10929500Y-8042500D01*
X10929500Y-8002500D02*
X10889500Y-8042500D01*
X11338000Y-13747500D02*
X11378000Y-13787500D01*
X11378000Y-13747500D02*
X11338000Y-13787500D01*
X11801500Y-9908500D02*
X11841500Y-9948500D01*
X11841500Y-9908500D02*
X11801500Y-9948500D01*
X12130500Y-5646000D02*
X12170500Y-5686000D01*
X12170500Y-5646000D02*
X12130500Y-5686000D01*
X12291500Y-11828500D02*
X12331500Y-11868500D01*
X12331500Y-11828500D02*
X12291500Y-11868500D01*
X12777000Y-8009500D02*
X12817000Y-8049500D01*
X12817000Y-8009500D02*
X12777000Y-8049500D01*
X13228000Y-13745000D02*
X13268000Y-13785000D01*
X13268000Y-13745000D02*
X13228000Y-13785000D01*
X13727500Y-9938000D02*
X13767500Y-9978000D01*
X13767500Y-9938000D02*
X13727500Y-9978000D01*
X14008500Y-5650500D02*
X14048500Y-5690500D01*
X14048500Y-5650500D02*
X14008500Y-5690500D01*
X14204000Y-11863500D02*
X14244000Y-11903500D01*
X14244000Y-11863500D02*
X14204000Y-11903500D01*
X14678000Y-7998000D02*
X14718000Y-8038000D01*
X14718000Y-7998000D02*
X14678000Y-8038000D01*
X15133500Y-13747500D02*
X15173500Y-13787500D01*
X15173500Y-13747500D02*
X15133500Y-13787500D01*
X15631000Y-9926500D02*
X15671000Y-9966500D01*
X15671000Y-9926500D02*
X15631000Y-9966500D01*
X16092000Y-11845500D02*
X16132000Y-11885500D01*
X16132000Y-11845500D02*
X16092000Y-11885500D01*
X16572500Y-8007000D02*
X16612500Y-8047000D01*
X16612500Y-8007000D02*
X16572500Y-8047000D01*
X17037000Y-13745000D02*
X17077000Y-13785000D01*
X17077000Y-13745000D02*
X17037000Y-13785000D01*
X17231000Y-5641500D02*
X17271000Y-5681500D01*
X17271000Y-5641500D02*
X17231000Y-5681500D01*
X17305000Y-15656500D02*
X17345000Y-15696500D01*
X17345000Y-15656500D02*
X17305000Y-15696500D01*
X17518500Y-9922000D02*
X17558500Y-9962000D01*
X17558500Y-9922000D02*
X17518500Y-9962000D01*
X17531000Y-12933000D02*
X17571000Y-12973000D01*
X17571000Y-12933000D02*
X17531000Y-12973000D01*
X17989000Y-11850000D02*
X18029000Y-11890000D01*
X18029000Y-11850000D02*
X17989000Y-11890000D01*
X18494000Y-8009500D02*
X18534000Y-8049500D01*
X18534000Y-8009500D02*
X18494000Y-8049500D01*
X18951500Y-13740500D02*
X18991500Y-13780500D01*
X18991500Y-13740500D02*
X18951500Y-13780500D01*
X19125500Y-5643500D02*
X19165500Y-5683500D01*
X19165500Y-5643500D02*
X19125500Y-5683500D01*
X19442500Y-9951500D02*
X19482500Y-9991500D01*
X19482500Y-9951500D02*
X19442500Y-9991500D01*
X19921500Y-11850000D02*
X19961500Y-11890000D01*
X19961500Y-11850000D02*
X19921500Y-11890000D01*
X20402000Y-8014000D02*
X20442000Y-8054000D01*
X20442000Y-8014000D02*
X20402000Y-8054000D01*
X20862000Y-13756500D02*
X20902000Y-13796500D01*
X20902000Y-13756500D02*
X20862000Y-13796500D01*
X21019500Y-5641500D02*
X21059500Y-5681500D01*
X21059500Y-5641500D02*
X21019500Y-5681500D01*
X21345500Y-9947000D02*
X21385500Y-9987000D01*
X21385500Y-9947000D02*
X21345500Y-9987000D01*
X21812500Y-11865000D02*
X21852500Y-11905000D01*
X21852500Y-11865000D02*
X21812500Y-11905000D01*
X22291500Y-8014000D02*
X22331500Y-8054000D01*
X22331500Y-8014000D02*
X22291500Y-8054000D01*
X22367000Y-14109500D02*
X22407000Y-14149500D01*
X22407000Y-14109500D02*
X22367000Y-14149500D01*
X22747000Y-13754500D02*
X22787000Y-13794500D01*
X22787000Y-13754500D02*
X22747000Y-13794500D01*
X22923000Y-5630000D02*
X22963000Y-5670000D01*
X22963000Y-5630000D02*
X22923000Y-5670000D01*
X23242500Y-9942500D02*
X23282500Y-9982500D01*
X23282500Y-9942500D02*
X23242500Y-9982500D01*
X23717500Y-11865000D02*
X23757500Y-11905000D01*
X23757500Y-11865000D02*
X23717500Y-11905000D01*
X24190500Y-8014000D02*
X24230500Y-8054000D01*
X24230500Y-8014000D02*
X24190500Y-8054000D01*
X24191000Y-15641000D02*
X24231000Y-15681000D01*
X24231000Y-15641000D02*
X24191000Y-15681000D01*
X24675500Y-13761000D02*
X24715500Y-13801000D01*
X24715500Y-13761000D02*
X24675500Y-13801000D01*
X25145500Y-9924000D02*
X25185500Y-9964000D01*
X25185500Y-9924000D02*
X25145500Y-9964000D01*
X25609000Y-11848500D02*
X25649000Y-11888500D01*
X25649000Y-11848500D02*
X25609000Y-11888500D01*
X26091000Y-15636000D02*
X26131000Y-15676000D01*
X26131000Y-15636000D02*
X26091000Y-15676000D01*
X26098500Y-8016000D02*
X26138500Y-8056000D01*
X26138500Y-8016000D02*
X26098500Y-8056000D01*
X26111000Y-5632500D02*
X26151000Y-5672500D01*
X26151000Y-5632500D02*
X26111000Y-5672500D01*
X26585500Y-13768000D02*
X26625500Y-13808000D01*
X26625500Y-13768000D02*
X26585500Y-13808000D01*
X27031000Y-9929000D02*
X27071000Y-9969000D01*
X27071000Y-9929000D02*
X27031000Y-9969000D01*
X27538000Y-11851500D02*
X27578000Y-11891500D01*
X27578000Y-11851500D02*
X27538000Y-11891500D01*
X27940000Y-11411500D02*
X27980000Y-11451500D01*
X27980000Y-11411500D02*
X27940000Y-11451500D01*
X27996000Y-15661500D02*
X28036000Y-15701500D01*
X28036000Y-15661500D02*
X27996000Y-15701500D01*
X27999500Y-8014000D02*
X28039500Y-8054000D01*
X28039500Y-8014000D02*
X27999500Y-8054000D01*
X28001000Y-5629500D02*
X28041000Y-5669500D01*
X28041000Y-5629500D02*
X28001000Y-5669500D01*
X28811500Y-14566000D02*
X28851500Y-14606000D01*
X28851500Y-14566000D02*
X28811500Y-14606000D01*
X28954500Y-9922000D02*
X28994500Y-9962000D01*
X28994500Y-9922000D02*
X28954500Y-9962000D01*
X29199000Y-13745000D02*
X29239000Y-13785000D01*
X29239000Y-13745000D02*
X29199000Y-13785000D01*
X29911000Y-5629500D02*
X29951000Y-5669500D01*
X29951000Y-5629500D02*
X29911000Y-5669500D01*
X30142500Y-15887500D02*
X30182500Y-15927500D01*
X30182500Y-15887500D02*
X30142500Y-15927500D01*
X30624500Y-11852500D02*
X30664500Y-11892500D01*
X30664500Y-11852500D02*
X30624500Y-11892500D01*
X30868500Y-8018500D02*
X30908500Y-8058500D01*
X30908500Y-8018500D02*
X30868500Y-8058500D01*
X31346500Y-9926500D02*
X31386500Y-9966500D01*
X31386500Y-9926500D02*
X31346500Y-9966500D01*
X31797000Y-5636000D02*
X31837000Y-5676000D01*
X31837000Y-5636000D02*
X31797000Y-5676000D01*
X32052500Y-15898000D02*
X32092500Y-15938000D01*
X32092500Y-15898000D02*
X32052500Y-15938000D01*
X32056000Y-13980000D02*
X32096000Y-14020000D01*
X32096000Y-13980000D02*
X32056000Y-14020000D01*
X32770500Y-15018000D02*
X32810500Y-15058000D01*
X32810500Y-15018000D02*
X32770500Y-15058000D01*
X32852500Y-14688000D02*
X32892500Y-14728000D01*
X32892500Y-14688000D02*
X32852500Y-14728000D01*
X33413550Y-6575000D02*
X33453550Y-6615000D01*
X33453550Y-6575000D02*
X33413550Y-6615000D01*
X33458550Y-6460072D02*
X33498550Y-6500072D01*
X33498550Y-6460072D02*
X33458550Y-6500072D01*
X33503550Y-6362500D02*
X33543550Y-6402500D01*
X33543550Y-6362500D02*
X33503550Y-6402500D01*
X33946500Y-14720000D02*
X33986500Y-14760000D01*
X33986500Y-14720000D02*
X33946500Y-14760000D01*
X33963000Y-15887500D02*
X34003000Y-15927500D01*
X34003000Y-15887500D02*
X33963000Y-15927500D01*
X33988000Y-7693000D02*
X34028000Y-7733000D01*
X34028000Y-7693000D02*
X33988000Y-7733000D01*
X34032500Y-9613500D02*
X34072500Y-9653500D01*
X34072500Y-9613500D02*
X34032500Y-9653500D01*
X34097500Y-8925500D02*
X34137500Y-8965500D01*
X34137500Y-8925500D02*
X34097500Y-8965500D01*
X34217000Y-6580500D02*
X34257000Y-6620500D01*
X34257000Y-6580500D02*
X34217000Y-6620500D01*
X34226500Y-13746000D02*
X34266500Y-13786000D01*
X34266500Y-13746000D02*
X34226500Y-13786000D01*
X34296000Y-9024500D02*
X34336000Y-9064500D01*
X34336000Y-9024500D02*
X34296000Y-9064500D01*
X34347000Y-15480000D02*
X34387000Y-15520000D01*
X34387000Y-15480000D02*
X34347000Y-15520000D01*
X34393000Y-10478500D02*
X34433000Y-10518500D01*
X34433000Y-10478500D02*
X34393000Y-10518500D01*
X34449500Y-13513500D02*
X34489500Y-13553500D01*
X34489500Y-13513500D02*
X34449500Y-13553500D01*
X34475500Y-7248500D02*
X34515500Y-7288500D01*
X34515500Y-7248500D02*
X34475500Y-7288500D01*
X34486500Y-8006000D02*
X34526500Y-8046000D01*
X34526500Y-8006000D02*
X34486500Y-8046000D01*
X34497500Y-14560000D02*
X34537500Y-14600000D01*
X34537500Y-14560000D02*
X34497500Y-14600000D01*
X34516500Y-5633500D02*
X34556500Y-5673500D01*
X34556500Y-5633500D02*
X34516500Y-5673500D01*
X34526500Y-11834000D02*
X34566500Y-11874000D01*
X34566500Y-11834000D02*
X34526500Y-11874000D01*
X34581327Y-15860833D02*
X34621327Y-15900833D01*
X34621327Y-15860833D02*
X34581327Y-15900833D01*
X34607500Y-9846000D02*
X34647500Y-9886000D01*
X34647500Y-9846000D02*
X34607500Y-9886000D01*
X34628000Y-15026000D02*
X34668000Y-15066000D01*
X34668000Y-15026000D02*
X34628000Y-15066000D01*
X34680500Y-7238500D02*
X34720500Y-7278500D01*
X34720500Y-7238500D02*
X34680500Y-7278500D01*
X34689500Y-4752500D02*
X34729500Y-4792500D01*
X34729500Y-4752500D02*
X34689500Y-4792500D01*
X34703500Y-6560000D02*
X34743500Y-6600000D01*
X34743500Y-6560000D02*
X34703500Y-6600000D01*
X34840000Y-9072500D02*
X34880000Y-9112500D01*
X34880000Y-9072500D02*
X34840000Y-9112500D01*
X34971000Y-5461000D02*
X35011000Y-5501000D01*
X35011000Y-5461000D02*
X34971000Y-5501000D01*
X35008118Y-9319618D02*
X35048118Y-9359618D01*
X35048118Y-9319618D02*
X35008118Y-9359618D01*
X35071000Y-4909000D02*
X35111000Y-4949000D01*
X35111000Y-4909000D02*
X35071000Y-4949000D01*
X35170450Y-7836500D02*
X35210450Y-7876500D01*
X35210450Y-7836500D02*
X35170450Y-7876500D01*
X35215450Y-7935063D02*
X35255450Y-7975063D01*
X35255450Y-7935063D02*
X35215450Y-7975063D01*
X35260450Y-8356500D02*
X35300450Y-8396500D01*
X35300450Y-8356500D02*
X35260450Y-8396500D01*
X35305450Y-8456155D02*
X35345450Y-8496155D01*
X35345450Y-8456155D02*
X35305450Y-8496155D01*
X35350450Y-8555881D02*
X35390450Y-8595881D01*
X35390450Y-8555881D02*
X35350450Y-8595881D01*
X35381000Y-6084000D02*
X35421000Y-6124000D01*
X35421000Y-6084000D02*
X35381000Y-6124000D01*
X35637950Y-5241950D02*
X35677950Y-5281950D01*
X35677950Y-5241950D02*
X35637950Y-5281950D01*
X35664680Y-6050680D02*
X35704680Y-6090680D01*
X35704680Y-6050680D02*
X35664680Y-6090680D01*
X35734500Y-5196950D02*
X35774500Y-5236950D01*
X35774500Y-5196950D02*
X35734500Y-5236950D01*
X35898000Y-6546000D02*
X35938000Y-6586000D01*
X35938000Y-6546000D02*
X35898000Y-6586000D01*
X36036031Y-6279698D02*
X36076031Y-6319698D01*
X36076031Y-6279698D02*
X36036031Y-6319698D01*
X36218780Y-5470500D02*
X36258780Y-5510500D01*
X36258780Y-5470500D02*
X36218780Y-5510500D01*
X36254000Y-5724500D02*
X36294000Y-5764500D01*
X36294000Y-5724500D02*
X36254000Y-5764500D01*
X36291230Y-6144730D02*
X36331230Y-6184730D01*
X36331230Y-6144730D02*
X36291230Y-6184730D01*
X36369000Y-4174000D02*
X36409000Y-4214000D01*
X36409000Y-4174000D02*
X36369000Y-4214000D01*
X36444000Y-5159000D02*
X36484000Y-5199000D01*
X36484000Y-5159000D02*
X36444000Y-5199000D01*
X36487203Y-5818740D02*
X36527203Y-5858740D01*
X36527203Y-5818740D02*
X36487203Y-5858740D01*
X36553520Y-5893520D02*
X36593520Y-5933520D01*
X36593520Y-5893520D02*
X36553520Y-5933520D01*
X36566500Y-4806500D02*
X36606500Y-4846500D01*
X36606500Y-4806500D02*
X36566500Y-4846500D01*
X36566500Y-5128000D02*
X36606500Y-5168000D01*
X36606500Y-5128000D02*
X36566500Y-5168000D01*
X36716000Y-4851500D02*
X36756000Y-4891500D01*
X36756000Y-4851500D02*
X36716000Y-4891500D01*
X36733500Y-7799000D02*
X36773500Y-7839000D01*
X36773500Y-7799000D02*
X36733500Y-7839000D01*
X36772540Y-6326500D02*
X36812540Y-6366500D01*
X36812540Y-6326500D02*
X36772540Y-6366500D01*
X36797500Y-5034000D02*
X36837500Y-5074000D01*
X36837500Y-5034000D02*
X36797500Y-5074000D01*
X36847079Y-6000232D02*
X36887079Y-6040232D01*
X36887079Y-6000232D02*
X36847079Y-6040232D01*
X36852500Y-5700000D02*
X36892500Y-5740000D01*
X36892500Y-5700000D02*
X36852500Y-5740000D01*
X36872490Y-5805824D02*
X36912490Y-5845824D01*
X36912490Y-5805824D02*
X36872490Y-5845824D01*
X36879111Y-5905554D02*
X36919111Y-5945554D01*
X36919111Y-5905554D02*
X36879111Y-5945554D01*
X36951000Y-7322000D02*
X36991000Y-7362000D01*
X36991000Y-7322000D02*
X36951000Y-7362000D01*
X37094500Y-7038000D02*
X37134500Y-7078000D01*
X37134500Y-7038000D02*
X37094500Y-7078000D01*
X37137500Y-5111500D02*
X37177500Y-5151500D01*
X37177500Y-5111500D02*
X37137500Y-5151500D01*
X37144000Y-4276500D02*
X37184000Y-4316500D01*
X37184000Y-4276500D02*
X37144000Y-4316500D01*
X37160080Y-5981230D02*
X37200080Y-6021230D01*
X37200080Y-5981230D02*
X37160080Y-6021230D01*
X37238000Y-5870440D02*
X37278000Y-5910440D01*
X37278000Y-5870440D02*
X37238000Y-5910440D01*
X37312448Y-5790430D02*
X37352448Y-5830430D01*
X37352448Y-5790430D02*
X37312448Y-5830430D01*
X37386202Y-5710420D02*
X37426202Y-5750420D01*
X37426202Y-5710420D02*
X37386202Y-5750420D01*
X37468892Y-5630410D02*
X37508892Y-5670410D01*
X37508892Y-5630410D02*
X37468892Y-5670410D01*
X37543500Y-5536500D02*
X37583500Y-5576500D01*
X37583500Y-5536500D02*
X37543500Y-5576500D01*
D13*
X6326500Y-3732000D02*
G75*
G03*
X6326500Y-3732000I-30000J0D01*
G01*
D11*
X6326500Y-3762000D02*
X6326500Y-3702000D01*
X6326500Y-3702000D02*
G75*
G03*
X6266500Y-3702000I-30000J0D01*
G01*
X6266500Y-3702000D02*
X6266500Y-3762000D01*
X6266500Y-3762000D02*
G75*
G03*
X6326500Y-3762000I30000J0D01*
G01*
D13*
X6326500Y-4150000D02*
G75*
G03*
X6326500Y-4150000I-30000J0D01*
G01*
D11*
X6326500Y-4205000D02*
X6326500Y-4095000D01*
X6326500Y-4095000D02*
G75*
G03*
X6266500Y-4095000I-30000J0D01*
G01*
X6266500Y-4095000D02*
X6266500Y-4205000D01*
X6266500Y-4205000D02*
G75*
G03*
X6326500Y-4205000I30000J0D01*
G01*
D13*
X7190500Y-3732000D02*
G75*
G03*
X7190500Y-3732000I-30000J0D01*
G01*
D11*
X7190500Y-3762000D02*
X7190500Y-3702000D01*
X7190500Y-3702000D02*
G75*
G03*
X7130500Y-3702000I-30000J0D01*
G01*
X7130500Y-3702000D02*
X7130500Y-3762000D01*
X7130500Y-3762000D02*
G75*
G03*
X7190500Y-3762000I30000J0D01*
G01*
D13*
X7190500Y-4150000D02*
G75*
G03*
X7190500Y-4150000I-30000J0D01*
G01*
D11*
X7190500Y-4205000D02*
X7190500Y-4095000D01*
X7190500Y-4095000D02*
G75*
G03*
X7130500Y-4095000I-30000J0D01*
G01*
X7130500Y-4095000D02*
X7130500Y-4205000D01*
X7130500Y-4205000D02*
G75*
G03*
X7190500Y-4205000I30000J0D01*
G01*
D10*
X33480500Y-4775500D02*
X33480500Y-4875500D01*
X33430500Y-4825500D02*
X33530500Y-4825500D01*
X33480500Y-5025500D02*
X33480500Y-5125500D01*
X33430500Y-5075500D02*
X33530500Y-5075500D01*
X33480500Y-5275500D02*
X33480500Y-5375500D01*
X33430500Y-5325500D02*
X33530500Y-5325500D01*
X34930500Y-4775500D02*
X34930500Y-4875500D01*
X34880500Y-4825500D02*
X34980500Y-4825500D01*
X34930500Y-5275500D02*
X34930500Y-5375500D01*
X34880500Y-5325500D02*
X34980500Y-5325500D01*
X36079000Y-3712500D02*
X36079000Y-3812500D01*
X36029000Y-3762500D02*
X36129000Y-3762500D01*
X36079000Y-4162500D02*
X36079000Y-4262500D01*
X36029000Y-4212500D02*
X36129000Y-4212500D01*
X36094500Y-8245000D02*
X36094500Y-8345000D01*
X36044500Y-8295000D02*
X36144500Y-8295000D01*
X36348500Y-8245000D02*
X36348500Y-8345000D01*
X36298500Y-8295000D02*
X36398500Y-8295000D01*
X36602500Y-8245000D02*
X36602500Y-8345000D01*
X36552500Y-8295000D02*
X36652500Y-8295000D01*
X36729000Y-3712500D02*
X36729000Y-3812500D01*
X36679000Y-3762500D02*
X36779000Y-3762500D01*
X36729000Y-4162500D02*
X36729000Y-4262500D01*
X36679000Y-4212500D02*
X36779000Y-4212500D01*
X36856500Y-8245000D02*
X36856500Y-8345000D01*
X36806500Y-8295000D02*
X36906500Y-8295000D01*
D14*
X34322425Y-4607425D02*
X34322425Y-4423575D01*
X34138575Y-4423575D01*
X34138575Y-4607425D01*
X34322425Y-4607425D01*
X34322425Y-5727425D02*
X34322425Y-5543575D01*
X34138575Y-5543575D01*
X34138575Y-5727425D01*
X34322425Y-5727425D01*
D15*
X3997000Y-9951500D02*
X4157000Y-9791500D01*
X3997000Y-9631500D01*
X3837000Y-9791500D01*
X3997000Y-9951500D01*
X4006500Y-16348000D02*
X4166500Y-16188000D01*
X4006500Y-16028000D01*
X3846500Y-16188000D01*
X4006500Y-16348000D01*
X4067000Y-4085000D02*
X4227000Y-3925000D01*
X4067000Y-3765000D01*
X3907000Y-3925000D01*
X4067000Y-4085000D01*
X13825000Y-14565500D02*
X13985000Y-14405500D01*
X13825000Y-14245500D01*
X13665000Y-14405500D01*
X13825000Y-14565500D01*
X15609000Y-4532000D02*
X15769000Y-4372000D01*
X15609000Y-4212000D01*
X15449000Y-4372000D01*
X15609000Y-4532000D01*
X18497500Y-10419500D02*
X18657500Y-10259500D01*
X18497500Y-10099500D01*
X18337500Y-10259500D01*
X18497500Y-10419500D01*
X21329000Y-14565500D02*
X21489000Y-14405500D01*
X21329000Y-14245500D01*
X21169000Y-14405500D01*
X21329000Y-14565500D01*
X24510000Y-4633500D02*
X24670000Y-4473500D01*
X24510000Y-4313500D01*
X24350000Y-4473500D01*
X24510000Y-4633500D01*
X33035000Y-10421000D02*
X33195000Y-10261000D01*
X33035000Y-10101000D01*
X32875000Y-10261000D01*
X33035000Y-10421000D01*
X33057500Y-4638500D02*
X33217500Y-4478500D01*
X33057500Y-4318500D01*
X32897500Y-4478500D01*
X33057500Y-4638500D01*
X33207500Y-14402500D02*
X33367500Y-14242500D01*
X33207500Y-14082500D01*
X33047500Y-14242500D01*
X33207500Y-14402500D01*
X35238500Y-4666500D02*
X35398500Y-4506500D01*
X35238500Y-4346500D01*
X35078500Y-4506500D01*
X35238500Y-4666500D01*
X35682000Y-13218500D02*
X35842000Y-13058500D01*
X35682000Y-12898500D01*
X35522000Y-13058500D01*
X35682000Y-13218500D01*
X37345500Y-16234000D02*
X37505500Y-16074000D01*
X37345500Y-15914000D01*
X37185500Y-16074000D01*
X37345500Y-16234000D01*
X37357500Y-12565500D02*
X37517500Y-12405500D01*
X37357500Y-12245500D01*
X37197500Y-12405500D01*
X37357500Y-12565500D01*
X37486000Y-3970500D02*
X37646000Y-3810500D01*
X37486000Y-3650500D01*
X37326000Y-3810500D01*
X37486000Y-3970500D01*
D11*
X3979277Y-16788984D02*
X3979277Y-16588984D01*
X3979277Y-16588984D02*
X4026896Y-16588984D01*
X4026896Y-16588984D02*
X4055467Y-16598508D01*
X4055467Y-16598508D02*
X4074515Y-16617555D01*
X4074515Y-16617555D02*
X4084039Y-16636603D01*
X4084039Y-16636603D02*
X4093562Y-16674698D01*
X4093562Y-16674698D02*
X4093562Y-16703269D01*
X4093562Y-16703269D02*
X4084039Y-16741365D01*
X4084039Y-16741365D02*
X4074515Y-16760412D01*
X4074515Y-16760412D02*
X4055467Y-16779460D01*
X4055467Y-16779460D02*
X4026896Y-16788984D01*
X4026896Y-16788984D02*
X3979277Y-16788984D01*
X4179277Y-16788984D02*
X4179277Y-16655650D01*
X4179277Y-16693746D02*
X4188801Y-16674698D01*
X4188801Y-16674698D02*
X4198324Y-16665174D01*
X4198324Y-16665174D02*
X4217372Y-16655650D01*
X4217372Y-16655650D02*
X4236420Y-16655650D01*
X4303086Y-16788984D02*
X4303086Y-16655650D01*
X4303086Y-16588984D02*
X4293563Y-16598508D01*
X4293563Y-16598508D02*
X4303086Y-16608031D01*
X4303086Y-16608031D02*
X4312610Y-16598508D01*
X4312610Y-16598508D02*
X4303086Y-16588984D01*
X4303086Y-16588984D02*
X4303086Y-16608031D01*
X4426896Y-16788984D02*
X4407848Y-16779460D01*
X4407848Y-16779460D02*
X4398324Y-16760412D01*
X4398324Y-16760412D02*
X4398324Y-16588984D01*
X4531658Y-16788984D02*
X4512610Y-16779460D01*
X4512610Y-16779460D02*
X4503086Y-16760412D01*
X4503086Y-16760412D02*
X4503086Y-16588984D01*
X4760229Y-16788984D02*
X4760229Y-16588984D01*
X4760229Y-16588984D02*
X4826896Y-16731841D01*
X4826896Y-16731841D02*
X4893563Y-16588984D01*
X4893563Y-16588984D02*
X4893563Y-16788984D01*
X5074515Y-16788984D02*
X5074515Y-16684222D01*
X5074515Y-16684222D02*
X5064991Y-16665174D01*
X5064991Y-16665174D02*
X5045944Y-16655650D01*
X5045944Y-16655650D02*
X5007848Y-16655650D01*
X5007848Y-16655650D02*
X4988801Y-16665174D01*
X5074515Y-16779460D02*
X5055467Y-16788984D01*
X5055467Y-16788984D02*
X5007848Y-16788984D01*
X5007848Y-16788984D02*
X4988801Y-16779460D01*
X4988801Y-16779460D02*
X4979277Y-16760412D01*
X4979277Y-16760412D02*
X4979277Y-16741365D01*
X4979277Y-16741365D02*
X4988801Y-16722317D01*
X4988801Y-16722317D02*
X5007848Y-16712793D01*
X5007848Y-16712793D02*
X5055467Y-16712793D01*
X5055467Y-16712793D02*
X5074515Y-16703269D01*
X5169753Y-16655650D02*
X5169753Y-16855650D01*
X5169753Y-16665174D02*
X5188801Y-16655650D01*
X5188801Y-16655650D02*
X5226896Y-16655650D01*
X5226896Y-16655650D02*
X5245944Y-16665174D01*
X5245944Y-16665174D02*
X5255467Y-16674698D01*
X5255467Y-16674698D02*
X5264991Y-16693746D01*
X5264991Y-16693746D02*
X5264991Y-16750888D01*
X5264991Y-16750888D02*
X5255467Y-16769936D01*
X5255467Y-16769936D02*
X5245944Y-16779460D01*
X5245944Y-16779460D02*
X5226896Y-16788984D01*
X5226896Y-16788984D02*
X5188801Y-16788984D01*
X5188801Y-16788984D02*
X5169753Y-16779460D01*
X5350705Y-16769936D02*
X5360229Y-16779460D01*
X5360229Y-16779460D02*
X5350705Y-16788984D01*
X5350705Y-16788984D02*
X5341182Y-16779460D01*
X5341182Y-16779460D02*
X5350705Y-16769936D01*
X5350705Y-16769936D02*
X5350705Y-16788984D01*
X5350705Y-16665174D02*
X5360229Y-16674698D01*
X5360229Y-16674698D02*
X5350705Y-16684222D01*
X5350705Y-16684222D02*
X5341182Y-16674698D01*
X5341182Y-16674698D02*
X5350705Y-16665174D01*
X5350705Y-16665174D02*
X5350705Y-16684222D01*
D12*
X3678500Y-17097500D02*
X3718500Y-17137500D01*
X3718500Y-17097500D02*
X3678500Y-17137500D01*
D11*
X4017372Y-17008984D02*
X4036420Y-17008984D01*
X4036420Y-17008984D02*
X4055467Y-17018508D01*
X4055467Y-17018508D02*
X4064991Y-17028031D01*
X4064991Y-17028031D02*
X4074515Y-17047079D01*
X4074515Y-17047079D02*
X4084039Y-17085174D01*
X4084039Y-17085174D02*
X4084039Y-17132793D01*
X4084039Y-17132793D02*
X4074515Y-17170889D01*
X4074515Y-17170889D02*
X4064991Y-17189936D01*
X4064991Y-17189936D02*
X4055467Y-17199460D01*
X4055467Y-17199460D02*
X4036420Y-17208984D01*
X4036420Y-17208984D02*
X4017372Y-17208984D01*
X4017372Y-17208984D02*
X3998324Y-17199460D01*
X3998324Y-17199460D02*
X3988801Y-17189936D01*
X3988801Y-17189936D02*
X3979277Y-17170889D01*
X3979277Y-17170889D02*
X3969753Y-17132793D01*
X3969753Y-17132793D02*
X3969753Y-17085174D01*
X3969753Y-17085174D02*
X3979277Y-17047079D01*
X3979277Y-17047079D02*
X3988801Y-17028031D01*
X3988801Y-17028031D02*
X3998324Y-17018508D01*
X3998324Y-17018508D02*
X4017372Y-17008984D01*
X4169753Y-17189936D02*
X4179277Y-17199460D01*
X4179277Y-17199460D02*
X4169753Y-17208984D01*
X4169753Y-17208984D02*
X4160229Y-17199460D01*
X4160229Y-17199460D02*
X4169753Y-17189936D01*
X4169753Y-17189936D02*
X4169753Y-17208984D01*
X4350705Y-17075650D02*
X4350705Y-17208984D01*
X4303086Y-16999460D02*
X4255467Y-17142317D01*
X4255467Y-17142317D02*
X4379277Y-17142317D01*
X4493563Y-17008984D02*
X4512610Y-17008984D01*
X4512610Y-17008984D02*
X4531658Y-17018508D01*
X4531658Y-17018508D02*
X4541182Y-17028031D01*
X4541182Y-17028031D02*
X4550705Y-17047079D01*
X4550705Y-17047079D02*
X4560229Y-17085174D01*
X4560229Y-17085174D02*
X4560229Y-17132793D01*
X4560229Y-17132793D02*
X4550705Y-17170889D01*
X4550705Y-17170889D02*
X4541182Y-17189936D01*
X4541182Y-17189936D02*
X4531658Y-17199460D01*
X4531658Y-17199460D02*
X4512610Y-17208984D01*
X4512610Y-17208984D02*
X4493563Y-17208984D01*
X4493563Y-17208984D02*
X4474515Y-17199460D01*
X4474515Y-17199460D02*
X4464991Y-17189936D01*
X4464991Y-17189936D02*
X4455467Y-17170889D01*
X4455467Y-17170889D02*
X4445944Y-17132793D01*
X4445944Y-17132793D02*
X4445944Y-17085174D01*
X4445944Y-17085174D02*
X4455467Y-17047079D01*
X4455467Y-17047079D02*
X4464991Y-17028031D01*
X4464991Y-17028031D02*
X4474515Y-17018508D01*
X4474515Y-17018508D02*
X4493563Y-17008984D01*
X4684039Y-17008984D02*
X4703086Y-17008984D01*
X4703086Y-17008984D02*
X4722134Y-17018508D01*
X4722134Y-17018508D02*
X4731658Y-17028031D01*
X4731658Y-17028031D02*
X4741182Y-17047079D01*
X4741182Y-17047079D02*
X4750705Y-17085174D01*
X4750705Y-17085174D02*
X4750705Y-17132793D01*
X4750705Y-17132793D02*
X4741182Y-17170889D01*
X4741182Y-17170889D02*
X4731658Y-17189936D01*
X4731658Y-17189936D02*
X4722134Y-17199460D01*
X4722134Y-17199460D02*
X4703086Y-17208984D01*
X4703086Y-17208984D02*
X4684039Y-17208984D01*
X4684039Y-17208984D02*
X4664991Y-17199460D01*
X4664991Y-17199460D02*
X4655467Y-17189936D01*
X4655467Y-17189936D02*
X4645944Y-17170889D01*
X4645944Y-17170889D02*
X4636420Y-17132793D01*
X4636420Y-17132793D02*
X4636420Y-17085174D01*
X4636420Y-17085174D02*
X4645944Y-17047079D01*
X4645944Y-17047079D02*
X4655467Y-17028031D01*
X4655467Y-17028031D02*
X4664991Y-17018508D01*
X4664991Y-17018508D02*
X4684039Y-17008984D01*
X4836420Y-17208984D02*
X4836420Y-17075650D01*
X4836420Y-17094698D02*
X4845944Y-17085174D01*
X4845944Y-17085174D02*
X4864991Y-17075650D01*
X4864991Y-17075650D02*
X4893563Y-17075650D01*
X4893563Y-17075650D02*
X4912610Y-17085174D01*
X4912610Y-17085174D02*
X4922134Y-17104222D01*
X4922134Y-17104222D02*
X4922134Y-17208984D01*
X4922134Y-17104222D02*
X4931658Y-17085174D01*
X4931658Y-17085174D02*
X4950705Y-17075650D01*
X4950705Y-17075650D02*
X4979277Y-17075650D01*
X4979277Y-17075650D02*
X4998325Y-17085174D01*
X4998325Y-17085174D02*
X5007848Y-17104222D01*
X5007848Y-17104222D02*
X5007848Y-17208984D01*
X5103086Y-17208984D02*
X5103086Y-17075650D01*
X5103086Y-17094698D02*
X5112610Y-17085174D01*
X5112610Y-17085174D02*
X5131658Y-17075650D01*
X5131658Y-17075650D02*
X5160229Y-17075650D01*
X5160229Y-17075650D02*
X5179277Y-17085174D01*
X5179277Y-17085174D02*
X5188801Y-17104222D01*
X5188801Y-17104222D02*
X5188801Y-17208984D01*
X5188801Y-17104222D02*
X5198325Y-17085174D01*
X5198325Y-17085174D02*
X5217372Y-17075650D01*
X5217372Y-17075650D02*
X5245944Y-17075650D01*
X5245944Y-17075650D02*
X5264991Y-17085174D01*
X5264991Y-17085174D02*
X5274515Y-17104222D01*
X5274515Y-17104222D02*
X5274515Y-17208984D01*
X5664991Y-16999460D02*
X5493563Y-17256603D01*
X5922134Y-17008984D02*
X5941182Y-17008984D01*
X5941182Y-17008984D02*
X5960229Y-17018508D01*
X5960229Y-17018508D02*
X5969753Y-17028031D01*
X5969753Y-17028031D02*
X5979277Y-17047079D01*
X5979277Y-17047079D02*
X5988801Y-17085174D01*
X5988801Y-17085174D02*
X5988801Y-17132793D01*
X5988801Y-17132793D02*
X5979277Y-17170889D01*
X5979277Y-17170889D02*
X5969753Y-17189936D01*
X5969753Y-17189936D02*
X5960229Y-17199460D01*
X5960229Y-17199460D02*
X5941182Y-17208984D01*
X5941182Y-17208984D02*
X5922134Y-17208984D01*
X5922134Y-17208984D02*
X5903086Y-17199460D01*
X5903086Y-17199460D02*
X5893563Y-17189936D01*
X5893563Y-17189936D02*
X5884039Y-17170889D01*
X5884039Y-17170889D02*
X5874515Y-17132793D01*
X5874515Y-17132793D02*
X5874515Y-17085174D01*
X5874515Y-17085174D02*
X5884039Y-17047079D01*
X5884039Y-17047079D02*
X5893563Y-17028031D01*
X5893563Y-17028031D02*
X5903086Y-17018508D01*
X5903086Y-17018508D02*
X5922134Y-17008984D01*
X6074515Y-17189936D02*
X6084039Y-17199460D01*
X6084039Y-17199460D02*
X6074515Y-17208984D01*
X6074515Y-17208984D02*
X6064991Y-17199460D01*
X6064991Y-17199460D02*
X6074515Y-17189936D01*
X6074515Y-17189936D02*
X6074515Y-17208984D01*
X6207848Y-17008984D02*
X6226896Y-17008984D01*
X6226896Y-17008984D02*
X6245944Y-17018508D01*
X6245944Y-17018508D02*
X6255467Y-17028031D01*
X6255467Y-17028031D02*
X6264991Y-17047079D01*
X6264991Y-17047079D02*
X6274515Y-17085174D01*
X6274515Y-17085174D02*
X6274515Y-17132793D01*
X6274515Y-17132793D02*
X6264991Y-17170889D01*
X6264991Y-17170889D02*
X6255467Y-17189936D01*
X6255467Y-17189936D02*
X6245944Y-17199460D01*
X6245944Y-17199460D02*
X6226896Y-17208984D01*
X6226896Y-17208984D02*
X6207848Y-17208984D01*
X6207848Y-17208984D02*
X6188801Y-17199460D01*
X6188801Y-17199460D02*
X6179277Y-17189936D01*
X6179277Y-17189936D02*
X6169753Y-17170889D01*
X6169753Y-17170889D02*
X6160229Y-17132793D01*
X6160229Y-17132793D02*
X6160229Y-17085174D01*
X6160229Y-17085174D02*
X6169753Y-17047079D01*
X6169753Y-17047079D02*
X6179277Y-17028031D01*
X6179277Y-17028031D02*
X6188801Y-17018508D01*
X6188801Y-17018508D02*
X6207848Y-17008984D01*
X6464991Y-17208984D02*
X6350706Y-17208984D01*
X6407848Y-17208984D02*
X6407848Y-17008984D01*
X6407848Y-17008984D02*
X6388801Y-17037555D01*
X6388801Y-17037555D02*
X6369753Y-17056603D01*
X6369753Y-17056603D02*
X6350706Y-17066127D01*
X6645944Y-17008984D02*
X6550706Y-17008984D01*
X6550706Y-17008984D02*
X6541182Y-17104222D01*
X6541182Y-17104222D02*
X6550706Y-17094698D01*
X6550706Y-17094698D02*
X6569753Y-17085174D01*
X6569753Y-17085174D02*
X6617372Y-17085174D01*
X6617372Y-17085174D02*
X6636420Y-17094698D01*
X6636420Y-17094698D02*
X6645944Y-17104222D01*
X6645944Y-17104222D02*
X6655467Y-17123270D01*
X6655467Y-17123270D02*
X6655467Y-17170889D01*
X6655467Y-17170889D02*
X6645944Y-17189936D01*
X6645944Y-17189936D02*
X6636420Y-17199460D01*
X6636420Y-17199460D02*
X6617372Y-17208984D01*
X6617372Y-17208984D02*
X6569753Y-17208984D01*
X6569753Y-17208984D02*
X6550706Y-17199460D01*
X6550706Y-17199460D02*
X6541182Y-17189936D01*
X6722134Y-17008984D02*
X6855467Y-17008984D01*
X6855467Y-17008984D02*
X6769753Y-17208984D01*
X6922134Y-17008984D02*
X6922134Y-17047079D01*
X6998325Y-17008984D02*
X6998325Y-17047079D01*
X7293563Y-17285174D02*
X7284039Y-17275650D01*
X7284039Y-17275650D02*
X7264991Y-17247079D01*
X7264991Y-17247079D02*
X7255468Y-17228031D01*
X7255468Y-17228031D02*
X7245944Y-17199460D01*
X7245944Y-17199460D02*
X7236420Y-17151841D01*
X7236420Y-17151841D02*
X7236420Y-17113746D01*
X7236420Y-17113746D02*
X7245944Y-17066127D01*
X7245944Y-17066127D02*
X7255468Y-17037555D01*
X7255468Y-17037555D02*
X7264991Y-17018508D01*
X7264991Y-17018508D02*
X7284039Y-16989936D01*
X7284039Y-16989936D02*
X7293563Y-16980412D01*
X7474515Y-17208984D02*
X7360229Y-17208984D01*
X7417372Y-17208984D02*
X7417372Y-17008984D01*
X7417372Y-17008984D02*
X7398325Y-17037555D01*
X7398325Y-17037555D02*
X7379277Y-17056603D01*
X7379277Y-17056603D02*
X7360229Y-17066127D01*
X7655468Y-17008984D02*
X7560229Y-17008984D01*
X7560229Y-17008984D02*
X7550706Y-17104222D01*
X7550706Y-17104222D02*
X7560229Y-17094698D01*
X7560229Y-17094698D02*
X7579277Y-17085174D01*
X7579277Y-17085174D02*
X7626896Y-17085174D01*
X7626896Y-17085174D02*
X7645944Y-17094698D01*
X7645944Y-17094698D02*
X7655468Y-17104222D01*
X7655468Y-17104222D02*
X7664991Y-17123270D01*
X7664991Y-17123270D02*
X7664991Y-17170889D01*
X7664991Y-17170889D02*
X7655468Y-17189936D01*
X7655468Y-17189936D02*
X7645944Y-17199460D01*
X7645944Y-17199460D02*
X7626896Y-17208984D01*
X7626896Y-17208984D02*
X7579277Y-17208984D01*
X7579277Y-17208984D02*
X7560229Y-17199460D01*
X7560229Y-17199460D02*
X7550706Y-17189936D01*
X7788801Y-17008984D02*
X7807849Y-17008984D01*
X7807849Y-17008984D02*
X7826896Y-17018508D01*
X7826896Y-17018508D02*
X7836420Y-17028031D01*
X7836420Y-17028031D02*
X7845944Y-17047079D01*
X7845944Y-17047079D02*
X7855468Y-17085174D01*
X7855468Y-17085174D02*
X7855468Y-17132793D01*
X7855468Y-17132793D02*
X7845944Y-17170889D01*
X7845944Y-17170889D02*
X7836420Y-17189936D01*
X7836420Y-17189936D02*
X7826896Y-17199460D01*
X7826896Y-17199460D02*
X7807849Y-17208984D01*
X7807849Y-17208984D02*
X7788801Y-17208984D01*
X7788801Y-17208984D02*
X7769753Y-17199460D01*
X7769753Y-17199460D02*
X7760229Y-17189936D01*
X7760229Y-17189936D02*
X7750706Y-17170889D01*
X7750706Y-17170889D02*
X7741182Y-17132793D01*
X7741182Y-17132793D02*
X7741182Y-17085174D01*
X7741182Y-17085174D02*
X7750706Y-17047079D01*
X7750706Y-17047079D02*
X7760229Y-17028031D01*
X7760229Y-17028031D02*
X7769753Y-17018508D01*
X7769753Y-17018508D02*
X7788801Y-17008984D01*
X8093563Y-17208984D02*
X8093563Y-17008984D01*
X8179277Y-17208984D02*
X8179277Y-17104222D01*
X8179277Y-17104222D02*
X8169753Y-17085174D01*
X8169753Y-17085174D02*
X8150706Y-17075650D01*
X8150706Y-17075650D02*
X8122134Y-17075650D01*
X8122134Y-17075650D02*
X8103087Y-17085174D01*
X8103087Y-17085174D02*
X8093563Y-17094698D01*
X8303087Y-17208984D02*
X8284039Y-17199460D01*
X8284039Y-17199460D02*
X8274515Y-17189936D01*
X8274515Y-17189936D02*
X8264991Y-17170889D01*
X8264991Y-17170889D02*
X8264991Y-17113746D01*
X8264991Y-17113746D02*
X8274515Y-17094698D01*
X8274515Y-17094698D02*
X8284039Y-17085174D01*
X8284039Y-17085174D02*
X8303087Y-17075650D01*
X8303087Y-17075650D02*
X8331658Y-17075650D01*
X8331658Y-17075650D02*
X8350706Y-17085174D01*
X8350706Y-17085174D02*
X8360230Y-17094698D01*
X8360230Y-17094698D02*
X8369753Y-17113746D01*
X8369753Y-17113746D02*
X8369753Y-17170889D01*
X8369753Y-17170889D02*
X8360230Y-17189936D01*
X8360230Y-17189936D02*
X8350706Y-17199460D01*
X8350706Y-17199460D02*
X8331658Y-17208984D01*
X8331658Y-17208984D02*
X8303087Y-17208984D01*
X8484039Y-17208984D02*
X8464992Y-17199460D01*
X8464992Y-17199460D02*
X8455468Y-17180412D01*
X8455468Y-17180412D02*
X8455468Y-17008984D01*
X8636420Y-17199460D02*
X8617373Y-17208984D01*
X8617373Y-17208984D02*
X8579277Y-17208984D01*
X8579277Y-17208984D02*
X8560230Y-17199460D01*
X8560230Y-17199460D02*
X8550706Y-17180412D01*
X8550706Y-17180412D02*
X8550706Y-17104222D01*
X8550706Y-17104222D02*
X8560230Y-17085174D01*
X8560230Y-17085174D02*
X8579277Y-17075650D01*
X8579277Y-17075650D02*
X8617373Y-17075650D01*
X8617373Y-17075650D02*
X8636420Y-17085174D01*
X8636420Y-17085174D02*
X8645944Y-17104222D01*
X8645944Y-17104222D02*
X8645944Y-17123270D01*
X8645944Y-17123270D02*
X8550706Y-17142317D01*
X8722134Y-17199460D02*
X8741182Y-17208984D01*
X8741182Y-17208984D02*
X8779277Y-17208984D01*
X8779277Y-17208984D02*
X8798325Y-17199460D01*
X8798325Y-17199460D02*
X8807849Y-17180412D01*
X8807849Y-17180412D02*
X8807849Y-17170889D01*
X8807849Y-17170889D02*
X8798325Y-17151841D01*
X8798325Y-17151841D02*
X8779277Y-17142317D01*
X8779277Y-17142317D02*
X8750706Y-17142317D01*
X8750706Y-17142317D02*
X8731658Y-17132793D01*
X8731658Y-17132793D02*
X8722134Y-17113746D01*
X8722134Y-17113746D02*
X8722134Y-17104222D01*
X8722134Y-17104222D02*
X8731658Y-17085174D01*
X8731658Y-17085174D02*
X8750706Y-17075650D01*
X8750706Y-17075650D02*
X8779277Y-17075650D01*
X8779277Y-17075650D02*
X8798325Y-17085174D01*
X8874515Y-17285174D02*
X8884039Y-17275650D01*
X8884039Y-17275650D02*
X8903087Y-17247079D01*
X8903087Y-17247079D02*
X8912611Y-17228031D01*
X8912611Y-17228031D02*
X8922134Y-17199460D01*
X8922134Y-17199460D02*
X8931658Y-17151841D01*
X8931658Y-17151841D02*
X8931658Y-17113746D01*
X8931658Y-17113746D02*
X8922134Y-17066127D01*
X8922134Y-17066127D02*
X8912611Y-17037555D01*
X8912611Y-17037555D02*
X8903087Y-17018508D01*
X8903087Y-17018508D02*
X8884039Y-16989936D01*
X8884039Y-16989936D02*
X8874515Y-16980412D01*
D13*
X3718500Y-17381500D02*
G75*
G03*
X3718500Y-17381500I-30000J0D01*
G01*
D11*
X4017372Y-17272984D02*
X4036420Y-17272984D01*
X4036420Y-17272984D02*
X4055467Y-17282508D01*
X4055467Y-17282508D02*
X4064991Y-17292031D01*
X4064991Y-17292031D02*
X4074515Y-17311079D01*
X4074515Y-17311079D02*
X4084039Y-17349174D01*
X4084039Y-17349174D02*
X4084039Y-17396793D01*
X4084039Y-17396793D02*
X4074515Y-17434889D01*
X4074515Y-17434889D02*
X4064991Y-17453936D01*
X4064991Y-17453936D02*
X4055467Y-17463460D01*
X4055467Y-17463460D02*
X4036420Y-17472984D01*
X4036420Y-17472984D02*
X4017372Y-17472984D01*
X4017372Y-17472984D02*
X3998324Y-17463460D01*
X3998324Y-17463460D02*
X3988801Y-17453936D01*
X3988801Y-17453936D02*
X3979277Y-17434889D01*
X3979277Y-17434889D02*
X3969753Y-17396793D01*
X3969753Y-17396793D02*
X3969753Y-17349174D01*
X3969753Y-17349174D02*
X3979277Y-17311079D01*
X3979277Y-17311079D02*
X3988801Y-17292031D01*
X3988801Y-17292031D02*
X3998324Y-17282508D01*
X3998324Y-17282508D02*
X4017372Y-17272984D01*
X4169753Y-17453936D02*
X4179277Y-17463460D01*
X4179277Y-17463460D02*
X4169753Y-17472984D01*
X4169753Y-17472984D02*
X4160229Y-17463460D01*
X4160229Y-17463460D02*
X4169753Y-17453936D01*
X4169753Y-17453936D02*
X4169753Y-17472984D01*
X4350705Y-17272984D02*
X4312610Y-17272984D01*
X4312610Y-17272984D02*
X4293563Y-17282508D01*
X4293563Y-17282508D02*
X4284039Y-17292031D01*
X4284039Y-17292031D02*
X4264991Y-17320603D01*
X4264991Y-17320603D02*
X4255467Y-17358698D01*
X4255467Y-17358698D02*
X4255467Y-17434889D01*
X4255467Y-17434889D02*
X4264991Y-17453936D01*
X4264991Y-17453936D02*
X4274515Y-17463460D01*
X4274515Y-17463460D02*
X4293563Y-17472984D01*
X4293563Y-17472984D02*
X4331658Y-17472984D01*
X4331658Y-17472984D02*
X4350705Y-17463460D01*
X4350705Y-17463460D02*
X4360229Y-17453936D01*
X4360229Y-17453936D02*
X4369753Y-17434889D01*
X4369753Y-17434889D02*
X4369753Y-17387270D01*
X4369753Y-17387270D02*
X4360229Y-17368222D01*
X4360229Y-17368222D02*
X4350705Y-17358698D01*
X4350705Y-17358698D02*
X4331658Y-17349174D01*
X4331658Y-17349174D02*
X4293563Y-17349174D01*
X4293563Y-17349174D02*
X4274515Y-17358698D01*
X4274515Y-17358698D02*
X4264991Y-17368222D01*
X4264991Y-17368222D02*
X4255467Y-17387270D01*
X4493563Y-17272984D02*
X4512610Y-17272984D01*
X4512610Y-17272984D02*
X4531658Y-17282508D01*
X4531658Y-17282508D02*
X4541182Y-17292031D01*
X4541182Y-17292031D02*
X4550705Y-17311079D01*
X4550705Y-17311079D02*
X4560229Y-17349174D01*
X4560229Y-17349174D02*
X4560229Y-17396793D01*
X4560229Y-17396793D02*
X4550705Y-17434889D01*
X4550705Y-17434889D02*
X4541182Y-17453936D01*
X4541182Y-17453936D02*
X4531658Y-17463460D01*
X4531658Y-17463460D02*
X4512610Y-17472984D01*
X4512610Y-17472984D02*
X4493563Y-17472984D01*
X4493563Y-17472984D02*
X4474515Y-17463460D01*
X4474515Y-17463460D02*
X4464991Y-17453936D01*
X4464991Y-17453936D02*
X4455467Y-17434889D01*
X4455467Y-17434889D02*
X4445944Y-17396793D01*
X4445944Y-17396793D02*
X4445944Y-17349174D01*
X4445944Y-17349174D02*
X4455467Y-17311079D01*
X4455467Y-17311079D02*
X4464991Y-17292031D01*
X4464991Y-17292031D02*
X4474515Y-17282508D01*
X4474515Y-17282508D02*
X4493563Y-17272984D01*
X4684039Y-17272984D02*
X4703086Y-17272984D01*
X4703086Y-17272984D02*
X4722134Y-17282508D01*
X4722134Y-17282508D02*
X4731658Y-17292031D01*
X4731658Y-17292031D02*
X4741182Y-17311079D01*
X4741182Y-17311079D02*
X4750705Y-17349174D01*
X4750705Y-17349174D02*
X4750705Y-17396793D01*
X4750705Y-17396793D02*
X4741182Y-17434889D01*
X4741182Y-17434889D02*
X4731658Y-17453936D01*
X4731658Y-17453936D02*
X4722134Y-17463460D01*
X4722134Y-17463460D02*
X4703086Y-17472984D01*
X4703086Y-17472984D02*
X4684039Y-17472984D01*
X4684039Y-17472984D02*
X4664991Y-17463460D01*
X4664991Y-17463460D02*
X4655467Y-17453936D01*
X4655467Y-17453936D02*
X4645944Y-17434889D01*
X4645944Y-17434889D02*
X4636420Y-17396793D01*
X4636420Y-17396793D02*
X4636420Y-17349174D01*
X4636420Y-17349174D02*
X4645944Y-17311079D01*
X4645944Y-17311079D02*
X4655467Y-17292031D01*
X4655467Y-17292031D02*
X4664991Y-17282508D01*
X4664991Y-17282508D02*
X4684039Y-17272984D01*
X4836420Y-17472984D02*
X4836420Y-17339650D01*
X4836420Y-17358698D02*
X4845944Y-17349174D01*
X4845944Y-17349174D02*
X4864991Y-17339650D01*
X4864991Y-17339650D02*
X4893563Y-17339650D01*
X4893563Y-17339650D02*
X4912610Y-17349174D01*
X4912610Y-17349174D02*
X4922134Y-17368222D01*
X4922134Y-17368222D02*
X4922134Y-17472984D01*
X4922134Y-17368222D02*
X4931658Y-17349174D01*
X4931658Y-17349174D02*
X4950705Y-17339650D01*
X4950705Y-17339650D02*
X4979277Y-17339650D01*
X4979277Y-17339650D02*
X4998325Y-17349174D01*
X4998325Y-17349174D02*
X5007848Y-17368222D01*
X5007848Y-17368222D02*
X5007848Y-17472984D01*
X5103086Y-17472984D02*
X5103086Y-17339650D01*
X5103086Y-17358698D02*
X5112610Y-17349174D01*
X5112610Y-17349174D02*
X5131658Y-17339650D01*
X5131658Y-17339650D02*
X5160229Y-17339650D01*
X5160229Y-17339650D02*
X5179277Y-17349174D01*
X5179277Y-17349174D02*
X5188801Y-17368222D01*
X5188801Y-17368222D02*
X5188801Y-17472984D01*
X5188801Y-17368222D02*
X5198325Y-17349174D01*
X5198325Y-17349174D02*
X5217372Y-17339650D01*
X5217372Y-17339650D02*
X5245944Y-17339650D01*
X5245944Y-17339650D02*
X5264991Y-17349174D01*
X5264991Y-17349174D02*
X5274515Y-17368222D01*
X5274515Y-17368222D02*
X5274515Y-17472984D01*
X5664991Y-17263460D02*
X5493563Y-17520603D01*
X5922134Y-17272984D02*
X5941182Y-17272984D01*
X5941182Y-17272984D02*
X5960229Y-17282508D01*
X5960229Y-17282508D02*
X5969753Y-17292031D01*
X5969753Y-17292031D02*
X5979277Y-17311079D01*
X5979277Y-17311079D02*
X5988801Y-17349174D01*
X5988801Y-17349174D02*
X5988801Y-17396793D01*
X5988801Y-17396793D02*
X5979277Y-17434889D01*
X5979277Y-17434889D02*
X5969753Y-17453936D01*
X5969753Y-17453936D02*
X5960229Y-17463460D01*
X5960229Y-17463460D02*
X5941182Y-17472984D01*
X5941182Y-17472984D02*
X5922134Y-17472984D01*
X5922134Y-17472984D02*
X5903086Y-17463460D01*
X5903086Y-17463460D02*
X5893563Y-17453936D01*
X5893563Y-17453936D02*
X5884039Y-17434889D01*
X5884039Y-17434889D02*
X5874515Y-17396793D01*
X5874515Y-17396793D02*
X5874515Y-17349174D01*
X5874515Y-17349174D02*
X5884039Y-17311079D01*
X5884039Y-17311079D02*
X5893563Y-17292031D01*
X5893563Y-17292031D02*
X5903086Y-17282508D01*
X5903086Y-17282508D02*
X5922134Y-17272984D01*
X6074515Y-17453936D02*
X6084039Y-17463460D01*
X6084039Y-17463460D02*
X6074515Y-17472984D01*
X6074515Y-17472984D02*
X6064991Y-17463460D01*
X6064991Y-17463460D02*
X6074515Y-17453936D01*
X6074515Y-17453936D02*
X6074515Y-17472984D01*
X6207848Y-17272984D02*
X6226896Y-17272984D01*
X6226896Y-17272984D02*
X6245944Y-17282508D01*
X6245944Y-17282508D02*
X6255467Y-17292031D01*
X6255467Y-17292031D02*
X6264991Y-17311079D01*
X6264991Y-17311079D02*
X6274515Y-17349174D01*
X6274515Y-17349174D02*
X6274515Y-17396793D01*
X6274515Y-17396793D02*
X6264991Y-17434889D01*
X6264991Y-17434889D02*
X6255467Y-17453936D01*
X6255467Y-17453936D02*
X6245944Y-17463460D01*
X6245944Y-17463460D02*
X6226896Y-17472984D01*
X6226896Y-17472984D02*
X6207848Y-17472984D01*
X6207848Y-17472984D02*
X6188801Y-17463460D01*
X6188801Y-17463460D02*
X6179277Y-17453936D01*
X6179277Y-17453936D02*
X6169753Y-17434889D01*
X6169753Y-17434889D02*
X6160229Y-17396793D01*
X6160229Y-17396793D02*
X6160229Y-17349174D01*
X6160229Y-17349174D02*
X6169753Y-17311079D01*
X6169753Y-17311079D02*
X6179277Y-17292031D01*
X6179277Y-17292031D02*
X6188801Y-17282508D01*
X6188801Y-17282508D02*
X6207848Y-17272984D01*
X6350706Y-17292031D02*
X6360229Y-17282508D01*
X6360229Y-17282508D02*
X6379277Y-17272984D01*
X6379277Y-17272984D02*
X6426896Y-17272984D01*
X6426896Y-17272984D02*
X6445944Y-17282508D01*
X6445944Y-17282508D02*
X6455467Y-17292031D01*
X6455467Y-17292031D02*
X6464991Y-17311079D01*
X6464991Y-17311079D02*
X6464991Y-17330127D01*
X6464991Y-17330127D02*
X6455467Y-17358698D01*
X6455467Y-17358698D02*
X6341182Y-17472984D01*
X6341182Y-17472984D02*
X6464991Y-17472984D01*
X6531658Y-17272984D02*
X6655467Y-17272984D01*
X6655467Y-17272984D02*
X6588801Y-17349174D01*
X6588801Y-17349174D02*
X6617372Y-17349174D01*
X6617372Y-17349174D02*
X6636420Y-17358698D01*
X6636420Y-17358698D02*
X6645944Y-17368222D01*
X6645944Y-17368222D02*
X6655467Y-17387270D01*
X6655467Y-17387270D02*
X6655467Y-17434889D01*
X6655467Y-17434889D02*
X6645944Y-17453936D01*
X6645944Y-17453936D02*
X6636420Y-17463460D01*
X6636420Y-17463460D02*
X6617372Y-17472984D01*
X6617372Y-17472984D02*
X6560229Y-17472984D01*
X6560229Y-17472984D02*
X6541182Y-17463460D01*
X6541182Y-17463460D02*
X6531658Y-17453936D01*
X6826896Y-17272984D02*
X6788801Y-17272984D01*
X6788801Y-17272984D02*
X6769753Y-17282508D01*
X6769753Y-17282508D02*
X6760229Y-17292031D01*
X6760229Y-17292031D02*
X6741182Y-17320603D01*
X6741182Y-17320603D02*
X6731658Y-17358698D01*
X6731658Y-17358698D02*
X6731658Y-17434889D01*
X6731658Y-17434889D02*
X6741182Y-17453936D01*
X6741182Y-17453936D02*
X6750706Y-17463460D01*
X6750706Y-17463460D02*
X6769753Y-17472984D01*
X6769753Y-17472984D02*
X6807848Y-17472984D01*
X6807848Y-17472984D02*
X6826896Y-17463460D01*
X6826896Y-17463460D02*
X6836420Y-17453936D01*
X6836420Y-17453936D02*
X6845944Y-17434889D01*
X6845944Y-17434889D02*
X6845944Y-17387270D01*
X6845944Y-17387270D02*
X6836420Y-17368222D01*
X6836420Y-17368222D02*
X6826896Y-17358698D01*
X6826896Y-17358698D02*
X6807848Y-17349174D01*
X6807848Y-17349174D02*
X6769753Y-17349174D01*
X6769753Y-17349174D02*
X6750706Y-17358698D01*
X6750706Y-17358698D02*
X6741182Y-17368222D01*
X6741182Y-17368222D02*
X6731658Y-17387270D01*
X6922134Y-17272984D02*
X6922134Y-17311079D01*
X6998325Y-17272984D02*
X6998325Y-17311079D01*
X7293563Y-17549174D02*
X7284039Y-17539650D01*
X7284039Y-17539650D02*
X7264991Y-17511079D01*
X7264991Y-17511079D02*
X7255468Y-17492031D01*
X7255468Y-17492031D02*
X7245944Y-17463460D01*
X7245944Y-17463460D02*
X7236420Y-17415841D01*
X7236420Y-17415841D02*
X7236420Y-17377746D01*
X7236420Y-17377746D02*
X7245944Y-17330127D01*
X7245944Y-17330127D02*
X7255468Y-17301555D01*
X7255468Y-17301555D02*
X7264991Y-17282508D01*
X7264991Y-17282508D02*
X7284039Y-17253936D01*
X7284039Y-17253936D02*
X7293563Y-17244412D01*
X7407848Y-17272984D02*
X7426896Y-17272984D01*
X7426896Y-17272984D02*
X7445944Y-17282508D01*
X7445944Y-17282508D02*
X7455468Y-17292031D01*
X7455468Y-17292031D02*
X7464991Y-17311079D01*
X7464991Y-17311079D02*
X7474515Y-17349174D01*
X7474515Y-17349174D02*
X7474515Y-17396793D01*
X7474515Y-17396793D02*
X7464991Y-17434889D01*
X7464991Y-17434889D02*
X7455468Y-17453936D01*
X7455468Y-17453936D02*
X7445944Y-17463460D01*
X7445944Y-17463460D02*
X7426896Y-17472984D01*
X7426896Y-17472984D02*
X7407848Y-17472984D01*
X7407848Y-17472984D02*
X7388801Y-17463460D01*
X7388801Y-17463460D02*
X7379277Y-17453936D01*
X7379277Y-17453936D02*
X7369753Y-17434889D01*
X7369753Y-17434889D02*
X7360229Y-17396793D01*
X7360229Y-17396793D02*
X7360229Y-17349174D01*
X7360229Y-17349174D02*
X7369753Y-17311079D01*
X7369753Y-17311079D02*
X7379277Y-17292031D01*
X7379277Y-17292031D02*
X7388801Y-17282508D01*
X7388801Y-17282508D02*
X7407848Y-17272984D01*
X7712610Y-17472984D02*
X7712610Y-17272984D01*
X7798325Y-17472984D02*
X7798325Y-17368222D01*
X7798325Y-17368222D02*
X7788801Y-17349174D01*
X7788801Y-17349174D02*
X7769753Y-17339650D01*
X7769753Y-17339650D02*
X7741182Y-17339650D01*
X7741182Y-17339650D02*
X7722134Y-17349174D01*
X7722134Y-17349174D02*
X7712610Y-17358698D01*
X7922134Y-17472984D02*
X7903087Y-17463460D01*
X7903087Y-17463460D02*
X7893563Y-17453936D01*
X7893563Y-17453936D02*
X7884039Y-17434889D01*
X7884039Y-17434889D02*
X7884039Y-17377746D01*
X7884039Y-17377746D02*
X7893563Y-17358698D01*
X7893563Y-17358698D02*
X7903087Y-17349174D01*
X7903087Y-17349174D02*
X7922134Y-17339650D01*
X7922134Y-17339650D02*
X7950706Y-17339650D01*
X7950706Y-17339650D02*
X7969753Y-17349174D01*
X7969753Y-17349174D02*
X7979277Y-17358698D01*
X7979277Y-17358698D02*
X7988801Y-17377746D01*
X7988801Y-17377746D02*
X7988801Y-17434889D01*
X7988801Y-17434889D02*
X7979277Y-17453936D01*
X7979277Y-17453936D02*
X7969753Y-17463460D01*
X7969753Y-17463460D02*
X7950706Y-17472984D01*
X7950706Y-17472984D02*
X7922134Y-17472984D01*
X8103087Y-17472984D02*
X8084039Y-17463460D01*
X8084039Y-17463460D02*
X8074515Y-17444412D01*
X8074515Y-17444412D02*
X8074515Y-17272984D01*
X8255468Y-17463460D02*
X8236420Y-17472984D01*
X8236420Y-17472984D02*
X8198325Y-17472984D01*
X8198325Y-17472984D02*
X8179277Y-17463460D01*
X8179277Y-17463460D02*
X8169753Y-17444412D01*
X8169753Y-17444412D02*
X8169753Y-17368222D01*
X8169753Y-17368222D02*
X8179277Y-17349174D01*
X8179277Y-17349174D02*
X8198325Y-17339650D01*
X8198325Y-17339650D02*
X8236420Y-17339650D01*
X8236420Y-17339650D02*
X8255468Y-17349174D01*
X8255468Y-17349174D02*
X8264991Y-17368222D01*
X8264991Y-17368222D02*
X8264991Y-17387270D01*
X8264991Y-17387270D02*
X8169753Y-17406317D01*
X8341182Y-17463460D02*
X8360230Y-17472984D01*
X8360230Y-17472984D02*
X8398325Y-17472984D01*
X8398325Y-17472984D02*
X8417373Y-17463460D01*
X8417373Y-17463460D02*
X8426896Y-17444412D01*
X8426896Y-17444412D02*
X8426896Y-17434889D01*
X8426896Y-17434889D02*
X8417373Y-17415841D01*
X8417373Y-17415841D02*
X8398325Y-17406317D01*
X8398325Y-17406317D02*
X8369753Y-17406317D01*
X8369753Y-17406317D02*
X8350706Y-17396793D01*
X8350706Y-17396793D02*
X8341182Y-17377746D01*
X8341182Y-17377746D02*
X8341182Y-17368222D01*
X8341182Y-17368222D02*
X8350706Y-17349174D01*
X8350706Y-17349174D02*
X8369753Y-17339650D01*
X8369753Y-17339650D02*
X8398325Y-17339650D01*
X8398325Y-17339650D02*
X8417373Y-17349174D01*
X8664992Y-17396793D02*
X8817373Y-17396793D01*
X8741182Y-17472984D02*
X8741182Y-17320603D01*
X9150706Y-17339650D02*
X9150706Y-17472984D01*
X9103087Y-17263460D02*
X9055468Y-17406317D01*
X9055468Y-17406317D02*
X9179277Y-17406317D01*
X9398325Y-17463460D02*
X9417373Y-17472984D01*
X9417373Y-17472984D02*
X9455468Y-17472984D01*
X9455468Y-17472984D02*
X9474516Y-17463460D01*
X9474516Y-17463460D02*
X9484039Y-17444412D01*
X9484039Y-17444412D02*
X9484039Y-17434889D01*
X9484039Y-17434889D02*
X9474516Y-17415841D01*
X9474516Y-17415841D02*
X9455468Y-17406317D01*
X9455468Y-17406317D02*
X9426896Y-17406317D01*
X9426896Y-17406317D02*
X9407849Y-17396793D01*
X9407849Y-17396793D02*
X9398325Y-17377746D01*
X9398325Y-17377746D02*
X9398325Y-17368222D01*
X9398325Y-17368222D02*
X9407849Y-17349174D01*
X9407849Y-17349174D02*
X9426896Y-17339650D01*
X9426896Y-17339650D02*
X9455468Y-17339650D01*
X9455468Y-17339650D02*
X9474516Y-17349174D01*
X9598325Y-17472984D02*
X9579277Y-17463460D01*
X9579277Y-17463460D02*
X9569754Y-17444412D01*
X9569754Y-17444412D02*
X9569754Y-17272984D01*
X9703087Y-17472984D02*
X9684039Y-17463460D01*
X9684039Y-17463460D02*
X9674516Y-17453936D01*
X9674516Y-17453936D02*
X9664992Y-17434889D01*
X9664992Y-17434889D02*
X9664992Y-17377746D01*
X9664992Y-17377746D02*
X9674516Y-17358698D01*
X9674516Y-17358698D02*
X9684039Y-17349174D01*
X9684039Y-17349174D02*
X9703087Y-17339650D01*
X9703087Y-17339650D02*
X9731658Y-17339650D01*
X9731658Y-17339650D02*
X9750706Y-17349174D01*
X9750706Y-17349174D02*
X9760230Y-17358698D01*
X9760230Y-17358698D02*
X9769754Y-17377746D01*
X9769754Y-17377746D02*
X9769754Y-17434889D01*
X9769754Y-17434889D02*
X9760230Y-17453936D01*
X9760230Y-17453936D02*
X9750706Y-17463460D01*
X9750706Y-17463460D02*
X9731658Y-17472984D01*
X9731658Y-17472984D02*
X9703087Y-17472984D01*
X9826897Y-17339650D02*
X9903087Y-17339650D01*
X9855468Y-17272984D02*
X9855468Y-17444412D01*
X9855468Y-17444412D02*
X9864992Y-17463460D01*
X9864992Y-17463460D02*
X9884039Y-17472984D01*
X9884039Y-17472984D02*
X9903087Y-17472984D01*
X9960230Y-17463460D02*
X9979277Y-17472984D01*
X9979277Y-17472984D02*
X10017373Y-17472984D01*
X10017373Y-17472984D02*
X10036420Y-17463460D01*
X10036420Y-17463460D02*
X10045944Y-17444412D01*
X10045944Y-17444412D02*
X10045944Y-17434889D01*
X10045944Y-17434889D02*
X10036420Y-17415841D01*
X10036420Y-17415841D02*
X10017373Y-17406317D01*
X10017373Y-17406317D02*
X9988801Y-17406317D01*
X9988801Y-17406317D02*
X9969754Y-17396793D01*
X9969754Y-17396793D02*
X9960230Y-17377746D01*
X9960230Y-17377746D02*
X9960230Y-17368222D01*
X9960230Y-17368222D02*
X9969754Y-17349174D01*
X9969754Y-17349174D02*
X9988801Y-17339650D01*
X9988801Y-17339650D02*
X10017373Y-17339650D01*
X10017373Y-17339650D02*
X10036420Y-17349174D01*
X10112611Y-17549174D02*
X10122135Y-17539650D01*
X10122135Y-17539650D02*
X10141182Y-17511079D01*
X10141182Y-17511079D02*
X10150706Y-17492031D01*
X10150706Y-17492031D02*
X10160230Y-17463460D01*
X10160230Y-17463460D02*
X10169754Y-17415841D01*
X10169754Y-17415841D02*
X10169754Y-17377746D01*
X10169754Y-17377746D02*
X10160230Y-17330127D01*
X10160230Y-17330127D02*
X10150706Y-17301555D01*
X10150706Y-17301555D02*
X10141182Y-17282508D01*
X10141182Y-17282508D02*
X10122135Y-17253936D01*
X10122135Y-17253936D02*
X10112611Y-17244412D01*
D10*
X3668500Y-17595500D02*
X3668500Y-17695500D01*
X3618500Y-17645500D02*
X3718500Y-17645500D01*
D11*
X4084039Y-17736984D02*
X3969753Y-17736984D01*
X4026896Y-17736984D02*
X4026896Y-17536984D01*
X4026896Y-17536984D02*
X4007848Y-17565555D01*
X4007848Y-17565555D02*
X3988801Y-17584603D01*
X3988801Y-17584603D02*
X3969753Y-17594127D01*
X4169753Y-17717936D02*
X4179277Y-17727460D01*
X4179277Y-17727460D02*
X4169753Y-17736984D01*
X4169753Y-17736984D02*
X4160229Y-17727460D01*
X4160229Y-17727460D02*
X4169753Y-17717936D01*
X4169753Y-17717936D02*
X4169753Y-17736984D01*
X4303086Y-17536984D02*
X4322134Y-17536984D01*
X4322134Y-17536984D02*
X4341182Y-17546508D01*
X4341182Y-17546508D02*
X4350705Y-17556031D01*
X4350705Y-17556031D02*
X4360229Y-17575079D01*
X4360229Y-17575079D02*
X4369753Y-17613174D01*
X4369753Y-17613174D02*
X4369753Y-17660793D01*
X4369753Y-17660793D02*
X4360229Y-17698889D01*
X4360229Y-17698889D02*
X4350705Y-17717936D01*
X4350705Y-17717936D02*
X4341182Y-17727460D01*
X4341182Y-17727460D02*
X4322134Y-17736984D01*
X4322134Y-17736984D02*
X4303086Y-17736984D01*
X4303086Y-17736984D02*
X4284039Y-17727460D01*
X4284039Y-17727460D02*
X4274515Y-17717936D01*
X4274515Y-17717936D02*
X4264991Y-17698889D01*
X4264991Y-17698889D02*
X4255467Y-17660793D01*
X4255467Y-17660793D02*
X4255467Y-17613174D01*
X4255467Y-17613174D02*
X4264991Y-17575079D01*
X4264991Y-17575079D02*
X4274515Y-17556031D01*
X4274515Y-17556031D02*
X4284039Y-17546508D01*
X4284039Y-17546508D02*
X4303086Y-17536984D01*
X4493563Y-17536984D02*
X4512610Y-17536984D01*
X4512610Y-17536984D02*
X4531658Y-17546508D01*
X4531658Y-17546508D02*
X4541182Y-17556031D01*
X4541182Y-17556031D02*
X4550705Y-17575079D01*
X4550705Y-17575079D02*
X4560229Y-17613174D01*
X4560229Y-17613174D02*
X4560229Y-17660793D01*
X4560229Y-17660793D02*
X4550705Y-17698889D01*
X4550705Y-17698889D02*
X4541182Y-17717936D01*
X4541182Y-17717936D02*
X4531658Y-17727460D01*
X4531658Y-17727460D02*
X4512610Y-17736984D01*
X4512610Y-17736984D02*
X4493563Y-17736984D01*
X4493563Y-17736984D02*
X4474515Y-17727460D01*
X4474515Y-17727460D02*
X4464991Y-17717936D01*
X4464991Y-17717936D02*
X4455467Y-17698889D01*
X4455467Y-17698889D02*
X4445944Y-17660793D01*
X4445944Y-17660793D02*
X4445944Y-17613174D01*
X4445944Y-17613174D02*
X4455467Y-17575079D01*
X4455467Y-17575079D02*
X4464991Y-17556031D01*
X4464991Y-17556031D02*
X4474515Y-17546508D01*
X4474515Y-17546508D02*
X4493563Y-17536984D01*
X4684039Y-17536984D02*
X4703086Y-17536984D01*
X4703086Y-17536984D02*
X4722134Y-17546508D01*
X4722134Y-17546508D02*
X4731658Y-17556031D01*
X4731658Y-17556031D02*
X4741182Y-17575079D01*
X4741182Y-17575079D02*
X4750705Y-17613174D01*
X4750705Y-17613174D02*
X4750705Y-17660793D01*
X4750705Y-17660793D02*
X4741182Y-17698889D01*
X4741182Y-17698889D02*
X4731658Y-17717936D01*
X4731658Y-17717936D02*
X4722134Y-17727460D01*
X4722134Y-17727460D02*
X4703086Y-17736984D01*
X4703086Y-17736984D02*
X4684039Y-17736984D01*
X4684039Y-17736984D02*
X4664991Y-17727460D01*
X4664991Y-17727460D02*
X4655467Y-17717936D01*
X4655467Y-17717936D02*
X4645944Y-17698889D01*
X4645944Y-17698889D02*
X4636420Y-17660793D01*
X4636420Y-17660793D02*
X4636420Y-17613174D01*
X4636420Y-17613174D02*
X4645944Y-17575079D01*
X4645944Y-17575079D02*
X4655467Y-17556031D01*
X4655467Y-17556031D02*
X4664991Y-17546508D01*
X4664991Y-17546508D02*
X4684039Y-17536984D01*
X4836420Y-17736984D02*
X4836420Y-17603650D01*
X4836420Y-17622698D02*
X4845944Y-17613174D01*
X4845944Y-17613174D02*
X4864991Y-17603650D01*
X4864991Y-17603650D02*
X4893563Y-17603650D01*
X4893563Y-17603650D02*
X4912610Y-17613174D01*
X4912610Y-17613174D02*
X4922134Y-17632222D01*
X4922134Y-17632222D02*
X4922134Y-17736984D01*
X4922134Y-17632222D02*
X4931658Y-17613174D01*
X4931658Y-17613174D02*
X4950705Y-17603650D01*
X4950705Y-17603650D02*
X4979277Y-17603650D01*
X4979277Y-17603650D02*
X4998325Y-17613174D01*
X4998325Y-17613174D02*
X5007848Y-17632222D01*
X5007848Y-17632222D02*
X5007848Y-17736984D01*
X5103086Y-17736984D02*
X5103086Y-17603650D01*
X5103086Y-17622698D02*
X5112610Y-17613174D01*
X5112610Y-17613174D02*
X5131658Y-17603650D01*
X5131658Y-17603650D02*
X5160229Y-17603650D01*
X5160229Y-17603650D02*
X5179277Y-17613174D01*
X5179277Y-17613174D02*
X5188801Y-17632222D01*
X5188801Y-17632222D02*
X5188801Y-17736984D01*
X5188801Y-17632222D02*
X5198325Y-17613174D01*
X5198325Y-17613174D02*
X5217372Y-17603650D01*
X5217372Y-17603650D02*
X5245944Y-17603650D01*
X5245944Y-17603650D02*
X5264991Y-17613174D01*
X5264991Y-17613174D02*
X5274515Y-17632222D01*
X5274515Y-17632222D02*
X5274515Y-17736984D01*
X5664991Y-17527460D02*
X5493563Y-17784603D01*
X5922134Y-17536984D02*
X5941182Y-17536984D01*
X5941182Y-17536984D02*
X5960229Y-17546508D01*
X5960229Y-17546508D02*
X5969753Y-17556031D01*
X5969753Y-17556031D02*
X5979277Y-17575079D01*
X5979277Y-17575079D02*
X5988801Y-17613174D01*
X5988801Y-17613174D02*
X5988801Y-17660793D01*
X5988801Y-17660793D02*
X5979277Y-17698889D01*
X5979277Y-17698889D02*
X5969753Y-17717936D01*
X5969753Y-17717936D02*
X5960229Y-17727460D01*
X5960229Y-17727460D02*
X5941182Y-17736984D01*
X5941182Y-17736984D02*
X5922134Y-17736984D01*
X5922134Y-17736984D02*
X5903086Y-17727460D01*
X5903086Y-17727460D02*
X5893563Y-17717936D01*
X5893563Y-17717936D02*
X5884039Y-17698889D01*
X5884039Y-17698889D02*
X5874515Y-17660793D01*
X5874515Y-17660793D02*
X5874515Y-17613174D01*
X5874515Y-17613174D02*
X5884039Y-17575079D01*
X5884039Y-17575079D02*
X5893563Y-17556031D01*
X5893563Y-17556031D02*
X5903086Y-17546508D01*
X5903086Y-17546508D02*
X5922134Y-17536984D01*
X6074515Y-17717936D02*
X6084039Y-17727460D01*
X6084039Y-17727460D02*
X6074515Y-17736984D01*
X6074515Y-17736984D02*
X6064991Y-17727460D01*
X6064991Y-17727460D02*
X6074515Y-17717936D01*
X6074515Y-17717936D02*
X6074515Y-17736984D01*
X6207848Y-17536984D02*
X6226896Y-17536984D01*
X6226896Y-17536984D02*
X6245944Y-17546508D01*
X6245944Y-17546508D02*
X6255467Y-17556031D01*
X6255467Y-17556031D02*
X6264991Y-17575079D01*
X6264991Y-17575079D02*
X6274515Y-17613174D01*
X6274515Y-17613174D02*
X6274515Y-17660793D01*
X6274515Y-17660793D02*
X6264991Y-17698889D01*
X6264991Y-17698889D02*
X6255467Y-17717936D01*
X6255467Y-17717936D02*
X6245944Y-17727460D01*
X6245944Y-17727460D02*
X6226896Y-17736984D01*
X6226896Y-17736984D02*
X6207848Y-17736984D01*
X6207848Y-17736984D02*
X6188801Y-17727460D01*
X6188801Y-17727460D02*
X6179277Y-17717936D01*
X6179277Y-17717936D02*
X6169753Y-17698889D01*
X6169753Y-17698889D02*
X6160229Y-17660793D01*
X6160229Y-17660793D02*
X6160229Y-17613174D01*
X6160229Y-17613174D02*
X6169753Y-17575079D01*
X6169753Y-17575079D02*
X6179277Y-17556031D01*
X6179277Y-17556031D02*
X6188801Y-17546508D01*
X6188801Y-17546508D02*
X6207848Y-17536984D01*
X6341182Y-17536984D02*
X6464991Y-17536984D01*
X6464991Y-17536984D02*
X6398325Y-17613174D01*
X6398325Y-17613174D02*
X6426896Y-17613174D01*
X6426896Y-17613174D02*
X6445944Y-17622698D01*
X6445944Y-17622698D02*
X6455467Y-17632222D01*
X6455467Y-17632222D02*
X6464991Y-17651270D01*
X6464991Y-17651270D02*
X6464991Y-17698889D01*
X6464991Y-17698889D02*
X6455467Y-17717936D01*
X6455467Y-17717936D02*
X6445944Y-17727460D01*
X6445944Y-17727460D02*
X6426896Y-17736984D01*
X6426896Y-17736984D02*
X6369753Y-17736984D01*
X6369753Y-17736984D02*
X6350706Y-17727460D01*
X6350706Y-17727460D02*
X6341182Y-17717936D01*
X6560229Y-17736984D02*
X6598325Y-17736984D01*
X6598325Y-17736984D02*
X6617372Y-17727460D01*
X6617372Y-17727460D02*
X6626896Y-17717936D01*
X6626896Y-17717936D02*
X6645944Y-17689365D01*
X6645944Y-17689365D02*
X6655467Y-17651270D01*
X6655467Y-17651270D02*
X6655467Y-17575079D01*
X6655467Y-17575079D02*
X6645944Y-17556031D01*
X6645944Y-17556031D02*
X6636420Y-17546508D01*
X6636420Y-17546508D02*
X6617372Y-17536984D01*
X6617372Y-17536984D02*
X6579277Y-17536984D01*
X6579277Y-17536984D02*
X6560229Y-17546508D01*
X6560229Y-17546508D02*
X6550706Y-17556031D01*
X6550706Y-17556031D02*
X6541182Y-17575079D01*
X6541182Y-17575079D02*
X6541182Y-17622698D01*
X6541182Y-17622698D02*
X6550706Y-17641746D01*
X6550706Y-17641746D02*
X6560229Y-17651270D01*
X6560229Y-17651270D02*
X6579277Y-17660793D01*
X6579277Y-17660793D02*
X6617372Y-17660793D01*
X6617372Y-17660793D02*
X6636420Y-17651270D01*
X6636420Y-17651270D02*
X6645944Y-17641746D01*
X6645944Y-17641746D02*
X6655467Y-17622698D01*
X6826896Y-17603650D02*
X6826896Y-17736984D01*
X6779277Y-17527460D02*
X6731658Y-17670317D01*
X6731658Y-17670317D02*
X6855467Y-17670317D01*
X6922134Y-17536984D02*
X6922134Y-17575079D01*
X6998325Y-17536984D02*
X6998325Y-17575079D01*
X7293563Y-17813174D02*
X7284039Y-17803650D01*
X7284039Y-17803650D02*
X7264991Y-17775079D01*
X7264991Y-17775079D02*
X7255468Y-17756031D01*
X7255468Y-17756031D02*
X7245944Y-17727460D01*
X7245944Y-17727460D02*
X7236420Y-17679841D01*
X7236420Y-17679841D02*
X7236420Y-17641746D01*
X7236420Y-17641746D02*
X7245944Y-17594127D01*
X7245944Y-17594127D02*
X7255468Y-17565555D01*
X7255468Y-17565555D02*
X7264991Y-17546508D01*
X7264991Y-17546508D02*
X7284039Y-17517936D01*
X7284039Y-17517936D02*
X7293563Y-17508412D01*
X7474515Y-17736984D02*
X7360229Y-17736984D01*
X7417372Y-17736984D02*
X7417372Y-17536984D01*
X7417372Y-17536984D02*
X7398325Y-17565555D01*
X7398325Y-17565555D02*
X7379277Y-17584603D01*
X7379277Y-17584603D02*
X7360229Y-17594127D01*
X7541182Y-17536984D02*
X7664991Y-17536984D01*
X7664991Y-17536984D02*
X7598325Y-17613174D01*
X7598325Y-17613174D02*
X7626896Y-17613174D01*
X7626896Y-17613174D02*
X7645944Y-17622698D01*
X7645944Y-17622698D02*
X7655468Y-17632222D01*
X7655468Y-17632222D02*
X7664991Y-17651270D01*
X7664991Y-17651270D02*
X7664991Y-17698889D01*
X7664991Y-17698889D02*
X7655468Y-17717936D01*
X7655468Y-17717936D02*
X7645944Y-17727460D01*
X7645944Y-17727460D02*
X7626896Y-17736984D01*
X7626896Y-17736984D02*
X7569753Y-17736984D01*
X7569753Y-17736984D02*
X7550706Y-17727460D01*
X7550706Y-17727460D02*
X7541182Y-17717936D01*
X7903087Y-17736984D02*
X7903087Y-17536984D01*
X7988801Y-17736984D02*
X7988801Y-17632222D01*
X7988801Y-17632222D02*
X7979277Y-17613174D01*
X7979277Y-17613174D02*
X7960230Y-17603650D01*
X7960230Y-17603650D02*
X7931658Y-17603650D01*
X7931658Y-17603650D02*
X7912610Y-17613174D01*
X7912610Y-17613174D02*
X7903087Y-17622698D01*
X8112610Y-17736984D02*
X8093563Y-17727460D01*
X8093563Y-17727460D02*
X8084039Y-17717936D01*
X8084039Y-17717936D02*
X8074515Y-17698889D01*
X8074515Y-17698889D02*
X8074515Y-17641746D01*
X8074515Y-17641746D02*
X8084039Y-17622698D01*
X8084039Y-17622698D02*
X8093563Y-17613174D01*
X8093563Y-17613174D02*
X8112610Y-17603650D01*
X8112610Y-17603650D02*
X8141182Y-17603650D01*
X8141182Y-17603650D02*
X8160230Y-17613174D01*
X8160230Y-17613174D02*
X8169753Y-17622698D01*
X8169753Y-17622698D02*
X8179277Y-17641746D01*
X8179277Y-17641746D02*
X8179277Y-17698889D01*
X8179277Y-17698889D02*
X8169753Y-17717936D01*
X8169753Y-17717936D02*
X8160230Y-17727460D01*
X8160230Y-17727460D02*
X8141182Y-17736984D01*
X8141182Y-17736984D02*
X8112610Y-17736984D01*
X8293563Y-17736984D02*
X8274515Y-17727460D01*
X8274515Y-17727460D02*
X8264991Y-17708412D01*
X8264991Y-17708412D02*
X8264991Y-17536984D01*
X8445944Y-17727460D02*
X8426896Y-17736984D01*
X8426896Y-17736984D02*
X8388801Y-17736984D01*
X8388801Y-17736984D02*
X8369753Y-17727460D01*
X8369753Y-17727460D02*
X8360230Y-17708412D01*
X8360230Y-17708412D02*
X8360230Y-17632222D01*
X8360230Y-17632222D02*
X8369753Y-17613174D01*
X8369753Y-17613174D02*
X8388801Y-17603650D01*
X8388801Y-17603650D02*
X8426896Y-17603650D01*
X8426896Y-17603650D02*
X8445944Y-17613174D01*
X8445944Y-17613174D02*
X8455468Y-17632222D01*
X8455468Y-17632222D02*
X8455468Y-17651270D01*
X8455468Y-17651270D02*
X8360230Y-17670317D01*
X8531658Y-17727460D02*
X8550706Y-17736984D01*
X8550706Y-17736984D02*
X8588801Y-17736984D01*
X8588801Y-17736984D02*
X8607849Y-17727460D01*
X8607849Y-17727460D02*
X8617373Y-17708412D01*
X8617373Y-17708412D02*
X8617373Y-17698889D01*
X8617373Y-17698889D02*
X8607849Y-17679841D01*
X8607849Y-17679841D02*
X8588801Y-17670317D01*
X8588801Y-17670317D02*
X8560230Y-17670317D01*
X8560230Y-17670317D02*
X8541182Y-17660793D01*
X8541182Y-17660793D02*
X8531658Y-17641746D01*
X8531658Y-17641746D02*
X8531658Y-17632222D01*
X8531658Y-17632222D02*
X8541182Y-17613174D01*
X8541182Y-17613174D02*
X8560230Y-17603650D01*
X8560230Y-17603650D02*
X8588801Y-17603650D01*
X8588801Y-17603650D02*
X8607849Y-17613174D01*
X8684039Y-17813174D02*
X8693563Y-17803650D01*
X8693563Y-17803650D02*
X8712611Y-17775079D01*
X8712611Y-17775079D02*
X8722134Y-17756031D01*
X8722134Y-17756031D02*
X8731658Y-17727460D01*
X8731658Y-17727460D02*
X8741182Y-17679841D01*
X8741182Y-17679841D02*
X8741182Y-17641746D01*
X8741182Y-17641746D02*
X8731658Y-17594127D01*
X8731658Y-17594127D02*
X8722134Y-17565555D01*
X8722134Y-17565555D02*
X8712611Y-17546508D01*
X8712611Y-17546508D02*
X8693563Y-17517936D01*
X8693563Y-17517936D02*
X8684039Y-17508412D01*
X3689211Y-17980211D02*
X3689211Y-17838789D01*
X3547789Y-17838789D01*
X3547789Y-17980211D01*
X3689211Y-17980211D01*
X3969753Y-17820031D02*
X3979277Y-17810508D01*
X3979277Y-17810508D02*
X3998324Y-17800984D01*
X3998324Y-17800984D02*
X4045943Y-17800984D01*
X4045943Y-17800984D02*
X4064991Y-17810508D01*
X4064991Y-17810508D02*
X4074515Y-17820031D01*
X4074515Y-17820031D02*
X4084039Y-17839079D01*
X4084039Y-17839079D02*
X4084039Y-17858127D01*
X4084039Y-17858127D02*
X4074515Y-17886698D01*
X4074515Y-17886698D02*
X3960229Y-18000984D01*
X3960229Y-18000984D02*
X4084039Y-18000984D01*
X4169753Y-17981936D02*
X4179277Y-17991460D01*
X4179277Y-17991460D02*
X4169753Y-18000984D01*
X4169753Y-18000984D02*
X4160229Y-17991460D01*
X4160229Y-17991460D02*
X4169753Y-17981936D01*
X4169753Y-17981936D02*
X4169753Y-18000984D01*
X4350705Y-17800984D02*
X4312610Y-17800984D01*
X4312610Y-17800984D02*
X4293563Y-17810508D01*
X4293563Y-17810508D02*
X4284039Y-17820031D01*
X4284039Y-17820031D02*
X4264991Y-17848603D01*
X4264991Y-17848603D02*
X4255467Y-17886698D01*
X4255467Y-17886698D02*
X4255467Y-17962889D01*
X4255467Y-17962889D02*
X4264991Y-17981936D01*
X4264991Y-17981936D02*
X4274515Y-17991460D01*
X4274515Y-17991460D02*
X4293563Y-18000984D01*
X4293563Y-18000984D02*
X4331658Y-18000984D01*
X4331658Y-18000984D02*
X4350705Y-17991460D01*
X4350705Y-17991460D02*
X4360229Y-17981936D01*
X4360229Y-17981936D02*
X4369753Y-17962889D01*
X4369753Y-17962889D02*
X4369753Y-17915270D01*
X4369753Y-17915270D02*
X4360229Y-17896222D01*
X4360229Y-17896222D02*
X4350705Y-17886698D01*
X4350705Y-17886698D02*
X4331658Y-17877174D01*
X4331658Y-17877174D02*
X4293563Y-17877174D01*
X4293563Y-17877174D02*
X4274515Y-17886698D01*
X4274515Y-17886698D02*
X4264991Y-17896222D01*
X4264991Y-17896222D02*
X4255467Y-17915270D01*
X4493563Y-17800984D02*
X4512610Y-17800984D01*
X4512610Y-17800984D02*
X4531658Y-17810508D01*
X4531658Y-17810508D02*
X4541182Y-17820031D01*
X4541182Y-17820031D02*
X4550705Y-17839079D01*
X4550705Y-17839079D02*
X4560229Y-17877174D01*
X4560229Y-17877174D02*
X4560229Y-17924793D01*
X4560229Y-17924793D02*
X4550705Y-17962889D01*
X4550705Y-17962889D02*
X4541182Y-17981936D01*
X4541182Y-17981936D02*
X4531658Y-17991460D01*
X4531658Y-17991460D02*
X4512610Y-18000984D01*
X4512610Y-18000984D02*
X4493563Y-18000984D01*
X4493563Y-18000984D02*
X4474515Y-17991460D01*
X4474515Y-17991460D02*
X4464991Y-17981936D01*
X4464991Y-17981936D02*
X4455467Y-17962889D01*
X4455467Y-17962889D02*
X4445944Y-17924793D01*
X4445944Y-17924793D02*
X4445944Y-17877174D01*
X4445944Y-17877174D02*
X4455467Y-17839079D01*
X4455467Y-17839079D02*
X4464991Y-17820031D01*
X4464991Y-17820031D02*
X4474515Y-17810508D01*
X4474515Y-17810508D02*
X4493563Y-17800984D01*
X4684039Y-17800984D02*
X4703086Y-17800984D01*
X4703086Y-17800984D02*
X4722134Y-17810508D01*
X4722134Y-17810508D02*
X4731658Y-17820031D01*
X4731658Y-17820031D02*
X4741182Y-17839079D01*
X4741182Y-17839079D02*
X4750705Y-17877174D01*
X4750705Y-17877174D02*
X4750705Y-17924793D01*
X4750705Y-17924793D02*
X4741182Y-17962889D01*
X4741182Y-17962889D02*
X4731658Y-17981936D01*
X4731658Y-17981936D02*
X4722134Y-17991460D01*
X4722134Y-17991460D02*
X4703086Y-18000984D01*
X4703086Y-18000984D02*
X4684039Y-18000984D01*
X4684039Y-18000984D02*
X4664991Y-17991460D01*
X4664991Y-17991460D02*
X4655467Y-17981936D01*
X4655467Y-17981936D02*
X4645944Y-17962889D01*
X4645944Y-17962889D02*
X4636420Y-17924793D01*
X4636420Y-17924793D02*
X4636420Y-17877174D01*
X4636420Y-17877174D02*
X4645944Y-17839079D01*
X4645944Y-17839079D02*
X4655467Y-17820031D01*
X4655467Y-17820031D02*
X4664991Y-17810508D01*
X4664991Y-17810508D02*
X4684039Y-17800984D01*
X4836420Y-18000984D02*
X4836420Y-17867650D01*
X4836420Y-17886698D02*
X4845944Y-17877174D01*
X4845944Y-17877174D02*
X4864991Y-17867650D01*
X4864991Y-17867650D02*
X4893563Y-17867650D01*
X4893563Y-17867650D02*
X4912610Y-17877174D01*
X4912610Y-17877174D02*
X4922134Y-17896222D01*
X4922134Y-17896222D02*
X4922134Y-18000984D01*
X4922134Y-17896222D02*
X4931658Y-17877174D01*
X4931658Y-17877174D02*
X4950705Y-17867650D01*
X4950705Y-17867650D02*
X4979277Y-17867650D01*
X4979277Y-17867650D02*
X4998325Y-17877174D01*
X4998325Y-17877174D02*
X5007848Y-17896222D01*
X5007848Y-17896222D02*
X5007848Y-18000984D01*
X5103086Y-18000984D02*
X5103086Y-17867650D01*
X5103086Y-17886698D02*
X5112610Y-17877174D01*
X5112610Y-17877174D02*
X5131658Y-17867650D01*
X5131658Y-17867650D02*
X5160229Y-17867650D01*
X5160229Y-17867650D02*
X5179277Y-17877174D01*
X5179277Y-17877174D02*
X5188801Y-17896222D01*
X5188801Y-17896222D02*
X5188801Y-18000984D01*
X5188801Y-17896222D02*
X5198325Y-17877174D01*
X5198325Y-17877174D02*
X5217372Y-17867650D01*
X5217372Y-17867650D02*
X5245944Y-17867650D01*
X5245944Y-17867650D02*
X5264991Y-17877174D01*
X5264991Y-17877174D02*
X5274515Y-17896222D01*
X5274515Y-17896222D02*
X5274515Y-18000984D01*
X5664991Y-17791460D02*
X5493563Y-18048603D01*
X5922134Y-17800984D02*
X5941182Y-17800984D01*
X5941182Y-17800984D02*
X5960229Y-17810508D01*
X5960229Y-17810508D02*
X5969753Y-17820031D01*
X5969753Y-17820031D02*
X5979277Y-17839079D01*
X5979277Y-17839079D02*
X5988801Y-17877174D01*
X5988801Y-17877174D02*
X5988801Y-17924793D01*
X5988801Y-17924793D02*
X5979277Y-17962889D01*
X5979277Y-17962889D02*
X5969753Y-17981936D01*
X5969753Y-17981936D02*
X5960229Y-17991460D01*
X5960229Y-17991460D02*
X5941182Y-18000984D01*
X5941182Y-18000984D02*
X5922134Y-18000984D01*
X5922134Y-18000984D02*
X5903086Y-17991460D01*
X5903086Y-17991460D02*
X5893563Y-17981936D01*
X5893563Y-17981936D02*
X5884039Y-17962889D01*
X5884039Y-17962889D02*
X5874515Y-17924793D01*
X5874515Y-17924793D02*
X5874515Y-17877174D01*
X5874515Y-17877174D02*
X5884039Y-17839079D01*
X5884039Y-17839079D02*
X5893563Y-17820031D01*
X5893563Y-17820031D02*
X5903086Y-17810508D01*
X5903086Y-17810508D02*
X5922134Y-17800984D01*
X6074515Y-17981936D02*
X6084039Y-17991460D01*
X6084039Y-17991460D02*
X6074515Y-18000984D01*
X6074515Y-18000984D02*
X6064991Y-17991460D01*
X6064991Y-17991460D02*
X6074515Y-17981936D01*
X6074515Y-17981936D02*
X6074515Y-18000984D01*
X6274515Y-18000984D02*
X6160229Y-18000984D01*
X6217372Y-18000984D02*
X6217372Y-17800984D01*
X6217372Y-17800984D02*
X6198325Y-17829555D01*
X6198325Y-17829555D02*
X6179277Y-17848603D01*
X6179277Y-17848603D02*
X6160229Y-17858127D01*
X6398325Y-17800984D02*
X6417372Y-17800984D01*
X6417372Y-17800984D02*
X6436420Y-17810508D01*
X6436420Y-17810508D02*
X6445944Y-17820031D01*
X6445944Y-17820031D02*
X6455467Y-17839079D01*
X6455467Y-17839079D02*
X6464991Y-17877174D01*
X6464991Y-17877174D02*
X6464991Y-17924793D01*
X6464991Y-17924793D02*
X6455467Y-17962889D01*
X6455467Y-17962889D02*
X6445944Y-17981936D01*
X6445944Y-17981936D02*
X6436420Y-17991460D01*
X6436420Y-17991460D02*
X6417372Y-18000984D01*
X6417372Y-18000984D02*
X6398325Y-18000984D01*
X6398325Y-18000984D02*
X6379277Y-17991460D01*
X6379277Y-17991460D02*
X6369753Y-17981936D01*
X6369753Y-17981936D02*
X6360229Y-17962889D01*
X6360229Y-17962889D02*
X6350706Y-17924793D01*
X6350706Y-17924793D02*
X6350706Y-17877174D01*
X6350706Y-17877174D02*
X6360229Y-17839079D01*
X6360229Y-17839079D02*
X6369753Y-17820031D01*
X6369753Y-17820031D02*
X6379277Y-17810508D01*
X6379277Y-17810508D02*
X6398325Y-17800984D01*
X6541182Y-17820031D02*
X6550706Y-17810508D01*
X6550706Y-17810508D02*
X6569753Y-17800984D01*
X6569753Y-17800984D02*
X6617372Y-17800984D01*
X6617372Y-17800984D02*
X6636420Y-17810508D01*
X6636420Y-17810508D02*
X6645944Y-17820031D01*
X6645944Y-17820031D02*
X6655467Y-17839079D01*
X6655467Y-17839079D02*
X6655467Y-17858127D01*
X6655467Y-17858127D02*
X6645944Y-17886698D01*
X6645944Y-17886698D02*
X6531658Y-18000984D01*
X6531658Y-18000984D02*
X6655467Y-18000984D01*
X6826896Y-17867650D02*
X6826896Y-18000984D01*
X6779277Y-17791460D02*
X6731658Y-17934317D01*
X6731658Y-17934317D02*
X6855467Y-17934317D01*
X6922134Y-17800984D02*
X6922134Y-17839079D01*
X6998325Y-17800984D02*
X6998325Y-17839079D01*
X7293563Y-18077174D02*
X7284039Y-18067650D01*
X7284039Y-18067650D02*
X7264991Y-18039079D01*
X7264991Y-18039079D02*
X7255468Y-18020031D01*
X7255468Y-18020031D02*
X7245944Y-17991460D01*
X7245944Y-17991460D02*
X7236420Y-17943841D01*
X7236420Y-17943841D02*
X7236420Y-17905746D01*
X7236420Y-17905746D02*
X7245944Y-17858127D01*
X7245944Y-17858127D02*
X7255468Y-17829555D01*
X7255468Y-17829555D02*
X7264991Y-17810508D01*
X7264991Y-17810508D02*
X7284039Y-17781936D01*
X7284039Y-17781936D02*
X7293563Y-17772412D01*
X7360229Y-17820031D02*
X7369753Y-17810508D01*
X7369753Y-17810508D02*
X7388801Y-17800984D01*
X7388801Y-17800984D02*
X7436420Y-17800984D01*
X7436420Y-17800984D02*
X7455468Y-17810508D01*
X7455468Y-17810508D02*
X7464991Y-17820031D01*
X7464991Y-17820031D02*
X7474515Y-17839079D01*
X7474515Y-17839079D02*
X7474515Y-17858127D01*
X7474515Y-17858127D02*
X7464991Y-17886698D01*
X7464991Y-17886698D02*
X7350706Y-18000984D01*
X7350706Y-18000984D02*
X7474515Y-18000984D01*
X7712610Y-18000984D02*
X7712610Y-17800984D01*
X7798325Y-18000984D02*
X7798325Y-17896222D01*
X7798325Y-17896222D02*
X7788801Y-17877174D01*
X7788801Y-17877174D02*
X7769753Y-17867650D01*
X7769753Y-17867650D02*
X7741182Y-17867650D01*
X7741182Y-17867650D02*
X7722134Y-17877174D01*
X7722134Y-17877174D02*
X7712610Y-17886698D01*
X7922134Y-18000984D02*
X7903087Y-17991460D01*
X7903087Y-17991460D02*
X7893563Y-17981936D01*
X7893563Y-17981936D02*
X7884039Y-17962889D01*
X7884039Y-17962889D02*
X7884039Y-17905746D01*
X7884039Y-17905746D02*
X7893563Y-17886698D01*
X7893563Y-17886698D02*
X7903087Y-17877174D01*
X7903087Y-17877174D02*
X7922134Y-17867650D01*
X7922134Y-17867650D02*
X7950706Y-17867650D01*
X7950706Y-17867650D02*
X7969753Y-17877174D01*
X7969753Y-17877174D02*
X7979277Y-17886698D01*
X7979277Y-17886698D02*
X7988801Y-17905746D01*
X7988801Y-17905746D02*
X7988801Y-17962889D01*
X7988801Y-17962889D02*
X7979277Y-17981936D01*
X7979277Y-17981936D02*
X7969753Y-17991460D01*
X7969753Y-17991460D02*
X7950706Y-18000984D01*
X7950706Y-18000984D02*
X7922134Y-18000984D01*
X8103087Y-18000984D02*
X8084039Y-17991460D01*
X8084039Y-17991460D02*
X8074515Y-17972412D01*
X8074515Y-17972412D02*
X8074515Y-17800984D01*
X8255468Y-17991460D02*
X8236420Y-18000984D01*
X8236420Y-18000984D02*
X8198325Y-18000984D01*
X8198325Y-18000984D02*
X8179277Y-17991460D01*
X8179277Y-17991460D02*
X8169753Y-17972412D01*
X8169753Y-17972412D02*
X8169753Y-17896222D01*
X8169753Y-17896222D02*
X8179277Y-17877174D01*
X8179277Y-17877174D02*
X8198325Y-17867650D01*
X8198325Y-17867650D02*
X8236420Y-17867650D01*
X8236420Y-17867650D02*
X8255468Y-17877174D01*
X8255468Y-17877174D02*
X8264991Y-17896222D01*
X8264991Y-17896222D02*
X8264991Y-17915270D01*
X8264991Y-17915270D02*
X8169753Y-17934317D01*
X8341182Y-17991460D02*
X8360230Y-18000984D01*
X8360230Y-18000984D02*
X8398325Y-18000984D01*
X8398325Y-18000984D02*
X8417373Y-17991460D01*
X8417373Y-17991460D02*
X8426896Y-17972412D01*
X8426896Y-17972412D02*
X8426896Y-17962889D01*
X8426896Y-17962889D02*
X8417373Y-17943841D01*
X8417373Y-17943841D02*
X8398325Y-17934317D01*
X8398325Y-17934317D02*
X8369753Y-17934317D01*
X8369753Y-17934317D02*
X8350706Y-17924793D01*
X8350706Y-17924793D02*
X8341182Y-17905746D01*
X8341182Y-17905746D02*
X8341182Y-17896222D01*
X8341182Y-17896222D02*
X8350706Y-17877174D01*
X8350706Y-17877174D02*
X8369753Y-17867650D01*
X8369753Y-17867650D02*
X8398325Y-17867650D01*
X8398325Y-17867650D02*
X8417373Y-17877174D01*
X8493563Y-18077174D02*
X8503087Y-18067650D01*
X8503087Y-18067650D02*
X8522134Y-18039079D01*
X8522134Y-18039079D02*
X8531658Y-18020031D01*
X8531658Y-18020031D02*
X8541182Y-17991460D01*
X8541182Y-17991460D02*
X8550706Y-17943841D01*
X8550706Y-17943841D02*
X8550706Y-17905746D01*
X8550706Y-17905746D02*
X8541182Y-17858127D01*
X8541182Y-17858127D02*
X8531658Y-17829555D01*
X8531658Y-17829555D02*
X8522134Y-17810508D01*
X8522134Y-17810508D02*
X8503087Y-17781936D01*
X8503087Y-17781936D02*
X8493563Y-17772412D01*
X3618500Y-18329500D02*
X3718500Y-18229500D01*
X3618500Y-18129500D01*
X3518500Y-18229500D01*
X3618500Y-18329500D01*
X3960229Y-18120984D02*
X4084039Y-18120984D01*
X4084039Y-18120984D02*
X4017372Y-18197174D01*
X4017372Y-18197174D02*
X4045943Y-18197174D01*
X4045943Y-18197174D02*
X4064991Y-18206698D01*
X4064991Y-18206698D02*
X4074515Y-18216222D01*
X4074515Y-18216222D02*
X4084039Y-18235270D01*
X4084039Y-18235270D02*
X4084039Y-18282889D01*
X4084039Y-18282889D02*
X4074515Y-18301936D01*
X4074515Y-18301936D02*
X4064991Y-18311460D01*
X4064991Y-18311460D02*
X4045943Y-18320984D01*
X4045943Y-18320984D02*
X3988801Y-18320984D01*
X3988801Y-18320984D02*
X3969753Y-18311460D01*
X3969753Y-18311460D02*
X3960229Y-18301936D01*
X4169753Y-18301936D02*
X4179277Y-18311460D01*
X4179277Y-18311460D02*
X4169753Y-18320984D01*
X4169753Y-18320984D02*
X4160229Y-18311460D01*
X4160229Y-18311460D02*
X4169753Y-18301936D01*
X4169753Y-18301936D02*
X4169753Y-18320984D01*
X4255467Y-18140031D02*
X4264991Y-18130508D01*
X4264991Y-18130508D02*
X4284039Y-18120984D01*
X4284039Y-18120984D02*
X4331658Y-18120984D01*
X4331658Y-18120984D02*
X4350705Y-18130508D01*
X4350705Y-18130508D02*
X4360229Y-18140031D01*
X4360229Y-18140031D02*
X4369753Y-18159079D01*
X4369753Y-18159079D02*
X4369753Y-18178127D01*
X4369753Y-18178127D02*
X4360229Y-18206698D01*
X4360229Y-18206698D02*
X4245944Y-18320984D01*
X4245944Y-18320984D02*
X4369753Y-18320984D01*
X4493563Y-18120984D02*
X4512610Y-18120984D01*
X4512610Y-18120984D02*
X4531658Y-18130508D01*
X4531658Y-18130508D02*
X4541182Y-18140031D01*
X4541182Y-18140031D02*
X4550705Y-18159079D01*
X4550705Y-18159079D02*
X4560229Y-18197174D01*
X4560229Y-18197174D02*
X4560229Y-18244793D01*
X4560229Y-18244793D02*
X4550705Y-18282889D01*
X4550705Y-18282889D02*
X4541182Y-18301936D01*
X4541182Y-18301936D02*
X4531658Y-18311460D01*
X4531658Y-18311460D02*
X4512610Y-18320984D01*
X4512610Y-18320984D02*
X4493563Y-18320984D01*
X4493563Y-18320984D02*
X4474515Y-18311460D01*
X4474515Y-18311460D02*
X4464991Y-18301936D01*
X4464991Y-18301936D02*
X4455467Y-18282889D01*
X4455467Y-18282889D02*
X4445944Y-18244793D01*
X4445944Y-18244793D02*
X4445944Y-18197174D01*
X4445944Y-18197174D02*
X4455467Y-18159079D01*
X4455467Y-18159079D02*
X4464991Y-18140031D01*
X4464991Y-18140031D02*
X4474515Y-18130508D01*
X4474515Y-18130508D02*
X4493563Y-18120984D01*
X4684039Y-18120984D02*
X4703086Y-18120984D01*
X4703086Y-18120984D02*
X4722134Y-18130508D01*
X4722134Y-18130508D02*
X4731658Y-18140031D01*
X4731658Y-18140031D02*
X4741182Y-18159079D01*
X4741182Y-18159079D02*
X4750705Y-18197174D01*
X4750705Y-18197174D02*
X4750705Y-18244793D01*
X4750705Y-18244793D02*
X4741182Y-18282889D01*
X4741182Y-18282889D02*
X4731658Y-18301936D01*
X4731658Y-18301936D02*
X4722134Y-18311460D01*
X4722134Y-18311460D02*
X4703086Y-18320984D01*
X4703086Y-18320984D02*
X4684039Y-18320984D01*
X4684039Y-18320984D02*
X4664991Y-18311460D01*
X4664991Y-18311460D02*
X4655467Y-18301936D01*
X4655467Y-18301936D02*
X4645944Y-18282889D01*
X4645944Y-18282889D02*
X4636420Y-18244793D01*
X4636420Y-18244793D02*
X4636420Y-18197174D01*
X4636420Y-18197174D02*
X4645944Y-18159079D01*
X4645944Y-18159079D02*
X4655467Y-18140031D01*
X4655467Y-18140031D02*
X4664991Y-18130508D01*
X4664991Y-18130508D02*
X4684039Y-18120984D01*
X4836420Y-18320984D02*
X4836420Y-18187650D01*
X4836420Y-18206698D02*
X4845944Y-18197174D01*
X4845944Y-18197174D02*
X4864991Y-18187650D01*
X4864991Y-18187650D02*
X4893563Y-18187650D01*
X4893563Y-18187650D02*
X4912610Y-18197174D01*
X4912610Y-18197174D02*
X4922134Y-18216222D01*
X4922134Y-18216222D02*
X4922134Y-18320984D01*
X4922134Y-18216222D02*
X4931658Y-18197174D01*
X4931658Y-18197174D02*
X4950705Y-18187650D01*
X4950705Y-18187650D02*
X4979277Y-18187650D01*
X4979277Y-18187650D02*
X4998325Y-18197174D01*
X4998325Y-18197174D02*
X5007848Y-18216222D01*
X5007848Y-18216222D02*
X5007848Y-18320984D01*
X5103086Y-18320984D02*
X5103086Y-18187650D01*
X5103086Y-18206698D02*
X5112610Y-18197174D01*
X5112610Y-18197174D02*
X5131658Y-18187650D01*
X5131658Y-18187650D02*
X5160229Y-18187650D01*
X5160229Y-18187650D02*
X5179277Y-18197174D01*
X5179277Y-18197174D02*
X5188801Y-18216222D01*
X5188801Y-18216222D02*
X5188801Y-18320984D01*
X5188801Y-18216222D02*
X5198325Y-18197174D01*
X5198325Y-18197174D02*
X5217372Y-18187650D01*
X5217372Y-18187650D02*
X5245944Y-18187650D01*
X5245944Y-18187650D02*
X5264991Y-18197174D01*
X5264991Y-18197174D02*
X5274515Y-18216222D01*
X5274515Y-18216222D02*
X5274515Y-18320984D01*
X5664991Y-18111460D02*
X5493563Y-18368603D01*
X5922134Y-18120984D02*
X5941182Y-18120984D01*
X5941182Y-18120984D02*
X5960229Y-18130508D01*
X5960229Y-18130508D02*
X5969753Y-18140031D01*
X5969753Y-18140031D02*
X5979277Y-18159079D01*
X5979277Y-18159079D02*
X5988801Y-18197174D01*
X5988801Y-18197174D02*
X5988801Y-18244793D01*
X5988801Y-18244793D02*
X5979277Y-18282889D01*
X5979277Y-18282889D02*
X5969753Y-18301936D01*
X5969753Y-18301936D02*
X5960229Y-18311460D01*
X5960229Y-18311460D02*
X5941182Y-18320984D01*
X5941182Y-18320984D02*
X5922134Y-18320984D01*
X5922134Y-18320984D02*
X5903086Y-18311460D01*
X5903086Y-18311460D02*
X5893563Y-18301936D01*
X5893563Y-18301936D02*
X5884039Y-18282889D01*
X5884039Y-18282889D02*
X5874515Y-18244793D01*
X5874515Y-18244793D02*
X5874515Y-18197174D01*
X5874515Y-18197174D02*
X5884039Y-18159079D01*
X5884039Y-18159079D02*
X5893563Y-18140031D01*
X5893563Y-18140031D02*
X5903086Y-18130508D01*
X5903086Y-18130508D02*
X5922134Y-18120984D01*
X6074515Y-18301936D02*
X6084039Y-18311460D01*
X6084039Y-18311460D02*
X6074515Y-18320984D01*
X6074515Y-18320984D02*
X6064991Y-18311460D01*
X6064991Y-18311460D02*
X6074515Y-18301936D01*
X6074515Y-18301936D02*
X6074515Y-18320984D01*
X6274515Y-18320984D02*
X6160229Y-18320984D01*
X6217372Y-18320984D02*
X6217372Y-18120984D01*
X6217372Y-18120984D02*
X6198325Y-18149555D01*
X6198325Y-18149555D02*
X6179277Y-18168603D01*
X6179277Y-18168603D02*
X6160229Y-18178127D01*
X6350706Y-18140031D02*
X6360229Y-18130508D01*
X6360229Y-18130508D02*
X6379277Y-18120984D01*
X6379277Y-18120984D02*
X6426896Y-18120984D01*
X6426896Y-18120984D02*
X6445944Y-18130508D01*
X6445944Y-18130508D02*
X6455467Y-18140031D01*
X6455467Y-18140031D02*
X6464991Y-18159079D01*
X6464991Y-18159079D02*
X6464991Y-18178127D01*
X6464991Y-18178127D02*
X6455467Y-18206698D01*
X6455467Y-18206698D02*
X6341182Y-18320984D01*
X6341182Y-18320984D02*
X6464991Y-18320984D01*
X6636420Y-18120984D02*
X6598325Y-18120984D01*
X6598325Y-18120984D02*
X6579277Y-18130508D01*
X6579277Y-18130508D02*
X6569753Y-18140031D01*
X6569753Y-18140031D02*
X6550706Y-18168603D01*
X6550706Y-18168603D02*
X6541182Y-18206698D01*
X6541182Y-18206698D02*
X6541182Y-18282889D01*
X6541182Y-18282889D02*
X6550706Y-18301936D01*
X6550706Y-18301936D02*
X6560229Y-18311460D01*
X6560229Y-18311460D02*
X6579277Y-18320984D01*
X6579277Y-18320984D02*
X6617372Y-18320984D01*
X6617372Y-18320984D02*
X6636420Y-18311460D01*
X6636420Y-18311460D02*
X6645944Y-18301936D01*
X6645944Y-18301936D02*
X6655467Y-18282889D01*
X6655467Y-18282889D02*
X6655467Y-18235270D01*
X6655467Y-18235270D02*
X6645944Y-18216222D01*
X6645944Y-18216222D02*
X6636420Y-18206698D01*
X6636420Y-18206698D02*
X6617372Y-18197174D01*
X6617372Y-18197174D02*
X6579277Y-18197174D01*
X6579277Y-18197174D02*
X6560229Y-18206698D01*
X6560229Y-18206698D02*
X6550706Y-18216222D01*
X6550706Y-18216222D02*
X6541182Y-18235270D01*
X6779277Y-18120984D02*
X6798325Y-18120984D01*
X6798325Y-18120984D02*
X6817372Y-18130508D01*
X6817372Y-18130508D02*
X6826896Y-18140031D01*
X6826896Y-18140031D02*
X6836420Y-18159079D01*
X6836420Y-18159079D02*
X6845944Y-18197174D01*
X6845944Y-18197174D02*
X6845944Y-18244793D01*
X6845944Y-18244793D02*
X6836420Y-18282889D01*
X6836420Y-18282889D02*
X6826896Y-18301936D01*
X6826896Y-18301936D02*
X6817372Y-18311460D01*
X6817372Y-18311460D02*
X6798325Y-18320984D01*
X6798325Y-18320984D02*
X6779277Y-18320984D01*
X6779277Y-18320984D02*
X6760229Y-18311460D01*
X6760229Y-18311460D02*
X6750706Y-18301936D01*
X6750706Y-18301936D02*
X6741182Y-18282889D01*
X6741182Y-18282889D02*
X6731658Y-18244793D01*
X6731658Y-18244793D02*
X6731658Y-18197174D01*
X6731658Y-18197174D02*
X6741182Y-18159079D01*
X6741182Y-18159079D02*
X6750706Y-18140031D01*
X6750706Y-18140031D02*
X6760229Y-18130508D01*
X6760229Y-18130508D02*
X6779277Y-18120984D01*
X6922134Y-18120984D02*
X6922134Y-18159079D01*
X6998325Y-18120984D02*
X6998325Y-18159079D01*
X7293563Y-18397174D02*
X7284039Y-18387650D01*
X7284039Y-18387650D02*
X7264991Y-18359079D01*
X7264991Y-18359079D02*
X7255468Y-18340031D01*
X7255468Y-18340031D02*
X7245944Y-18311460D01*
X7245944Y-18311460D02*
X7236420Y-18263841D01*
X7236420Y-18263841D02*
X7236420Y-18225746D01*
X7236420Y-18225746D02*
X7245944Y-18178127D01*
X7245944Y-18178127D02*
X7255468Y-18149555D01*
X7255468Y-18149555D02*
X7264991Y-18130508D01*
X7264991Y-18130508D02*
X7284039Y-18101936D01*
X7284039Y-18101936D02*
X7293563Y-18092412D01*
X7474515Y-18320984D02*
X7360229Y-18320984D01*
X7417372Y-18320984D02*
X7417372Y-18120984D01*
X7417372Y-18120984D02*
X7398325Y-18149555D01*
X7398325Y-18149555D02*
X7379277Y-18168603D01*
X7379277Y-18168603D02*
X7360229Y-18178127D01*
X7645944Y-18120984D02*
X7607848Y-18120984D01*
X7607848Y-18120984D02*
X7588801Y-18130508D01*
X7588801Y-18130508D02*
X7579277Y-18140031D01*
X7579277Y-18140031D02*
X7560229Y-18168603D01*
X7560229Y-18168603D02*
X7550706Y-18206698D01*
X7550706Y-18206698D02*
X7550706Y-18282889D01*
X7550706Y-18282889D02*
X7560229Y-18301936D01*
X7560229Y-18301936D02*
X7569753Y-18311460D01*
X7569753Y-18311460D02*
X7588801Y-18320984D01*
X7588801Y-18320984D02*
X7626896Y-18320984D01*
X7626896Y-18320984D02*
X7645944Y-18311460D01*
X7645944Y-18311460D02*
X7655468Y-18301936D01*
X7655468Y-18301936D02*
X7664991Y-18282889D01*
X7664991Y-18282889D02*
X7664991Y-18235270D01*
X7664991Y-18235270D02*
X7655468Y-18216222D01*
X7655468Y-18216222D02*
X7645944Y-18206698D01*
X7645944Y-18206698D02*
X7626896Y-18197174D01*
X7626896Y-18197174D02*
X7588801Y-18197174D01*
X7588801Y-18197174D02*
X7569753Y-18206698D01*
X7569753Y-18206698D02*
X7560229Y-18216222D01*
X7560229Y-18216222D02*
X7550706Y-18235270D01*
X7903087Y-18320984D02*
X7903087Y-18120984D01*
X7988801Y-18320984D02*
X7988801Y-18216222D01*
X7988801Y-18216222D02*
X7979277Y-18197174D01*
X7979277Y-18197174D02*
X7960230Y-18187650D01*
X7960230Y-18187650D02*
X7931658Y-18187650D01*
X7931658Y-18187650D02*
X7912610Y-18197174D01*
X7912610Y-18197174D02*
X7903087Y-18206698D01*
X8112610Y-18320984D02*
X8093563Y-18311460D01*
X8093563Y-18311460D02*
X8084039Y-18301936D01*
X8084039Y-18301936D02*
X8074515Y-18282889D01*
X8074515Y-18282889D02*
X8074515Y-18225746D01*
X8074515Y-18225746D02*
X8084039Y-18206698D01*
X8084039Y-18206698D02*
X8093563Y-18197174D01*
X8093563Y-18197174D02*
X8112610Y-18187650D01*
X8112610Y-18187650D02*
X8141182Y-18187650D01*
X8141182Y-18187650D02*
X8160230Y-18197174D01*
X8160230Y-18197174D02*
X8169753Y-18206698D01*
X8169753Y-18206698D02*
X8179277Y-18225746D01*
X8179277Y-18225746D02*
X8179277Y-18282889D01*
X8179277Y-18282889D02*
X8169753Y-18301936D01*
X8169753Y-18301936D02*
X8160230Y-18311460D01*
X8160230Y-18311460D02*
X8141182Y-18320984D01*
X8141182Y-18320984D02*
X8112610Y-18320984D01*
X8293563Y-18320984D02*
X8274515Y-18311460D01*
X8274515Y-18311460D02*
X8264991Y-18292412D01*
X8264991Y-18292412D02*
X8264991Y-18120984D01*
X8445944Y-18311460D02*
X8426896Y-18320984D01*
X8426896Y-18320984D02*
X8388801Y-18320984D01*
X8388801Y-18320984D02*
X8369753Y-18311460D01*
X8369753Y-18311460D02*
X8360230Y-18292412D01*
X8360230Y-18292412D02*
X8360230Y-18216222D01*
X8360230Y-18216222D02*
X8369753Y-18197174D01*
X8369753Y-18197174D02*
X8388801Y-18187650D01*
X8388801Y-18187650D02*
X8426896Y-18187650D01*
X8426896Y-18187650D02*
X8445944Y-18197174D01*
X8445944Y-18197174D02*
X8455468Y-18216222D01*
X8455468Y-18216222D02*
X8455468Y-18235270D01*
X8455468Y-18235270D02*
X8360230Y-18254317D01*
X8531658Y-18311460D02*
X8550706Y-18320984D01*
X8550706Y-18320984D02*
X8588801Y-18320984D01*
X8588801Y-18320984D02*
X8607849Y-18311460D01*
X8607849Y-18311460D02*
X8617373Y-18292412D01*
X8617373Y-18292412D02*
X8617373Y-18282889D01*
X8617373Y-18282889D02*
X8607849Y-18263841D01*
X8607849Y-18263841D02*
X8588801Y-18254317D01*
X8588801Y-18254317D02*
X8560230Y-18254317D01*
X8560230Y-18254317D02*
X8541182Y-18244793D01*
X8541182Y-18244793D02*
X8531658Y-18225746D01*
X8531658Y-18225746D02*
X8531658Y-18216222D01*
X8531658Y-18216222D02*
X8541182Y-18197174D01*
X8541182Y-18197174D02*
X8560230Y-18187650D01*
X8560230Y-18187650D02*
X8588801Y-18187650D01*
X8588801Y-18187650D02*
X8607849Y-18197174D01*
X8684039Y-18397174D02*
X8693563Y-18387650D01*
X8693563Y-18387650D02*
X8712611Y-18359079D01*
X8712611Y-18359079D02*
X8722134Y-18340031D01*
X8722134Y-18340031D02*
X8731658Y-18311460D01*
X8731658Y-18311460D02*
X8741182Y-18263841D01*
X8741182Y-18263841D02*
X8741182Y-18225746D01*
X8741182Y-18225746D02*
X8731658Y-18178127D01*
X8731658Y-18178127D02*
X8722134Y-18149555D01*
X8722134Y-18149555D02*
X8712611Y-18130508D01*
X8712611Y-18130508D02*
X8693563Y-18101936D01*
X8693563Y-18101936D02*
X8684039Y-18092412D01*
M02*
