M48
; DRILL file {KiCad 7.0.7} date Fri Oct 13 15:10:30 2023
; FORMAT={-:-/ absolute / inch / decimal}
; #@! TF.CreationDate,2023-10-13T15:10:30-04:00
; #@! TF.GenerationSoftware,Kicad,Pcbnew,7.0.7
; #@! TF.FileFunction,NonPlated,1,2,NPTH
FMAT,2
INCH
; #@! TA.AperFunction,NonPlated,NPTH,ComponentDrill
T1C0.0256
; #@! TA.AperFunction,NonPlated,NPTH,ComponentDrill
T2C0.0689
; #@! TA.AperFunction,NonPlated,NPTH,ComponentDrill
T3C0.1181
; #@! TA.AperFunction,NonPlated,NPTH,ComponentDrill
T4C0.1200
; #@! TA.AperFunction,NonPlated,NPTH,ComponentDrill
T5C0.1570
%
G90
G05
T1
X2.5352Y-1.6142
X2.7628Y-1.6142
T2
X1.8291Y-1.9961
X1.8293Y-2.9317
X1.9234Y-5.9321
X2.0167Y-3.6815
X2.1104Y-4.4315
X2.2291Y-1.9961
X2.2293Y-2.9317
X2.2981Y-5.1819
X2.3234Y-5.9321
X2.4167Y-3.6815
X2.5104Y-4.4315
X2.5791Y-2.9317
X2.6981Y-5.1819
X2.861Y-5.9319
X2.9545Y-3.6813
X2.9791Y-2.9317
X3.0787Y-1.9959
X3.1417Y-4.4313
X3.261Y-5.9319
X3.3303Y-2.9321
X3.3545Y-3.6813
X3.4787Y-1.9959
X3.5169Y-5.1815
X3.5417Y-4.4313
X3.7049Y-3.6821
X3.7303Y-2.9321
X3.7984Y-5.9317
X3.8287Y-1.9957
X3.8921Y-4.4321
X3.9169Y-5.1815
X4.0803Y-2.9325
X4.1049Y-3.6821
X4.1984Y-5.9317
X4.2287Y-1.9957
X4.2675Y-5.1815
X4.2921Y-4.4321
X4.4551Y-3.6821
X4.4803Y-2.9325
X4.5787Y-1.9957
X4.6421Y-4.4321
X4.6675Y-5.1815
X4.8301Y-2.9323
X4.8551Y-3.6821
X4.9787Y-1.9957
X5.0175Y-5.1821
X5.0421Y-4.4321
X5.2053Y-3.6821
X5.2301Y-2.9323
X5.3289Y-1.9959
X5.3923Y-4.4323
X5.4175Y-5.1821
X5.5803Y-2.9323
X5.6053Y-3.6821
X5.7289Y-1.9959
X5.7669Y-5.1821
X5.7923Y-4.4323
X5.9553Y-3.6823
X5.9803Y-2.9323
X6.1425Y-4.4325
X6.1669Y-5.1821
X6.3305Y-2.9323
X6.3553Y-3.6823
X6.5171Y-5.1817
X6.5425Y-4.4325
X6.5789Y-1.9959
X6.6104Y-5.9317
X6.7057Y-3.6821
X6.7305Y-2.9323
X6.8923Y-4.4317
X6.9171Y-5.1817
X6.9789Y-1.9959
X7.0104Y-5.9317
X7.0805Y-2.9319
X7.1057Y-3.6821
X7.2671Y-5.1815
X7.2923Y-4.4317
X7.3293Y-1.9961
X7.4559Y-3.6819
X7.4805Y-2.9319
X7.6423Y-4.4317
X7.6671Y-5.1815
X7.7293Y-1.9961
X7.8311Y-2.9319
X7.8559Y-3.6819
X8.0171Y-5.1817
X8.0423Y-4.4317
X8.0795Y-1.9961
X8.2059Y-3.6817
X8.2311Y-2.9319
X8.3925Y-4.4317
X8.4171Y-5.1817
X8.4795Y-1.9961
X8.5811Y-2.9317
X8.6059Y-3.6817
X8.7667Y-5.1815
X8.7925Y-4.4317
X8.8283Y-1.9961
X8.9563Y-3.6817
X8.9811Y-2.9317
X9.1423Y-4.4315
X9.1667Y-5.1815
X9.2283Y-1.9961
X9.3291Y-5.9315
X9.3311Y-2.9317
X9.3563Y-3.6817
X9.5165Y-5.1815
X9.5423Y-4.4315
X9.7063Y-3.6817
X9.7291Y-5.9315
X9.7311Y-2.9317
X9.8923Y-4.4313
X9.9165Y-5.1815
X10.0791Y-1.9961
X10.0791Y-5.9315
X10.0805Y-2.9317
X10.1063Y-3.6817
X10.2667Y-5.1817
X10.2923Y-4.4313
X10.4557Y-3.6817
X10.4791Y-1.9961
X10.4791Y-5.9315
X10.4805Y-2.9317
X10.6421Y-4.4317
X10.6667Y-5.1817
X10.8291Y-1.9961
X10.8291Y-5.9315
X10.8301Y-2.9317
X10.8557Y-3.6817
X11.0421Y-4.4317
X11.2053Y-3.6817
X11.2291Y-1.9961
X11.2291Y-5.9315
X11.2301Y-2.9317
X11.2982Y-5.1815
X11.5791Y-1.9963
X11.6053Y-3.6817
X11.678Y-6.0299
X11.6982Y-5.1815
X11.8609Y-4.4315
X11.955Y-2.9313
X11.9791Y-1.9963
X12.078Y-6.0299
X12.1425Y-3.6815
X12.2609Y-4.4315
X12.3293Y-1.9963
X12.355Y-2.9313
X12.4276Y-5.2797
X12.4278Y-6.0299
X12.5425Y-3.6815
X12.7293Y-1.9963
X12.8276Y-5.2797
X12.8278Y-6.0299
X13.178Y-6.0299
X13.276Y-2.9317
X13.276Y-3.6817
X13.2762Y-4.4317
X13.2762Y-5.1815
X13.578Y-6.0299
X13.676Y-2.9317
X13.676Y-3.6817
X13.6762Y-4.4317
X13.6762Y-5.1815
T3
X1.8791Y-1.8961
X1.8793Y-2.8317
X1.9734Y-5.8321
X2.0667Y-3.5815
X2.1291Y-1.7961
X2.1293Y-2.7317
X2.1604Y-4.3315
X2.2234Y-5.7321
X2.3167Y-3.4815
X2.3481Y-5.0819
X2.4104Y-4.2315
X2.5981Y-4.9819
X2.6291Y-2.8317
X2.8791Y-2.7317
X2.911Y-5.8319
X3.0045Y-3.5813
X3.1287Y-1.8959
X3.161Y-5.7319
X3.1917Y-4.3313
X3.2545Y-3.4813
X3.3787Y-1.7959
X3.3803Y-2.8321
X3.4417Y-4.2313
X3.5669Y-5.0815
X3.6303Y-2.7321
X3.7549Y-3.5821
X3.8169Y-4.9815
X3.8484Y-5.8317
X3.8787Y-1.8957
X3.9421Y-4.3321
X4.0049Y-3.4821
X4.0984Y-5.7317
X4.1287Y-1.7957
X4.1303Y-2.8325
X4.1921Y-4.2321
X4.3175Y-5.0815
X4.3803Y-2.7325
X4.5051Y-3.5821
X4.5675Y-4.9815
X4.6287Y-1.8957
X4.6921Y-4.3321
X4.7551Y-3.4821
X4.8787Y-1.7957
X4.8801Y-2.8323
X4.9421Y-4.2321
X5.0675Y-5.0821
X5.1301Y-2.7323
X5.2553Y-3.5821
X5.3175Y-4.9821
X5.3789Y-1.8959
X5.4423Y-4.3323
X5.5053Y-3.4821
X5.6289Y-1.7959
X5.6303Y-2.8323
X5.6923Y-4.2323
X5.8169Y-5.0821
X5.8803Y-2.7323
X6.0053Y-3.5823
X6.0669Y-4.9821
X6.1925Y-4.3325
X6.2553Y-3.4823
X6.3805Y-2.8323
X6.4425Y-4.2325
X6.5671Y-5.0817
X6.6289Y-1.8959
X6.6305Y-2.7323
X6.6604Y-5.8317
X6.7557Y-3.5821
X6.8171Y-4.9817
X6.8789Y-1.7959
X6.9104Y-5.7317
X6.9423Y-4.3317
X7.0057Y-3.4821
X7.1305Y-2.8319
X7.1923Y-4.2317
X7.3171Y-5.0815
X7.3793Y-1.8961
X7.3805Y-2.7319
X7.5059Y-3.5819
X7.5671Y-4.9815
X7.6293Y-1.7961
X7.6923Y-4.3317
X7.7559Y-3.4819
X7.8811Y-2.8319
X7.9423Y-4.2317
X8.0671Y-5.0817
X8.1295Y-1.8961
X8.1311Y-2.7319
X8.2559Y-3.5817
X8.3171Y-4.9817
X8.3795Y-1.7961
X8.4425Y-4.3317
X8.5059Y-3.4817
X8.6311Y-2.8317
X8.6925Y-4.2317
X8.8167Y-5.0815
X8.8783Y-1.8961
X8.8811Y-2.7317
X9.0063Y-3.5817
X9.0667Y-4.9815
X9.1283Y-1.7961
X9.1923Y-4.3315
X9.2563Y-3.4817
X9.3791Y-5.8315
X9.3811Y-2.8317
X9.4423Y-4.2315
X9.5665Y-5.0815
X9.6291Y-5.7315
X9.6311Y-2.7317
X9.7563Y-3.5817
X9.8165Y-4.9815
X9.9423Y-4.3313
X10.0063Y-3.4817
X10.1291Y-1.8961
X10.1291Y-5.8315
X10.1305Y-2.8317
X10.1923Y-4.2313
X10.3167Y-5.0817
X10.3791Y-1.7961
X10.3791Y-5.7315
X10.3805Y-2.7317
X10.5057Y-3.5817
X10.5667Y-4.9817
X10.6921Y-4.3317
X10.7557Y-3.4817
X10.8791Y-1.8961
X10.8791Y-5.8315
X10.8801Y-2.8317
X10.9421Y-4.2317
X11.1291Y-1.7961
X11.1291Y-5.7315
X11.1301Y-2.7317
X11.2553Y-3.5817
X11.3482Y-5.0815
X11.5053Y-3.4817
X11.5982Y-4.9815
X11.6291Y-1.8963
X11.728Y-5.9299
X11.8791Y-1.7963
X11.9109Y-4.3315
X11.978Y-5.8299
X12.005Y-2.8313
X12.1609Y-4.2315
X12.1925Y-3.5815
X12.255Y-2.7313
X12.3793Y-1.8963
X12.4425Y-3.4815
X12.4776Y-5.1797
X12.4778Y-5.9299
X12.6293Y-1.7963
X12.7276Y-5.0797
X12.7278Y-5.8299
X13.228Y-5.9299
X13.326Y-2.8317
X13.326Y-3.5817
X13.3262Y-4.3317
X13.3262Y-5.0815
X13.478Y-5.8299
X13.576Y-2.7317
X13.576Y-3.4817
X13.5762Y-4.2317
X13.5762Y-4.9815
T4
X2.0281Y-4.9069
X2.9681Y-4.9069
X4.8419Y-5.6567
X8.7789Y-5.6567
X11.5909Y-4.1565
X11.685Y-2.6563
X12.5309Y-4.1565
X12.625Y-2.6563
T5
X2.0281Y-5.5069
X2.0291Y-1.9961
X2.0293Y-2.9317
X2.1234Y-5.9321
X2.2167Y-3.6815
X2.3104Y-4.4315
X2.4981Y-5.1819
X2.7791Y-2.9317
X2.9681Y-5.5069
X3.061Y-5.9319
X3.1545Y-3.6813
X3.2787Y-1.9959
X3.3417Y-4.4313
X3.5303Y-2.9321
X3.7169Y-5.1815
X3.9049Y-3.6821
X3.9984Y-5.9317
X4.0287Y-1.9957
X4.0921Y-4.4321
X4.2803Y-2.9325
X4.4675Y-5.1815
X4.6551Y-3.6821
X4.7787Y-1.9957
X4.8419Y-6.2567
X4.8421Y-4.4321
X5.0301Y-2.9323
X5.2175Y-5.1821
X5.4053Y-3.6821
X5.5289Y-1.9959
X5.5923Y-4.4323
X5.7803Y-2.9323
X5.9669Y-5.1821
X6.1553Y-3.6823
X6.3425Y-4.4325
X6.5305Y-2.9323
X6.7171Y-5.1817
X6.7789Y-1.9959
X6.8104Y-5.9317
X6.9057Y-3.6821
X7.0923Y-4.4317
X7.2805Y-2.9319
X7.4671Y-5.1815
X7.5293Y-1.9961
X7.6559Y-3.6819
X7.8423Y-4.4317
X8.0311Y-2.9319
X8.2171Y-5.1817
X8.2795Y-1.9961
X8.4059Y-3.6817
X8.5925Y-4.4317
X8.7789Y-6.2567
X8.7811Y-2.9317
X8.9667Y-5.1815
X9.0283Y-1.9961
X9.1563Y-3.6817
X9.3423Y-4.4315
X9.5291Y-5.9315
X9.5311Y-2.9317
X9.7165Y-5.1815
X9.9063Y-3.6817
X10.0923Y-4.4313
X10.2791Y-1.9961
X10.2791Y-5.9315
X10.2805Y-2.9317
X10.4667Y-5.1817
X10.6557Y-3.6817
X10.8421Y-4.4317
X11.0291Y-1.9961
X11.0291Y-5.9315
X11.0301Y-2.9317
X11.4053Y-3.6817
X11.4982Y-5.1815
X11.5909Y-4.7565
X11.685Y-3.2563
X11.7791Y-1.9963
X11.878Y-6.0299
X12.0609Y-4.4315
X12.155Y-2.9313
X12.3425Y-3.6815
X12.5293Y-1.9963
X12.5309Y-4.7565
X12.625Y-3.2563
X12.6276Y-5.2797
X12.6278Y-6.0299
X13.378Y-6.0299
X13.476Y-2.9317
X13.476Y-3.6817
X13.4762Y-4.4317
X13.4762Y-5.1815
T0
M30
